<svg width="116" height="98" viewBox="0 0 116 98" fill="none" xmlns="http://www.w3.org/2000/svg">
<path d="M104.377 90.7751H96.693V90.8412H104.377V90.7751Z" fill="#EBEBEB"/>
<path d="M76.843 91.4939H74.827V91.56H76.843V91.4939Z" fill="#EBEBEB"/>
<path d="M96.461 88.3225H92.0089V88.3886H96.461V88.3225Z" fill="#EBEBEB"/>
<path d="M22.1908 88.7664H12.1707V88.8324H22.1908V88.7664Z" fill="#EBEBEB"/>
<path d="M25.7265 88.7664H24.2579V88.8324H25.7265V88.7664Z" fill="#EBEBEB"/>
<path d="M52.2348 89.8816H30.501V89.9477H52.2348V89.8816Z" fill="#EBEBEB"/>
<path d="M54.984 74.7363H10.1894C9.83811 74.7363 9.50116 74.5774 9.25272 74.2944C9.00429 74.0114 8.86472 73.6275 8.86472 73.2273V1.49578C8.86778 1.09787 9.0087 0.717434 9.2568 0.437293C9.5049 0.157153 9.84011 -1.52554e-05 10.1894 1.11062e-09H54.984C55.3353 1.11062e-09 55.6723 0.158983 55.9207 0.441975C56.1692 0.724967 56.3087 1.10879 56.3087 1.509V73.2273C56.3087 73.6275 56.1692 74.0114 55.9207 74.2944C55.6723 74.5774 55.3353 74.7363 54.984 74.7363ZM10.1894 0.0528548C9.85368 0.0535533 9.53184 0.2058 9.29441 0.47625C9.05699 0.746701 8.92334 1.11331 8.92272 1.49578V73.2273C8.92334 73.6098 9.05699 73.9764 9.29441 74.2469C9.53184 74.5173 9.85368 74.6696 10.1894 74.6703H54.984C55.3198 74.6696 55.6416 74.5173 55.879 74.2469C56.1165 73.9764 56.2501 73.6098 56.2507 73.2273V1.49578C56.2501 1.11331 56.1165 0.746701 55.879 0.47625C55.6416 0.2058 55.3198 0.0535533 54.984 0.0528548H10.1894Z" fill="#EBEBEB"/>
<path d="M105.168 74.7363H60.3687C60.0176 74.7356 59.681 74.5764 59.4327 74.2936C59.1844 74.0107 59.0446 73.6273 59.044 73.2273V1.49578C59.0477 1.09808 59.1888 0.718049 59.4368 0.438057C59.6847 0.158064 60.0196 0.000673444 60.3687 0H105.168C105.516 0.00137541 105.85 0.159158 106.098 0.439149C106.345 0.719141 106.485 1.09878 106.488 1.49578V73.2273C106.488 73.6266 106.349 74.0097 106.102 74.2925C105.854 74.5753 105.518 74.7349 105.168 74.7363ZM60.3687 0.0528548C60.033 0.0535533 59.7111 0.2058 59.4737 0.47625C59.2363 0.746701 59.1026 1.11331 59.102 1.49578V73.2273C59.1026 73.6098 59.2363 73.9764 59.4737 74.2469C59.7111 74.5173 60.033 74.6696 60.3687 74.6703H105.168C105.504 74.6696 105.826 74.5173 106.063 74.2469C106.3 73.9764 106.434 73.6098 106.435 73.2273V1.49578C106.434 1.11331 106.3 0.746701 106.063 0.47625C105.826 0.2058 105.504 0.0535533 105.168 0.0528548H60.3687Z" fill="#EBEBEB"/>
<path d="M116 86.5229H0V86.589H116V86.5229Z" fill="#EBEBEB"/>
<path d="M19.6342 86.0869H20.1631L20.1631 48.3091H19.6342L19.6342 86.0869Z" fill="#EBEBEB"/>
<path d="M25.8402 44.3979C25.8402 46.3245 24.6384 48.0079 22.8543 48.9038H16.936C15.1519 48.0079 13.9502 46.3245 13.9502 44.3979C13.9502 42.4714 15.1612 40.7906 16.936 39.9053H22.8543C24.6384 40.7906 25.8402 42.4714 25.8402 44.3979Z" fill="#F0F0F0"/>
<path d="M17.98 44.3979C17.98 42.4687 19.1794 40.7879 20.9635 39.8894H22.8543C24.6384 40.7879 25.8402 42.4687 25.8402 44.3979C25.8402 46.3271 24.6384 48.0079 22.8543 48.9037H20.9635C19.1794 48.0105 17.98 46.3271 17.98 44.3979Z" fill="#F5F5F5"/>
<path d="M16.1774 86.3749H23.6222C23.6222 86.2389 23.5987 86.1044 23.553 85.9788C23.5072 85.8533 23.4402 85.7393 23.3557 85.6433C23.2712 85.5473 23.171 85.4712 23.0606 85.4195C22.9503 85.3677 22.8321 85.3412 22.7128 85.3416H17.0868C16.846 85.3416 16.615 85.4503 16.4445 85.644C16.2741 85.8378 16.178 86.1006 16.1774 86.3749Z" fill="#EBEBEB"/>
<path d="M95.0782 70.447C95.0991 70.4708 94.9878 70.6479 95.4402 70.5712C96.5538 70.381 98.4933 69.8656 99.0315 68.5601C99.8041 66.697 97.4075 67.3788 97.4957 66.4248C97.5838 65.4708 100.298 65.632 100.586 64.2419C100.874 62.8518 99.0315 63.5099 99.006 62.8307C98.9805 62.1515 101.108 62.5664 101.528 61.0654C101.948 59.5643 100.345 60.6663 100.528 60.04C100.711 59.4137 102.512 56.578 101.532 56.2503C100.553 55.9226 98.9062 58.8296 98.2706 59.2419C97.6349 59.6541 97.0711 57.2783 96.3125 58.2826C95.5538 59.2868 96.7556 62.7911 95.7905 63.4729C95.069 63.9776 95.2731 62.5823 94.3219 62.8439C93.032 63.198 93.4658 68.3884 95.0782 70.447Z" fill="#F5F5F5"/>
<path d="M98.5165 62.8389C98.1883 62.8653 97.8646 62.9408 97.5537 63.0636C97.7587 62.71 97.9875 62.3751 98.2381 62.062C98.2459 62.0531 98.2521 62.0426 98.2563 62.0311C98.2605 62.0195 98.2627 62.0071 98.2627 61.9946C98.2627 61.9821 98.2605 61.9697 98.2563 61.9581C98.2521 61.9465 98.2459 61.936 98.2381 61.9272C98.2305 61.9184 98.2215 61.9114 98.2115 61.9067C98.2016 61.9019 98.1909 61.8994 98.1801 61.8994C98.1693 61.8994 98.1586 61.9019 98.1486 61.9067C98.1387 61.9114 98.1296 61.9184 98.1221 61.9272C97.5825 62.6134 97.1211 63.3743 96.7486 64.192C96.5588 62.6557 96.7467 61.0896 97.2915 59.6677C97.2955 59.6594 97.2979 59.6503 97.2986 59.6409C97.2993 59.6316 97.2983 59.6221 97.2957 59.6132C97.2931 59.6043 97.2889 59.5961 97.2834 59.5891C97.2779 59.5821 97.2712 59.5765 97.2637 59.5725C97.2489 59.5642 97.2318 59.5629 97.2162 59.5688C97.2006 59.5748 97.1876 59.5875 97.1802 59.6042C96.6033 61.1084 96.4212 62.7707 96.6558 64.3902C96.5422 64.6386 96.4238 64.9029 96.3148 65.183C95.9155 66.1938 95.6002 67.2449 95.3729 68.3226C94.9609 67.4381 94.736 66.4562 94.7163 65.4552C94.7152 65.4365 94.7078 65.419 94.6957 65.4063C94.6837 65.3935 94.6678 65.3865 94.6514 65.3865C94.6434 65.3869 94.6357 65.389 94.6285 65.3928C94.6212 65.3965 94.6148 65.4019 94.6094 65.4085C94.604 65.4151 94.5998 65.4229 94.5971 65.4314C94.5943 65.4398 94.5931 65.4488 94.5934 65.4579C94.6114 66.5329 94.865 67.5858 95.3311 68.5208C94.9094 70.6432 94.7679 72.8255 94.9112 74.9955C94.913 75.0205 94.9231 75.0437 94.9395 75.0605C94.9559 75.0772 94.9774 75.0861 94.9994 75.0853C95.0188 75.0809 95.0361 75.0685 95.0481 75.0505C95.0601 75.0324 95.0659 75.0101 95.0643 74.9875C94.8682 72.2331 95.1585 69.4619 95.9181 66.8374C96.2576 66.3889 96.7219 66.0866 97.2335 65.9811C97.2493 65.9779 97.2634 65.9679 97.2729 65.9531C97.2824 65.9383 97.2866 65.92 97.2846 65.9019C97.2838 65.8926 97.2813 65.8837 97.2772 65.8756C97.2732 65.8676 97.2677 65.8606 97.2611 65.8551C97.2546 65.8496 97.2471 65.8458 97.2391 65.8438C97.2312 65.8418 97.2229 65.8418 97.215 65.8437C96.7644 65.9304 96.3463 66.1666 96.0132 66.5229C96.3776 65.3797 96.8563 64.2881 97.44 63.2697C97.7879 63.1057 98.157 63.0076 98.5327 62.979C98.5491 62.977 98.5642 62.968 98.575 62.9537C98.5858 62.9395 98.5914 62.9211 98.5907 62.9024C98.5899 62.8924 98.5873 62.8828 98.583 62.8741C98.5788 62.8655 98.5729 62.8579 98.5659 62.8519C98.559 62.8459 98.5509 62.8417 98.5424 62.8395C98.5339 62.8372 98.5251 62.837 98.5165 62.8389Z" fill="#E0E0E0"/>
<path d="M93.264 71.7342C92.1249 71.7607 90.1784 70.5529 89.4128 69.3822C88.6472 68.2115 90.821 68.9303 90.596 67.9948C90.371 67.0592 87.6821 67.7516 87.1856 66.4091C86.6891 65.0666 88.631 65.3785 88.5521 64.694C88.4732 64.0095 86.4641 64.1496 85.8191 62.7252C85.1742 61.3007 86.942 62.0988 86.6659 61.5095C86.3898 60.9202 84.1719 58.4387 85.0999 57.9207C86.0279 57.4027 88.1043 59.9873 88.8003 60.2754C89.4963 60.5634 89.6587 58.7796 90.5658 59.6332C91.473 60.4868 90.7978 64.221 91.8604 64.7125C92.6538 65.0798 92.3244 63.3726 93.2315 63.8034C94.8346 64.5592 93.728 71.7263 93.264 71.7342Z" fill="#E6E6E6"/>
<g opacity="0.3">
<path opacity="0.3" d="M93.264 71.7342C92.1249 71.7607 90.1784 70.5529 89.4128 69.3822C88.6472 68.2115 90.821 68.9303 90.596 67.9948C90.371 67.0592 87.6821 67.7516 87.1856 66.4091C86.6891 65.0666 88.631 65.3785 88.5521 64.694C88.4732 64.0095 86.4641 64.1496 85.8191 62.7252C85.1742 61.3007 86.942 62.0988 86.6659 61.5095C86.3898 60.9202 84.1719 58.4387 85.0999 57.9207C86.0279 57.4027 88.1043 59.9873 88.8003 60.2754C89.4963 60.5634 89.6587 58.7796 90.5658 59.6332C91.473 60.4868 90.7978 64.221 91.8604 64.7125C92.6538 65.0798 92.3244 63.3726 93.2315 63.8034C94.8346 64.5592 93.728 71.7263 93.264 71.7342Z" fill="#E6E6E6"/>
</g>
<path d="M92.8905 70.1776C92.9082 70.1707 92.923 70.1566 92.9322 70.138C93.3662 69.0485 93.5421 67.8485 93.4426 66.6575C93.4426 66.6344 93.4345 66.6122 93.4202 66.5958C93.4058 66.5795 93.3864 66.5703 93.3661 66.5703C93.3458 66.5703 93.3263 66.5795 93.3119 66.5958C93.2976 66.6122 93.2895 66.6344 93.2895 66.6575C93.3748 67.787 93.2154 68.9231 92.8255 69.9662C92.3554 68.5239 91.7755 67.1312 91.0925 65.8039C91.1816 64.0244 90.8114 62.254 90.0276 60.7114C90.0166 60.6923 89.9996 60.6789 89.9801 60.674C89.9606 60.669 89.9402 60.673 89.9232 60.6849C89.9147 60.6909 89.9073 60.6987 89.9015 60.7079C89.8957 60.7172 89.8915 60.7277 89.8894 60.7388C89.8872 60.7499 89.887 60.7614 89.8889 60.7726C89.8907 60.7837 89.8945 60.7944 89.9 60.8039C90.6268 62.2422 90.992 63.8806 90.9556 65.5396C90.1358 63.9375 89.1573 62.4479 88.0393 61.0999C88.0302 61.0889 88.0193 61.0802 88.0071 61.0742C87.9949 61.0682 87.9818 61.0652 87.9686 61.0652C87.9553 61.0652 87.9422 61.0682 87.9301 61.0742C87.9179 61.0802 87.9069 61.0889 87.8978 61.0999C87.8788 61.1216 87.8682 61.1511 87.8682 61.1818C87.8682 61.2125 87.8788 61.2419 87.8978 61.2637C88.7222 62.2533 89.4668 63.3253 90.1227 64.4667C89.4336 64.1734 88.703 64.0274 87.9674 64.0359C87.9564 64.0337 87.9451 64.0343 87.9343 64.0376C87.9235 64.0409 87.9135 64.0468 87.9049 64.055C87.8964 64.0632 87.8895 64.0734 87.8848 64.085C87.88 64.0965 87.8776 64.1091 87.8776 64.1218C87.8776 64.1345 87.88 64.1471 87.8848 64.1587C87.8895 64.1702 87.8964 64.1804 87.9049 64.1886C87.9135 64.1968 87.9235 64.2027 87.9343 64.206C87.9451 64.2093 87.9564 64.2099 87.9674 64.2077C88.756 64.2014 89.5377 64.3748 90.2665 64.7177C90.7164 65.5036 91.1306 66.3151 91.5077 67.1491C91.2016 66.9061 90.8528 66.742 90.4854 66.6681C90.118 66.5941 89.7409 66.6122 89.3803 66.7209C89.361 66.7271 89.3447 66.7416 89.3347 66.7614C89.3247 66.7812 89.3219 66.8046 89.3269 66.8266C89.3291 66.8379 89.3332 66.8486 89.3392 66.858C89.3451 66.8674 89.3526 66.8753 89.3613 66.8812C89.37 66.8872 89.3797 66.891 89.3897 66.8925C89.3998 66.8941 89.41 66.8932 89.4197 66.8901C89.8102 66.7748 90.2196 66.7709 90.6117 66.8788C91.0038 66.9866 91.3666 67.2029 91.6678 67.5085C92.9847 70.4669 93.7374 73.7091 93.8765 77.0223C93.8768 77.0372 93.8796 77.0519 93.8849 77.0656C93.8902 77.0792 93.8978 77.0916 93.9073 77.1019C93.9168 77.1122 93.928 77.1203 93.9402 77.1256C93.9524 77.131 93.9654 77.1336 93.9785 77.1333C94.0052 77.1319 94.0303 77.1187 94.0485 77.0965C94.0668 77.0742 94.0766 77.0448 94.076 77.0144C93.9895 74.6799 93.5897 72.3742 92.8905 70.1776Z" fill="#F5F5F5"/>
<path d="M96.2545 86.3748C97.1384 83.5101 97.7184 79.3689 97.7184 77.5534C97.7421 76.1612 97.363 74.7989 96.6396 73.6765H92.1179C91.3932 74.7982 91.014 76.161 91.0391 77.5534C91.0391 79.3689 91.6191 83.5101 92.503 86.3748H96.2545Z" fill="#E6E6E6"/>
<path d="M45.6274 69.2236H25.745V77.0408H45.6274V69.2236Z" fill="#EBEBEB"/>
<path d="M45.6274 77.0408H25.745V84.858H45.6274V77.0408Z" fill="#EBEBEB"/>
<path d="M33.3013 77.0408L35.7744 69.2236H31.9673L29.4942 77.0408H33.3013Z" fill="#F5F5F5"/>
<path d="M37.6165 69.2236H36.7813L34.3058 77.0408H35.1434L37.6165 69.2236Z" fill="#F5F5F5"/>
<path d="M30.8258 84.858L33.3013 77.0408H29.4941L27.0187 84.858H30.8258Z" fill="#F5F5F5"/>
<path d="M35.1434 77.0408H34.3058L31.8327 84.858H32.6679L35.1434 77.0408Z" fill="#F5F5F5"/>
<path d="M45.6274 70.4235V69.6333H25.745V70.4235H45.6274Z" fill="#E0E0E0"/>
<path d="M45.6274 78.1798V77.3896H25.745V78.1798H45.6274Z" fill="#E0E0E0"/>
<path d="M25.397 68.8721V85.1988H45.9754V68.8721H25.397ZM45.2794 84.4087H26.093V77.453H45.2794V84.4087ZM45.2794 76.6628H26.093V69.7072H45.2794V76.6628Z" fill="#F5F5F5"/>
<path d="M66.2035 69.2236H46.3211V77.0408H66.2035V69.2236Z" fill="#EBEBEB"/>
<path d="M66.2035 77.0408H46.3211V84.858H66.2035V77.0408Z" fill="#EBEBEB"/>
<path d="M55.9538 77.0408L58.4269 69.2236H54.6198L52.1466 77.0408H55.9538Z" fill="#F5F5F5"/>
<path d="M60.269 69.2236H59.4338L56.9583 77.0408H57.7958L60.269 69.2236Z" fill="#F5F5F5"/>
<path d="M53.4783 84.858L55.9538 77.0408H52.1466L49.6712 84.858H53.4783Z" fill="#F5F5F5"/>
<path d="M57.7958 77.0408H56.9583L54.4852 84.858H55.3227L57.7958 77.0408Z" fill="#F5F5F5"/>
<path d="M66.2035 70.4235V69.6333H46.3211V70.4235H66.2035Z" fill="#E0E0E0"/>
<path d="M66.2035 78.1798V77.3896H46.3211V78.1798H66.2035Z" fill="#E0E0E0"/>
<path d="M45.9754 68.8721V85.1988H66.5515V68.8721H45.9754ZM65.8555 84.4087H46.6691V77.453H65.8555V84.4087ZM65.8555 76.6628H46.6691V69.7072H65.8555V76.6628Z" fill="#F5F5F5"/>
<path d="M86.7796 69.2236H66.8972V77.0408H86.7796V69.2236Z" fill="#EBEBEB"/>
<path d="M86.7796 77.0408H66.8972V84.858H86.7796V77.0408Z" fill="#EBEBEB"/>
<path d="M75.3582 77.0408L77.8337 69.2236H74.0266L71.5511 77.0408H75.3582Z" fill="#F5F5F5"/>
<path d="M79.6757 69.2236H78.8382L76.3651 77.0408H77.2026L79.6757 69.2236Z" fill="#F5F5F5"/>
<path d="M72.8851 84.858L75.3582 77.0408H71.5511L69.078 84.858H72.8851Z" fill="#F5F5F5"/>
<path d="M77.2026 77.0408H76.3651L73.892 84.858H74.7272L77.2026 77.0408Z" fill="#F5F5F5"/>
<path d="M86.7796 70.4235V69.6333H66.8972V70.4235H86.7796Z" fill="#E0E0E0"/>
<path d="M86.7796 78.1798V77.3896H66.8972V78.1798H86.7796Z" fill="#E0E0E0"/>
<path d="M66.5515 68.8721V85.1988H87.1276V68.8721H66.5515ZM86.4316 84.4087H67.2452V77.453H86.4316V84.4087ZM86.4316 76.6628H67.2452V69.7072H86.4316V76.6628Z" fill="#F5F5F5"/>
<path d="M85.137 86.3747H27.3876L27.086 85.1987H85.4386L85.137 86.3747Z" fill="#E0E0E0"/>
<path d="M56.8585 73.8642C56.8585 73.9986 56.8236 74.1299 56.7581 74.2416C56.6925 74.3533 56.5994 74.4403 56.4905 74.4917C56.3815 74.5431 56.2616 74.5566 56.146 74.5304C56.0303 74.5042 55.9241 74.4395 55.8407 74.3445C55.7573 74.2495 55.7005 74.1285 55.6775 73.9967C55.6545 73.865 55.6663 73.7284 55.7114 73.6043C55.7566 73.4802 55.833 73.3742 55.931 73.2995C56.0291 73.2249 56.1444 73.1851 56.2623 73.1851C56.4202 73.1858 56.5715 73.2575 56.6832 73.3848C56.7949 73.512 56.8579 73.6843 56.8585 73.8642Z" fill="#E0E0E0"/>
<path d="M56.2623 74.353C56.5916 74.353 56.8585 74.0489 56.8585 73.6738C56.8585 73.2987 56.5916 72.9946 56.2623 72.9946C55.933 72.9946 55.6661 73.2987 55.6661 73.6738C55.6661 74.0489 55.933 74.353 56.2623 74.353Z" fill="#FAFAFA"/>
<path d="M56.2623 81.7236C56.5916 81.7236 56.8585 81.4195 56.8585 81.0444C56.8585 80.6693 56.5916 80.3652 56.2623 80.3652C55.933 80.3652 55.6661 80.6693 55.6661 81.0444C55.6661 81.4195 55.933 81.7236 56.2623 81.7236Z" fill="#E0E0E0"/>
<path d="M56.8585 80.8674C56.8581 81.0016 56.8227 81.1326 56.7569 81.244C56.6911 81.3553 56.5979 81.442 56.4889 81.493C56.3799 81.544 56.2601 81.557 56.1446 81.5305C56.0291 81.504 55.923 81.4391 55.8399 81.344C55.7567 81.249 55.7002 81.1279 55.6774 80.9963C55.6545 80.8646 55.6665 80.7282 55.7117 80.6042C55.7569 80.4803 55.8333 80.3743 55.9313 80.2998C56.0293 80.2253 56.1445 80.1855 56.2623 80.1855C56.3408 80.1855 56.4185 80.2032 56.491 80.2375C56.5635 80.2718 56.6293 80.3221 56.6847 80.3854C56.7401 80.4488 56.784 80.5239 56.8138 80.6066C56.8436 80.6894 56.8588 80.778 56.8585 80.8674Z" fill="#FAFAFA"/>
<path d="M36.2825 73.8642C36.2825 73.9986 36.2475 74.1299 36.182 74.2416C36.1165 74.3533 36.0234 74.4403 35.9144 74.4917C35.8055 74.5431 35.6856 74.5566 35.5699 74.5304C35.4543 74.5042 35.348 74.4395 35.2646 74.3445C35.1812 74.2495 35.1245 74.1285 35.1015 73.9967C35.0784 73.865 35.0903 73.7284 35.1354 73.6043C35.1805 73.4802 35.2569 73.3742 35.355 73.2995C35.453 73.2249 35.5683 73.1851 35.6862 73.1851C35.8442 73.1858 35.9955 73.2575 36.1072 73.3848C36.2189 73.512 36.2819 73.6843 36.2825 73.8642Z" fill="#E0E0E0"/>
<path d="M35.6862 74.353C36.0155 74.353 36.2825 74.0489 36.2825 73.6738C36.2825 73.2987 36.0155 72.9946 35.6862 72.9946C35.3569 72.9946 35.09 73.2987 35.09 73.6738C35.09 74.0489 35.3569 74.353 35.6862 74.353Z" fill="#FAFAFA"/>
<path d="M35.6862 81.7236C36.0155 81.7236 36.2825 81.4195 36.2825 81.0444C36.2825 80.6693 36.0155 80.3652 35.6862 80.3652C35.3569 80.3652 35.09 80.6693 35.09 81.0444C35.09 81.4195 35.3569 81.7236 35.6862 81.7236Z" fill="#E0E0E0"/>
<path d="M36.2825 80.8674C36.282 81.0016 36.2467 81.1326 36.1809 81.244C36.1151 81.3553 36.0218 81.442 35.9128 81.493C35.8038 81.544 35.684 81.557 35.5685 81.5305C35.453 81.504 35.347 81.4391 35.2638 81.344C35.1807 81.249 35.1241 81.1279 35.1013 80.9963C35.0785 80.8646 35.0904 80.7282 35.1356 80.6042C35.1808 80.4803 35.2572 80.3743 35.3552 80.2998C35.4532 80.2253 35.5684 80.1855 35.6862 80.1855C35.7647 80.1855 35.8425 80.2032 35.915 80.2375C35.9874 80.2718 36.0533 80.3221 36.1087 80.3854C36.1641 80.4488 36.2079 80.5239 36.2378 80.6066C36.2676 80.6894 36.2828 80.778 36.2825 80.8674Z" fill="#FAFAFA"/>
<path d="M77.7989 73.8642C77.7993 73.9993 77.7646 74.1315 77.699 74.244C77.6334 74.3566 77.5399 74.4444 77.4305 74.4963C77.321 74.5482 77.2004 74.562 77.0841 74.5357C76.9678 74.5095 76.8609 74.4445 76.7771 74.349C76.6932 74.2535 76.6362 74.1318 76.6131 73.9993C76.5901 73.8667 76.6022 73.7294 76.6478 73.6047C76.6934 73.48 76.7704 73.3736 76.8692 73.2989C76.968 73.2242 77.0841 73.1845 77.2026 73.1851C77.3606 73.1858 77.5119 73.2575 77.6236 73.3848C77.7353 73.512 77.7983 73.6843 77.7989 73.8642Z" fill="#E0E0E0"/>
<path d="M77.2026 74.353C77.5319 74.353 77.7989 74.0489 77.7989 73.6738C77.7989 73.2987 77.5319 72.9946 77.2026 72.9946C76.8733 72.9946 76.6064 73.2987 76.6064 73.6738C76.6064 74.0489 76.8733 74.353 77.2026 74.353Z" fill="#FAFAFA"/>
<path d="M77.2026 81.7236C77.5319 81.7236 77.7989 81.4195 77.7989 81.0444C77.7989 80.6693 77.5319 80.3652 77.2026 80.3652C76.8733 80.3652 76.6064 80.6693 76.6064 81.0444C76.6064 81.4195 76.8733 81.7236 77.2026 81.7236Z" fill="#E0E0E0"/>
<path d="M77.7989 80.8674C77.7989 81.0023 77.7637 81.1343 77.6978 81.2464C77.632 81.3586 77.5383 81.446 77.4288 81.4975C77.3193 81.5491 77.1989 81.5624 77.0827 81.5359C76.9665 81.5094 76.8599 81.4442 76.7763 81.3486C76.6926 81.2529 76.6358 81.1312 76.613 80.9988C76.5901 80.8663 76.6023 80.7292 76.648 80.6046C76.6937 80.4801 76.7707 80.3738 76.8695 80.2992C76.9682 80.2246 77.0842 80.185 77.2026 80.1856C77.2811 80.1856 77.3589 80.2032 77.4313 80.2375C77.5038 80.2718 77.5697 80.3221 77.6251 80.3854C77.6805 80.4488 77.7243 80.5239 77.7542 80.6066C77.784 80.6894 77.7992 80.778 77.7989 80.8674Z" fill="#FAFAFA"/>
<path d="M56.8817 97.4399C81.7249 97.4399 101.864 96.1006 101.864 94.4484C101.864 92.7962 81.7249 91.4568 56.8817 91.4568C32.0386 91.4568 11.8993 92.7962 11.8993 94.4484C11.8993 96.1006 32.0386 97.4399 56.8817 97.4399Z" fill="#F5F5F5"/>
<path d="M96.1524 6.95557H18.9915V57.9761H96.1524V6.95557Z" fill="#407BFF"/>
<path opacity="0.5" d="M96.1524 6.95557H18.9915V57.9761H96.1524V6.95557Z" fill="white"/>
<path d="M18.9915 6.95557V11.0703H31.9V9.48466C31.9 9.10758 32.0315 8.74594 32.2656 8.4793C32.4997 8.21266 32.8171 8.06287 33.1482 8.06287H41.7322C41.896 8.06287 42.0582 8.09966 42.2095 8.17115C42.3608 8.24263 42.4982 8.3474 42.6139 8.47946C42.7296 8.61152 42.8214 8.76828 42.8838 8.94076C42.9463 9.11325 42.9783 9.29807 42.978 9.48466V11.0703H96.1524V6.95557H18.9915Z" fill="#407BFF"/>
<path opacity="0.7" d="M22.2117 9.01182C22.2121 9.19916 22.1638 9.38244 22.0727 9.53843C21.9816 9.69442 21.8519 9.81609 21.7 9.88803C21.5482 9.95996 21.381 9.97892 21.2197 9.9425C21.0583 9.90608 20.9101 9.81592 20.7938 9.68345C20.6775 9.55097 20.5984 9.38215 20.5664 9.19838C20.5344 9.01461 20.5511 8.82417 20.6142 8.65118C20.6774 8.4782 20.7842 8.33047 20.9211 8.22671C21.0581 8.12295 21.219 8.06784 21.3834 8.06836C21.6031 8.06836 21.8138 8.16776 21.9691 8.34469C22.1244 8.52163 22.2117 8.7616 22.2117 9.01182Z" fill="white"/>
<path opacity="0.7" d="M24.6987 9.01182C24.6992 9.19916 24.6508 9.38244 24.5597 9.53843C24.4686 9.69442 24.3389 9.81609 24.1871 9.88803C24.0352 9.95996 23.868 9.97892 23.7067 9.9425C23.5454 9.90608 23.3972 9.81592 23.2809 9.68345C23.1646 9.55097 23.0854 9.38215 23.0535 9.19838C23.0215 9.01461 23.0381 8.82417 23.1013 8.65118C23.1644 8.4782 23.2712 8.33047 23.4082 8.22671C23.5451 8.12295 23.706 8.06784 23.8705 8.06836C24.0901 8.06836 24.3008 8.16776 24.4561 8.34469C24.6115 8.52163 24.6987 8.7616 24.6987 9.01182Z" fill="white"/>
<path opacity="0.7" d="M27.1858 9.01182C27.1862 9.19916 27.1378 9.38244 27.0468 9.53843C26.9557 9.69442 26.826 9.81609 26.6741 9.88803C26.5223 9.95996 26.3551 9.97892 26.1937 9.9425C26.0324 9.90608 25.8842 9.81592 25.7679 9.68345C25.6516 9.55097 25.5725 9.38215 25.5405 9.19838C25.5085 9.01461 25.5252 8.82417 25.5883 8.65118C25.6515 8.4782 25.7583 8.33047 25.8952 8.22671C26.0322 8.12295 26.1931 8.06784 26.3575 8.06836C26.5772 8.06836 26.7879 8.16776 26.9432 8.34469C27.0985 8.52163 27.1858 8.7616 27.1858 9.01182Z" fill="white"/>
<path opacity="0.3" d="M93.3243 18.9377H42.985V54.7758H93.3243V18.9377Z" fill="white"/>
<path opacity="0.3" d="M36.4936 18.9377H21.6943V35.7957H36.4936V18.9377Z" fill="white"/>
<path opacity="0.4" d="M36.4936 18.9377H21.6943V35.7957H36.4936V18.9377Z" fill="white"/>
<path d="M33.9138 40.262H25.1535V40.9729H33.9138V40.262Z" fill="#263238"/>
<path d="M93.0436 13.449H78.2165V16.0362H93.0436V13.449Z" fill="#407BFF"/>
<path opacity="0.9" d="M93.0436 13.449H78.2165V16.0362H93.0436V13.449Z" fill="white"/>
<path d="M93.3243 13.449H93.0413V16.0362H93.3243V13.449Z" fill="#407BFF"/>
<path d="M58.0951 13.449H57.8121V16.0362H58.0951V13.449Z" fill="#407BFF"/>
<path d="M57.8121 13.449H42.985V16.0362H57.8121V13.449Z" fill="#407BFF"/>
<path opacity="0.9" d="M57.8121 13.449H42.985V16.0362H57.8121V13.449Z" fill="white"/>
<path opacity="0.4" d="M41.6695 54.5143C41.4849 54.5143 41.3079 54.4308 41.1774 54.2821C41.0469 54.1334 40.9735 53.9317 40.9735 53.7215V43.6527C40.9735 43.4424 41.0469 43.2408 41.1774 43.0921C41.3079 42.9434 41.4849 42.8599 41.6695 42.8599C41.8541 42.8599 42.0312 42.9434 42.1617 43.0921C42.2922 43.2408 42.3655 43.4424 42.3655 43.6527V53.7215C42.3655 53.9317 42.2922 54.1334 42.1617 54.2821C42.0312 54.4308 41.8541 54.5143 41.6695 54.5143Z" fill="white"/>
<path opacity="0.4" d="M24.0259 40.6163C24.0259 40.8657 23.961 41.1096 23.8393 41.3169C23.7176 41.5243 23.5446 41.6858 23.3422 41.7812C23.1399 41.8765 22.9173 41.9013 22.7025 41.8525C22.4878 41.8036 22.2906 41.6833 22.1359 41.5067C21.9813 41.3302 21.8761 41.1053 21.8336 40.8606C21.7912 40.6159 21.8134 40.3624 21.8975 40.1321C21.9817 39.9018 22.1239 39.7051 22.3062 39.5669C22.4884 39.4287 22.7026 39.3552 22.9216 39.3557C23.0668 39.3557 23.2106 39.3883 23.3447 39.4517C23.4789 39.5151 23.6007 39.608 23.7033 39.7251C23.8059 39.8422 23.8872 39.9812 23.9425 40.1341C23.9979 40.287 24.0262 40.4509 24.0259 40.6163Z" fill="white"/>
<path d="M36.373 44.2234H25.1535V44.9343H36.373V44.2234Z" fill="#263238"/>
<path opacity="0.4" d="M24.0259 44.5802C24.0259 44.8296 23.961 45.0734 23.8393 45.2808C23.7176 45.4881 23.5446 45.6497 23.3422 45.745C23.1399 45.8404 22.9173 45.8652 22.7025 45.8163C22.4878 45.7675 22.2906 45.6471 22.1359 45.4706C21.9813 45.294 21.8761 45.0692 21.8336 44.8245C21.7912 44.5798 21.8134 44.3262 21.8975 44.0959C21.9817 43.8656 22.1239 43.6689 22.3062 43.5307C22.4884 43.3925 22.7026 43.3191 22.9216 43.3196C23.2147 43.3203 23.4956 43.4534 23.7026 43.6897C23.9096 43.9261 24.0259 44.2463 24.0259 44.5802Z" fill="white"/>
<path d="M34.807 48.1875H25.1535V48.8984H34.807V48.1875Z" fill="#263238"/>
<path opacity="0.4" d="M24.0259 48.5443C24.0259 48.7937 23.961 49.0375 23.8393 49.2449C23.7176 49.4523 23.5446 49.6138 23.3422 49.7092C23.1399 49.8045 22.9173 49.8293 22.7025 49.7804C22.4878 49.7316 22.2906 49.6113 22.1359 49.4347C21.9813 49.2581 21.8761 49.0333 21.8336 48.7886C21.7912 48.5439 21.8134 48.2903 21.8975 48.06C21.9817 47.8297 22.1239 47.6331 22.3062 47.4949C22.4884 47.3567 22.7026 47.2832 22.9216 47.2837C23.2147 47.2844 23.4956 47.4175 23.7026 47.6538C23.9096 47.8902 24.0259 48.2104 24.0259 48.5443Z" fill="white"/>
<path d="M33.9138 52.1514H25.1535V52.8623H33.9138V52.1514Z" fill="#263238"/>
<path opacity="0.4" d="M24.0259 52.5055C24.0264 52.755 23.9618 52.9991 23.8404 53.2068C23.719 53.4145 23.5462 53.5765 23.3439 53.6723C23.1416 53.768 22.9188 53.7932 22.704 53.7446C22.4891 53.6961 22.2917 53.576 22.1368 53.3995C21.9819 53.2231 21.8764 52.9982 21.8338 52.7534C21.7912 52.5086 21.8133 52.255 21.8973 52.0245C21.9814 51.7941 22.1236 51.5972 22.3059 51.4589C22.4883 51.3206 22.7025 51.247 22.9216 51.2476C23.2145 51.2476 23.4954 51.3801 23.7025 51.616C23.9096 51.8519 24.0259 52.1719 24.0259 52.5055Z" fill="white"/>
<path d="M72.261 59.6279H80.1258C80.2952 59.6279 80.3184 59.3267 80.149 59.3267H72.2842C72.1149 59.3267 72.0917 59.6279 72.261 59.6279Z" fill="#407BFF"/>
<path d="M81.3926 59.6279H82.3855C82.5549 59.6279 82.5781 59.3267 82.4087 59.3267H81.4158C81.2441 59.3267 81.2209 59.6279 81.3926 59.6279Z" fill="#407BFF"/>
<path d="M42.6602 5.73999H34.8C34.6306 5.73999 34.6051 6.04126 34.7768 6.04126H42.6416C42.811 6.04126 42.8342 5.73999 42.6648 5.73999H42.6602Z" fill="#407BFF"/>
<path d="M33.5286 5.73999H32.5357C32.3663 5.73999 32.3431 6.04126 32.5125 6.04126H33.5054C33.6771 6.04126 33.7003 5.73999 33.5286 5.73999Z" fill="#407BFF"/>
<path d="M92.2177 25.2988H76.2723V42.1726H92.2177V25.2988Z" fill="#407BFF"/>
<path opacity="0.9" d="M92.2177 25.2988H76.2723V42.1726H92.2177V25.2988Z" fill="white"/>
<path d="M92.2177 42.1726H92.5425V25.2988H92.2177V42.1726Z" fill="#407BFF"/>
<path d="M92.2223 37.8015H76.2677V42.1726H92.2223V37.8015Z" fill="#407BFF"/>
<path d="M89.8049 26.8684H78.6851V28.0444H89.8049V26.8684Z" fill="#263238"/>
<path d="M89.8049 31.0625H78.6851V32.2385H89.8049V31.0625Z" fill="#263238"/>
<path d="M89.8049 35.2566H78.6851V36.4326H89.8049V35.2566Z" fill="#263238"/>
<path d="M91.2874 39.2949H77.2026V40.7854H91.2874V39.2949Z" fill="white"/>
<path d="M75.9504 13.1052H60.005V33.9484H75.9504V13.1052Z" fill="#407BFF"/>
<path opacity="0.9" d="M75.9504 13.1052H60.005V33.9484H75.9504V13.1052Z" fill="white"/>
<path d="M75.9475 33.9509H76.2723V13.1077H75.9475V33.9509Z" fill="#407BFF"/>
<path d="M75.3907 13.7422H60.5636V16.3294H75.3907V13.7422Z" fill="#407BFF"/>
<path d="M75.9498 25.2988H59.9952V29.6699H75.9498V25.2988Z" fill="#407BFF"/>
<path d="M73.537 18.6443H62.4173V19.8203H73.537V18.6443Z" fill="#263238"/>
<path d="M73.537 22.8384H62.4173V24.0144H73.537V22.8384Z" fill="#263238"/>
<path d="M75.0195 26.8765H60.9348V28.367H75.0195V26.8765Z" fill="white"/>
<path d="M73.537 31.229H62.4173V32.405H73.537V31.229Z" fill="#263238"/>
<path d="M41.2612 38.7026C41.2612 38.7026 38.5445 45.0663 39.679 45.5896C40.8135 46.1128 44.6368 46.4062 44.6368 46.4062L46.3049 48.2244L47.27 47.5082L47.0264 45.6583L44.834 45.1298L41.9062 44.0938C41.8453 44.0705 41.7893 44.0331 41.7417 43.9839C41.6942 43.9347 41.6561 43.8748 41.6299 43.808C41.6038 43.7412 41.5901 43.6689 41.5897 43.5957C41.5893 43.5225 41.6023 43.4501 41.6278 43.3829L43.043 39.8469L41.2612 38.7026Z" fill="#E4897B"/>
<path d="M42.0732 36.3955C42.0559 36.3363 42.0253 36.2834 41.9842 36.242C41.9432 36.2007 41.8934 36.1724 41.8397 36.1601C41.786 36.1477 41.7304 36.1518 41.6785 36.1718C41.6266 36.1918 41.5803 36.227 41.5443 36.274C41.2612 36.6334 40.8483 37.3575 40.3611 38.8163L39.8669 40.32L42.3864 42.2968L43.3353 40.6503L42.0732 36.3955Z" fill="white"/>
<path opacity="0.2" d="M41.7995 38.1609L42.0755 37.7566L42.6161 38.2217L43.3353 40.6504L42.3864 42.2968L41.9039 41.9189C42.0523 40.3676 41.7995 38.1609 41.7995 38.1609Z" fill="black"/>
<path d="M42.7507 42.0272L39.8669 39.7148L39.6581 40.4257L42.3818 42.5796L42.7507 42.0272Z" fill="#407BFF"/>
<path opacity="0.5" d="M42.7507 42.0272L39.8669 39.7148L39.6581 40.4257L42.3818 42.5796L42.7507 42.0272Z" fill="white"/>
<path d="M42.5836 86.042L41.2543 91.19L39.904 91.1002L40.1894 85.5134L42.5836 86.042Z" fill="#E4897B"/>
<path d="M49.5761 47.9338C49.5761 47.9338 51.2163 51.6891 49.6387 58.5946C48.0611 65.5 41.7507 89.5594 41.7507 89.5594L39.9736 89.3163C39.9736 89.3163 39.8622 80.6825 42.3609 73.7242C42.3609 73.7242 43.5603 61.8795 42.9757 59.094C42.5674 57.149 42.3191 55.5211 43.0244 52.5744C43.3001 51.3134 43.6808 50.0851 44.1612 48.9063C44.6252 47.8492 44.4883 47.4502 44.4883 47.4502L49.5761 47.9338Z" fill="#407BFF"/>
<path opacity="0.5" d="M49.5761 47.9338C49.5761 47.9338 51.2163 51.6891 49.6387 58.5946C48.0611 65.5 41.7507 89.5594 41.7507 89.5594L39.9736 89.3163C39.9736 89.3163 39.8622 80.6825 42.3609 73.7242C42.3609 73.7242 43.5603 61.8795 42.9757 59.094C42.5674 57.149 42.3191 55.5211 43.0244 52.5744C43.3001 51.3134 43.6808 50.0851 44.1612 48.9063C44.6252 47.8492 44.4883 47.4502 44.4883 47.4502L49.5761 47.9338Z" fill="black"/>
<path opacity="0.4" d="M47.4765 67.3898C45.1983 60.1752 45.8247 54.9399 45.8247 54.9399L47.2515 54.7285L48.3651 56.9854L49.1446 60.6852C48.7015 62.5219 48.1215 64.8502 47.4765 67.3898Z" fill="black"/>
<path d="M41.5651 91.1954C41.5567 91.1922 41.5494 91.1862 41.544 91.1782C41.5386 91.1702 41.5355 91.1605 41.535 91.1504C41.5339 91.1404 41.5358 91.1302 41.5405 91.1216C41.5451 91.113 41.5522 91.1064 41.5605 91.1029C41.5907 91.0897 42.2565 90.7699 42.5395 90.9047C42.5663 90.9166 42.5907 90.9343 42.6114 90.957C42.6321 90.9797 42.6487 91.0068 42.6602 91.0368C42.6767 91.0694 42.6838 91.1071 42.6804 91.1446C42.6771 91.182 42.6635 91.2174 42.6416 91.2456C42.477 91.3466 42.2856 91.3758 42.1034 91.3275C41.921 91.301 41.7409 91.2568 41.5651 91.1954ZM41.709 91.1478C42.0338 91.2403 42.4839 91.3011 42.579 91.1795C42.5929 91.1636 42.6068 91.1372 42.579 91.0738C42.573 91.0548 42.5632 91.0377 42.5503 91.0239C42.5374 91.0101 42.5218 91.0001 42.5047 90.9945C42.4791 90.9841 42.4527 90.9762 42.4259 90.9707C42.1794 90.9791 41.9364 91.0392 41.709 91.1478Z" fill="#407BFF"/>
<path d="M41.5419 91.1874C41.5363 91.1819 41.5321 91.1749 41.5297 91.167C41.5272 91.1592 41.5267 91.1507 41.528 91.1425C41.528 91.1187 41.6394 90.5769 41.8876 90.3972C41.9566 90.3477 42.0395 90.3297 42.1196 90.347C42.2333 90.3761 42.2635 90.4474 42.2611 90.5029C42.2751 90.7381 41.7971 91.116 41.5651 91.1953H41.5489C41.5463 91.193 41.5439 91.1904 41.5419 91.1874ZM42.0941 90.4342C42.0406 90.4267 41.9864 90.4408 41.941 90.4738C41.7894 90.63 41.684 90.8359 41.6394 91.0632C41.8714 90.9442 42.1915 90.6403 42.1962 90.5003C42.1962 90.4871 42.1962 90.4527 42.1173 90.4342H42.0941Z" fill="#407BFF"/>
<path d="M41.412 90.886L39.4725 90.6218C39.4369 90.6162 39.4006 90.6248 39.3698 90.6459C39.339 90.6671 39.3155 90.6996 39.3031 90.738L38.7626 92.4954C38.7508 92.5322 38.7456 92.5713 38.7471 92.6104C38.7487 92.6495 38.7571 92.6878 38.7717 92.7232C38.7864 92.7586 38.8071 92.7903 38.8326 92.8166C38.8581 92.8428 38.8879 92.863 38.9203 92.876C38.9374 92.8841 38.9554 92.8894 38.9737 92.8919C39.6697 92.9738 40.3007 93.0161 41.1731 93.1376C42.2008 93.2803 41.9247 93.3834 43.1311 93.571C43.8596 93.682 44.0939 92.7571 43.79 92.6672C42.398 92.2708 42.3029 91.7634 41.818 91.1133C41.7123 90.9826 41.5675 90.9015 41.412 90.886Z" fill="#263238"/>
<path d="M42.1451 89.1842L39.6836 88.8328L39.7207 89.6679L41.8923 89.9744L42.1451 89.1842Z" fill="#263238"/>
<path opacity="0.4" d="M42.1451 89.1842L39.6836 88.8328L39.7207 89.6679L41.8923 89.9744L42.1451 89.1842Z" fill="black"/>
<path d="M49.3905 86.3906L48.8105 91.5202H47.4463L47.096 86.4858L49.3905 86.3906Z" fill="#E4897B"/>
<path d="M51.736 47.3579C51.7882 47.8221 51.8992 48.2752 52.0655 48.7031C52.6199 50.3072 53.2255 55.3522 53.0909 57.905C52.7452 65.0404 49.0402 89.8133 49.0402 89.8133H47.2584C47.2584 89.8133 46.0311 81.3804 47.4904 73.957C47.4904 73.957 48.0031 63.4971 47.2399 60.7698C46.7063 58.8723 45.2029 57.0356 45.588 53.0239C45.9731 49.0123 46.9081 47.6407 46.9081 47.6407L51.736 47.3579Z" fill="#407BFF"/>
<path opacity="0.5" d="M51.736 47.3579C51.7882 47.8221 51.8992 48.2752 52.0655 48.7031C52.6199 50.3072 53.2255 55.3522 53.0909 57.905C52.7452 65.0404 49.0402 89.8133 49.0402 89.8133H47.2584C47.2584 89.8133 46.0311 81.3804 47.4904 73.957C47.4904 73.957 48.0031 63.4971 47.2399 60.7698C46.7063 58.8723 45.2029 57.0356 45.588 53.0239C45.9731 49.0123 46.9081 47.6407 46.9081 47.6407L51.736 47.3579Z" fill="black"/>
<path d="M44.2146 49.4586L44.5556 48.6658L44.9129 48.7213L44.7064 49.5458L44.2146 49.4586Z" fill="#407BFF"/>
<path d="M49.3696 48.8507C50.3371 48.7846 51.1235 48.671 51.627 48.5864L51.8775 49.403C51.0468 49.555 50.2097 49.6582 49.3696 49.7122V48.8507Z" fill="#407BFF"/>
<path d="M45.4558 48.7822C46.5707 48.9032 47.6915 48.9376 48.8105 48.8853V49.7389C48.4857 49.7389 48.147 49.7627 47.7943 49.7627C46.9513 49.7632 46.1087 49.7138 45.2702 49.6147L45.4558 48.7822Z" fill="#407BFF"/>
<g opacity="0.5">
<path opacity="0.5" d="M44.2146 49.4571L44.5556 48.6643L44.9129 48.7198L44.7064 49.5443L44.2146 49.4571Z" fill="white"/>
<path opacity="0.5" d="M49.3696 48.8507C50.337 48.7846 51.1235 48.671 51.627 48.5864L51.8775 49.403C51.0468 49.555 50.2097 49.6582 49.3696 49.7122V48.8507Z" fill="white"/>
<path opacity="0.5" d="M45.2702 49.6147L45.4558 48.7822C46.5707 48.9032 47.6915 48.9376 48.8105 48.8853V49.7389C48.4857 49.7389 48.147 49.7627 47.7943 49.7627" fill="white"/>
</g>
<path d="M49.416 91.4728C49.4071 91.4716 49.3988 91.4671 49.3925 91.4599C49.3862 91.4527 49.3822 91.4433 49.3812 91.4331C49.3794 91.4236 49.3802 91.4137 49.3836 91.4047C49.3869 91.3957 49.3925 91.3881 49.3998 91.3829C49.4276 91.3644 50.0447 90.9442 50.3463 91.0314C50.4017 91.0482 50.4496 91.0878 50.4809 91.1424C50.5002 91.1733 50.5105 91.2102 50.5105 91.2481C50.5105 91.286 50.5002 91.323 50.4809 91.3538C50.3299 91.4806 50.1434 91.5399 49.9566 91.5203C49.7755 91.5225 49.5946 91.5066 49.416 91.4728ZM49.5529 91.4067C49.887 91.4463 50.3371 91.4331 50.4183 91.2983C50.4183 91.2825 50.4415 91.2534 50.4183 91.1926C50.4093 91.1749 50.3969 91.1598 50.382 91.1483C50.3671 91.1369 50.3502 91.1294 50.3324 91.1266C50.3055 91.1225 50.2782 91.1225 50.2512 91.1266C50.0034 91.1684 49.7649 91.2635 49.5483 91.4067H49.5529Z" fill="#407BFF"/>
<path d="M49.3882 91.4699C49.3815 91.4661 49.3761 91.4599 49.3728 91.4523C49.3694 91.4446 49.3683 91.436 49.3696 91.4276C49.3696 91.4012 49.4091 90.8515 49.6341 90.6348C49.6983 90.5719 49.7817 90.5406 49.8661 90.5476C49.9844 90.5476 50.0215 90.6242 50.0262 90.6797C50.0679 90.9096 49.6457 91.3589 49.4323 91.4726C49.4297 91.4738 49.4269 91.4744 49.4241 91.4744C49.4214 91.4744 49.4186 91.4738 49.416 91.4726C49.4067 91.4749 49.397 91.474 49.3882 91.4699ZM49.8522 90.6374C49.7982 90.6368 49.7459 90.6594 49.706 90.7009C49.5736 90.8782 49.4925 91.0979 49.474 91.3298C49.6921 91.1766 49.9705 90.8251 49.9566 90.6877C49.9566 90.6744 49.9566 90.6401 49.8707 90.6348L49.8522 90.6374Z" fill="#407BFF"/>
<path d="M49.2235 91.19L47.2677 91.2322C47.2319 91.2322 47.1972 91.2464 47.1696 91.2725C47.1421 91.2986 47.1234 91.3348 47.1169 91.3749L46.7921 93.1958C46.785 93.234 46.7846 93.2734 46.7909 93.3118C46.7972 93.3501 46.8101 93.3867 46.8288 93.4194C46.8476 93.452 46.8718 93.4802 46.9002 93.5021C46.9285 93.5241 46.9604 93.5394 46.9939 93.5473H47.0496C47.7456 93.5182 48.3813 93.4601 49.2583 93.4442C50.293 93.4231 50.0331 93.5684 51.2511 93.5631C51.9843 93.5631 52.1026 92.6065 51.7917 92.5668C50.3649 92.3924 50.2095 91.9061 49.6503 91.3353C49.5278 91.2304 49.3764 91.1789 49.2235 91.19Z" fill="#263238"/>
<path d="M47.154 27.4262C47.1123 27.2649 47.154 27.1064 47.2491 27.0773C47.3443 27.0482 47.451 27.1539 47.4927 27.3178C47.5345 27.4816 47.4927 27.6376 47.3976 27.6666C47.3025 27.6957 47.1935 27.59 47.154 27.4262Z" fill="#263238"/>
<path d="M47.1378 27.6748L48.2328 28.4676C48.1499 28.6129 48.0383 28.7342 47.907 28.8218C47.7757 28.9094 47.6283 28.961 47.4765 28.9724L47.1378 27.6748Z" fill="#DE5753"/>
<path d="M46.806 27.1251C46.8196 27.12 46.8319 27.1114 46.842 27.0999C46.852 27.0885 46.8596 27.0744 46.864 27.059C46.8936 26.9388 46.9477 26.8283 47.0219 26.7365C47.0961 26.6447 47.1882 26.5741 47.2909 26.5304C47.3017 26.5268 47.3118 26.5208 47.3206 26.5127C47.3293 26.5046 47.3366 26.4946 47.342 26.4834C47.3474 26.4721 47.3508 26.4597 47.352 26.4469C47.3532 26.4341 47.3521 26.4212 47.3489 26.4089C47.3429 26.3834 47.3283 26.3616 47.3084 26.3483C47.2884 26.3349 47.2646 26.3311 47.2422 26.3375C47.1118 26.3905 46.9944 26.478 46.8996 26.5929C46.8048 26.7078 46.7353 26.8467 46.697 26.9982C46.6895 27.0224 46.6906 27.049 46.7002 27.0722C46.7097 27.0954 46.7269 27.1135 46.748 27.1224C46.757 27.1276 46.7668 27.1305 46.7768 27.131C46.7868 27.1314 46.7968 27.1294 46.806 27.1251Z" fill="#263238"/>
<path d="M42.2519 29.2022C42.985 31.1763 43.2587 32.0299 44.4744 32.7065C46.1703 33.2112 48.2769 32.2651 48.0727 30.0769C47.8918 28.1108 46.7248 25.2196 44.7366 25.1033C44.2988 25.0773 43.8625 25.1794 43.4692 25.3998C43.0759 25.6203 42.7387 25.9517 42.4896 26.3625C42.2405 26.7734 42.0879 27.2501 42.0463 27.7471C42.0047 28.2442 42.0754 28.7451 42.2519 29.2022Z" fill="#E4897B"/>
<path opacity="0.2" d="M46.291 31.7788C46.291 31.7788 47.5507 32.0695 48.0495 30.8169C47.8802 31.8238 47.1447 32.4633 46.2608 32.717L45.9569 32.4739L46.1216 31.9638L46.291 31.7788Z" fill="black"/>
<path d="M43.9988 35.0557C43.9988 35.0557 45.0892 34.4479 44.3027 32.08C44.3027 32.08 45.1727 31.0969 46.0775 31.5144C46.9823 31.932 46.2214 34.1122 47.2863 34.4479C47.2863 34.4479 46.7318 35.3226 43.9988 35.0557Z" fill="#E4897B"/>
<path d="M46.1286 28.6948C45.8491 28.386 45.5966 28.0471 45.3746 27.6827C45.0057 27.0775 45.8664 26.3745 45.7203 25.254C45.5741 24.1335 44.5603 24.8153 44.5603 24.8153C44.5603 24.8153 42.1011 24.4982 41.7763 27.4078C41.4582 27.97 41.2911 28.6258 41.2955 29.2946C41.2999 29.9634 41.4756 30.6162 41.801 31.1729C42.1264 31.7296 42.5874 32.166 43.1274 32.4285C43.6674 32.6911 44.263 32.7684 44.841 32.651L45.0034 32.6087C45.3239 32.49 45.6033 32.259 45.8016 31.9486C46 31.6382 46.1071 31.2643 46.1077 30.8804L46.1286 28.6948Z" fill="#263238"/>
<path d="M44.544 32.6907C44.544 32.6907 43.8991 32.9364 44.1496 33.2324C44.4002 33.5284 44.544 32.6907 44.544 32.6907Z" fill="#263238"/>
<path d="M42.4189 28.071C42.3795 27.4077 42.2287 26.8791 41.6463 26.9241C41.064 26.969 41.0292 27.516 41.0687 28.1793C41.1081 28.8427 41.2125 29.3739 41.7948 29.3263C42.3771 29.2787 42.456 28.7343 42.4189 28.071Z" fill="#407BFF"/>
<path d="M45.6089 28.5676C45.7857 28.648 45.9467 28.7678 46.0825 28.9197C46.2183 29.0717 46.3263 29.253 46.4 29.4529C46.5949 29.9814 46.1889 30.3329 45.704 30.2457C45.2725 30.1691 44.6554 29.7938 44.6623 29.223C44.664 29.0969 44.6937 28.9734 44.7487 28.864C44.8037 28.7546 44.8821 28.6629 44.9767 28.5974C45.0712 28.532 45.1788 28.4949 45.2894 28.4897C45.4 28.4844 45.5099 28.5112 45.6089 28.5676Z" fill="#E4897B"/>
<path d="M39.5096 28.3035C39.5393 28.7746 39.7319 29.2131 40.045 29.5227C40.3582 29.8324 40.7663 29.9879 41.18 29.9552C42.0431 29.8865 42.0941 29.0831 42.0338 28.1053C41.9735 27.1275 41.8227 26.3373 40.9619 26.406C40.5488 26.4392 40.164 26.6575 39.8918 27.0132C39.6196 27.3688 39.4822 27.8327 39.5096 28.3035Z" fill="#263238"/>
<path d="M45.4372 24.403C45.2748 24.6672 45.1124 25.0504 45.2887 25.3174C45.3885 25.4706 45.5695 25.5235 45.6901 25.6583C45.8106 25.8214 45.8822 26.0242 45.8943 26.237C46.0059 26.9978 46.0633 27.7675 46.0659 28.5388C46.5299 27.6245 47.0264 26.6572 47.045 25.5975C47.0588 25.2809 47.0021 24.9654 46.8803 24.6805C46.8171 24.5395 46.7263 24.417 46.6149 24.3226C46.5034 24.2282 46.3743 24.1643 46.2376 24.1361C45.9639 24.0938 45.4372 24.403 45.4372 24.403Z" fill="#263238"/>
<path d="M47.9799 34.5723C47.9799 34.5723 48.0867 33.0606 45.5161 33.6711C42.9455 34.2816 44.6716 35.122 44.6716 35.122L47.9799 34.5723Z" fill="#407BFF"/>
<path opacity="0.5" d="M47.9799 34.5723C47.9799 34.5723 48.0867 33.0606 45.5161 33.6711C42.9455 34.2816 44.6716 35.122 44.6716 35.122L47.9799 34.5723Z" fill="white"/>
<path d="M51.6919 47.8996C48.8151 48.5365 45.5161 48.2748 44.3074 48.1454C44.0336 48.1136 44.5394 44.4455 41.6347 37.7991C41.491 37.4943 41.4423 37.143 41.4967 36.8026C41.551 36.4622 41.7052 36.1529 41.934 35.9254C43.9107 34.0623 47.502 34.1336 49.1492 34.2842C49.4367 34.3072 49.7157 34.4055 49.9644 34.5715C50.2131 34.7374 50.4248 34.9665 50.583 35.2409C51.1564 36.3474 51.5428 37.5665 51.7221 38.835C51.9161 40.0416 52.027 41.2636 52.0539 42.4899C52.1304 45.3916 51.8219 47.8705 51.6919 47.8996Z" fill="white"/>
<path opacity="0.2" d="M52.0539 42.49C51.1259 42.2891 49.822 38.3911 49.822 38.3911L51.7221 38.8351C51.9161 40.0417 52.027 41.2637 52.0539 42.49Z" fill="black"/>
<path d="M51.504 36.3085L54.2648 38.3144C54.3142 38.3506 54.3696 38.3749 54.4276 38.3857C54.4856 38.3965 54.545 38.3937 54.6019 38.3773C54.6589 38.361 54.7124 38.3315 54.7589 38.2906C54.8055 38.2498 54.8442 38.1985 54.8727 38.1399L57.1138 33.5627L57.9258 31.1843L58.1578 30.8962L59.5498 29.5537H60.0834L59.0487 30.6108L59.3363 31.1711L59.8003 32.3735L57.9559 34.2234C57.9559 34.2234 56.8841 39.7124 55.7357 40.8831C54.8239 41.8133 50.235 38.1188 50.235 38.1188L51.504 36.3085Z" fill="#E4897B"/>
<path d="M49.5993 34.3953C50.3162 34.6437 51.8938 35.4524 54.3669 38.111L52.548 40.8858C51.9562 40.7358 51.4025 40.4328 50.9299 40.0002C50.4572 39.5677 50.0782 39.0171 49.822 38.3911C49.3517 37.2667 49.1137 36.0345 49.126 34.7891C49.1268 34.7243 49.1408 34.6607 49.1669 34.6031C49.193 34.5456 49.2304 34.4958 49.2763 34.4576C49.3222 34.4194 49.3753 34.3939 49.4314 34.3831C49.4874 34.3722 49.5449 34.3764 49.5993 34.3953Z" fill="white"/>
<path d="M54.0815 37.5452L52.0237 40.9305L52.7127 41.0943L54.6546 38.0737L54.0815 37.5452Z" fill="#407BFF"/>
<path opacity="0.5" d="M54.0815 37.5452L52.0237 40.9305L52.7127 41.0943L54.6546 38.0737L54.0815 37.5452Z" fill="white"/>
<path d="M49.3905 89.3823H46.9081L47.045 90.2042H49.2351L49.3905 89.3823Z" fill="#263238"/>
<path opacity="0.4" d="M49.3905 89.3823H46.9081L47.045 90.2042H49.2351L49.3905 89.3823Z" fill="black"/>
</svg>
