<svg width="116" height="87" viewBox="0 0 116 87" fill="none" xmlns="http://www.w3.org/2000/svg">
<path d="M116 75.9568H0V76.0148H116V75.9568Z" fill="#EBEBEB"/>
<path d="M104.377 79.6897H96.693V79.7477H104.377V79.6897Z" fill="#EBEBEB"/>
<path d="M76.843 80.3208H67.744V80.3788H76.843V80.3208Z" fill="#EBEBEB"/>
<path d="M96.461 77.5366H83.2323V77.5946H96.461V77.5366Z" fill="#EBEBEB"/>
<path d="M56.4015 77.9265H40.4794V77.9845H56.4015V77.9265Z" fill="#EBEBEB"/>
<path d="M59.9349 77.9265H58.4663V77.9845H59.9349V77.9265Z" fill="#EBEBEB"/>
<path d="M52.2325 78.9055H22.8126V78.9635H52.2325V78.9055Z" fill="#EBEBEB"/>
<path d="M54.984 65.6096H10.1871C9.83618 65.609 9.49983 65.4691 9.2519 65.2208C9.00397 64.9724 8.86472 64.6358 8.86472 64.2849V1.31312C8.86777 0.964198 9.00837 0.630571 9.25597 0.384707C9.50357 0.138842 9.83818 0.000597722 10.1871 0H54.984C55.3353 0 55.6723 0.139568 55.9207 0.388002C56.1692 0.636435 56.3087 0.973382 56.3087 1.32472V64.2849C56.3087 64.6362 56.1692 64.9732 55.9207 65.2216C55.6723 65.47 55.3353 65.6096 54.984 65.6096ZM10.1871 0.0464002C9.85156 0.0470147 9.52996 0.180743 9.29291 0.418233C9.05585 0.655722 8.92272 0.977566 8.92272 1.31312V64.2849C8.92272 64.6204 9.05585 64.9423 9.29291 65.1798C9.52996 65.4172 9.85156 65.551 10.1871 65.5516H54.984C55.3198 65.551 55.6416 65.4173 55.879 65.1799C56.1165 64.9425 56.2501 64.6206 56.2507 64.2849V1.31312C56.2501 0.977353 56.1165 0.655514 55.879 0.418091C55.6416 0.180668 55.3198 0.0470134 54.984 0.0464002H10.1871Z" fill="#EBEBEB"/>
<path d="M105.168 65.6096H60.3687C60.0176 65.609 59.681 65.4692 59.4327 65.2209C59.1844 64.9726 59.0446 64.636 59.044 64.2849V1.31312C59.0477 0.963986 59.1888 0.630362 59.4368 0.384561C59.6847 0.138761 60.0196 0.000591203 60.3687 0H105.168C105.516 0.00120744 105.85 0.139722 106.098 0.385521C106.345 0.63132 106.485 0.964598 106.488 1.31312V64.2849C106.488 64.6354 106.349 64.9716 106.102 65.2199C105.854 65.4682 105.518 65.6084 105.168 65.6096ZM60.3687 0.0464002C60.033 0.0470134 59.7111 0.180668 59.4737 0.418091C59.2363 0.655514 59.1026 0.977353 59.102 1.31312V64.2849C59.1026 64.6206 59.2363 64.9425 59.4737 65.1799C59.7111 65.4173 60.033 65.551 60.3687 65.5516H105.168C105.504 65.551 105.826 65.4173 106.063 65.1799C106.3 64.9425 106.434 64.6206 106.435 64.2849V1.31312C106.434 0.977353 106.3 0.655514 106.063 0.418091C105.826 0.180668 105.504 0.0470134 105.168 0.0464002H60.3687Z" fill="#EBEBEB"/>
<path d="M29.8027 14.0869H15.6855V34.5818H29.8027V14.0869Z" fill="#E0E0E0"/>
<path d="M30.6402 14.0869H16.2446V34.5818H30.6402V14.0869Z" fill="#F5F5F5"/>
<path d="M17.451 15.7018V32.9673H29.4362V15.7018H17.451Z" fill="white"/>
<path d="M24.5618 23.0469H26.3274C26.3274 21.9855 25.9057 20.9676 25.1552 20.2171C24.4047 19.4666 23.3868 19.0449 22.3254 19.0449H20.5598C20.5598 19.5705 20.6634 20.0909 20.8645 20.5764C21.0656 21.062 21.3604 21.5031 21.732 21.8748C22.1036 22.2464 22.5448 22.5412 23.0303 22.7423C23.5159 22.9434 24.0363 23.0469 24.5618 23.0469Z" fill="#F5F5F5"/>
<path d="M24.5618 29.6241H26.3274C26.3274 28.5627 25.9057 27.5447 25.1552 26.7942C24.4047 26.0437 23.3868 25.6221 22.3254 25.6221H20.5598C20.5605 26.6833 20.9823 27.7008 21.7327 28.4512C22.4831 29.2016 23.5006 29.6235 24.5618 29.6241Z" fill="#F5F5F5"/>
<path d="M48.6504 9.82764H34.5332V30.3225H48.6504V9.82764Z" fill="#E0E0E0"/>
<path d="M49.4879 9.82764H35.0923V30.3225H49.4879V9.82764Z" fill="#F5F5F5"/>
<path d="M36.2987 11.4423V28.7078H48.2815V11.4423H36.2987Z" fill="white"/>
<path d="M38.1552 20.5348L41.8316 24.2111C42.6443 25.0238 43.9619 25.0238 44.7746 24.2111L46.4266 22.5591C47.2393 21.7464 47.2393 20.4288 46.4266 19.6161L42.7502 15.9398C41.9375 15.1271 40.6199 15.1271 39.8072 15.9398L38.1552 17.5917C37.3425 18.4044 37.3425 19.7221 38.1552 20.5348Z" fill="#F5F5F5"/>
<path d="M99.7113 5.74902H63.6074V45.4442H99.7113V5.74902Z" fill="#E6E6E6"/>
<path d="M100.892 5.74902H64.1596V45.4442H100.892V5.74902Z" fill="#F0F0F0"/>
<path d="M99.7113 45.4419H63.6074V46.5369H99.7113V45.4419Z" fill="#E6E6E6"/>
<path d="M102.855 45.4419H66.1223V46.5369H102.855V45.4419Z" fill="#F0F0F0"/>
<path d="M99.2426 43.7924V7.39624L65.8091 7.39624V43.7924H99.2426Z" fill="#FAFAFA"/>
<path d="M87.0928 43.7923L89.7353 7.39844H94.3057L91.6632 43.7923H87.0928Z" fill="white"/>
<path d="M66.584 25.5317C66.5506 25.531 66.5187 25.5173 66.4953 25.4935C66.4718 25.4696 66.4587 25.4375 66.4587 25.4041V8.46805C66.4587 8.43483 66.4719 8.40296 66.4954 8.37947C66.5189 8.35597 66.5508 8.34277 66.584 8.34277C66.6172 8.34277 66.6491 8.35597 66.6726 8.37947C66.6961 8.40296 66.7093 8.43483 66.7093 8.46805V25.4041C66.7093 25.4375 66.6962 25.4696 66.6727 25.4935C66.6493 25.5173 66.6174 25.531 66.584 25.5317Z" fill="#F0F0F0"/>
<path d="M92.6445 43.7923L95.287 7.39844H97.0688L94.4263 43.7923H92.6445Z" fill="white"/>
<path d="M99.2426 43.7946V7.39844H99.0338V43.7946H99.2426Z" fill="#E6E6E6"/>
<path opacity="0.5" d="M101.282 11.7787H65.1758L65.025 8.03882H101.129L101.282 11.7787Z" fill="#E0E0E0"/>
<path opacity="0.5" d="M101.282 17.9266H65.1758L65.025 14.1868H101.129L101.282 17.9266Z" fill="#E0E0E0"/>
<path opacity="0.5" d="M101.282 24.0746H65.1758L65.025 20.3347H101.129L101.282 24.0746Z" fill="#E0E0E0"/>
<path opacity="0.5" d="M101.282 30.2204H65.1758L65.025 26.4829H101.129L101.282 30.2204Z" fill="#E0E0E0"/>
<path opacity="0.5" d="M101.282 36.3683H65.1758L65.025 32.6284H101.129L101.282 36.3683Z" fill="#E0E0E0"/>
<path opacity="0.5" d="M101.282 42.5162H65.1758L65.025 38.7764H101.129L101.282 42.5162Z" fill="#E0E0E0"/>
<path d="M21.054 43.7783H17.0334V74.8733H21.054V43.7783Z" fill="#F0F0F0"/>
<path d="M48.8267 74.8757H17.5902V75.9569H48.8267V74.8757Z" fill="#E6E6E6"/>
<path d="M21.054 74.8757H49.3835L49.3835 43.7808H21.054L21.054 74.8757Z" fill="#FAFAFA"/>
<path d="M44.3909 63.0552H26.0443C25.5521 63.0552 25.08 62.8596 24.7319 62.5116C24.3839 62.1635 24.1883 61.6914 24.1883 61.1992V57.2088C24.1883 56.7165 24.3839 56.2445 24.7319 55.8964C25.08 55.5483 25.5521 55.3528 26.0443 55.3528H44.3909C44.8831 55.3528 45.3552 55.5483 45.7033 55.8964C46.0513 56.2445 46.2469 56.7165 46.2469 57.2088V61.1992C46.2469 61.6914 46.0513 62.1635 45.7033 62.5116C45.3552 62.8596 44.8831 63.0552 44.3909 63.0552ZM26.0443 55.5825C25.6136 55.5825 25.2005 55.7536 24.896 56.0581C24.5914 56.3627 24.4203 56.7757 24.4203 57.2065V61.1969C24.4203 61.6276 24.5914 62.0406 24.896 62.3452C25.2005 62.6498 25.6136 62.8209 26.0443 62.8209H44.3909C44.8216 62.8209 45.2347 62.6498 45.5392 62.3452C45.8438 62.0406 46.0149 61.6276 46.0149 61.1969V57.2065C46.0149 56.7757 45.8438 56.3627 45.5392 56.0581C45.2347 55.7536 44.8216 55.5825 44.3909 55.5825H26.0443Z" fill="#F0F0F0"/>
<path d="M44.3909 72.6716H26.0443C25.5521 72.6716 25.08 72.4761 24.7319 72.128C24.3839 71.78 24.1883 71.3079 24.1883 70.8156V66.816C24.1883 66.3237 24.3839 65.8516 24.7319 65.5036C25.08 65.1555 25.5521 64.96 26.0443 64.96H44.3909C44.8831 64.96 45.3552 65.1555 45.7033 65.5036C46.0513 65.8516 46.2469 66.3237 46.2469 66.816V70.8064C46.2481 71.0509 46.201 71.2932 46.1083 71.5195C46.0156 71.7457 45.879 71.9514 45.7066 72.1248C45.5341 72.2981 45.3291 72.4356 45.1033 72.5295C44.8775 72.6233 44.6354 72.6716 44.3909 72.6716ZM26.0443 65.192C25.6136 65.192 25.2005 65.3631 24.896 65.6676C24.5914 65.9722 24.4203 66.3852 24.4203 66.816V70.8064C24.4203 71.2371 24.5914 71.6501 24.896 71.9547C25.2005 72.2593 25.6136 72.4304 26.0443 72.4304H44.3909C44.8216 72.4304 45.2347 72.2593 45.5392 71.9547C45.8438 71.6501 46.0149 71.2371 46.0149 70.8064V66.816C46.0149 66.3852 45.8438 65.9722 45.5392 65.6676C45.2347 65.3631 44.8216 65.192 44.3909 65.192H26.0443Z" fill="#F0F0F0"/>
<path d="M35.7257 56.7566H34.7118C34.5056 56.7566 34.3383 56.9238 34.3383 57.1301V57.9955C34.3383 58.2018 34.5056 58.369 34.7118 58.369H35.7257C35.932 58.369 36.0992 58.2018 36.0992 57.9955V57.1301C36.0992 56.9238 35.932 56.7566 35.7257 56.7566Z" fill="#F0F0F0"/>
<path d="M44.3909 53.4365H26.0443C25.5521 53.4365 25.08 53.241 24.7319 52.8929C24.3839 52.5449 24.1883 52.0728 24.1883 51.5805V47.5901C24.1883 47.0979 24.3839 46.6258 24.7319 46.2777C25.08 45.9297 25.5521 45.7341 26.0443 45.7341H44.3909C44.8831 45.7341 45.3552 45.9297 45.7033 46.2777C46.0513 46.6258 46.2469 47.0979 46.2469 47.5901V51.5805C46.2469 52.0728 46.0513 52.5449 45.7033 52.8929C45.3552 53.241 44.8831 53.4365 44.3909 53.4365ZM26.0443 45.9638C25.6136 45.9638 25.2005 46.1349 24.896 46.4395C24.5914 46.744 24.4203 47.1571 24.4203 47.5878V51.5782C24.4203 52.0089 24.5914 52.422 24.896 52.7266C25.2005 53.0311 25.6136 53.2022 26.0443 53.2022H44.3909C44.8216 53.2022 45.2347 53.0311 45.5392 52.7266C45.8438 52.422 46.0149 52.0089 46.0149 51.5782V47.5878C46.0149 47.1571 45.8438 46.744 45.5392 46.4395C45.2347 46.1349 44.8216 45.9638 44.3909 45.9638H26.0443Z" fill="#F0F0F0"/>
<path d="M35.7257 47.1377H34.7118C34.5056 47.1377 34.3383 47.3049 34.3383 47.5112V48.3766C34.3383 48.5829 34.5056 48.7501 34.7118 48.7501H35.7257C35.932 48.7501 36.0992 48.5829 36.0992 48.3766V47.5112C36.0992 47.3049 35.932 47.1377 35.7257 47.1377Z" fill="#F0F0F0"/>
<path d="M35.7257 66.3728H34.7118C34.5056 66.3728 34.3383 66.54 34.3383 66.7463V67.6117C34.3383 67.818 34.5056 67.9852 34.7118 67.9852H35.7257C35.932 67.9852 36.0992 67.818 36.0992 67.6117V66.7463C36.0992 66.54 35.932 66.3728 35.7257 66.3728Z" fill="#F0F0F0"/>
<path d="M50.119 42.7715H21.054V43.7784H50.119V42.7715Z" fill="#F0F0F0"/>
<path d="M16.247 43.7783H21.054V42.7714H16.247V43.7783Z" fill="#E6E6E6"/>
<path d="M67.86 58.0046L97.1895 58.0046V53.5618H67.86V58.0046Z" fill="#EBEBEB"/>
<path d="M67.86 58.0046H80.613V53.5618H67.86V58.0046Z" fill="#E0E0E0"/>
<path d="M92.8557 75.9568H97.1895V58.0046H92.8557V75.9568Z" fill="#EBEBEB"/>
<path d="M92.8557 59.2482L97.1894 58.6264V58.0046H92.8557V59.2482Z" fill="#E0E0E0"/>
<path d="M67.86 75.9568H72.1938V58.0046H67.86V75.9568Z" fill="#E0E0E0"/>
<path d="M76.2816 75.9568H80.6154V58.0046H76.2816V75.9568Z" fill="#EBEBEB"/>
<path d="M76.2793 59.2482L80.613 58.6264V58.0046H76.2793V59.2482Z" fill="#E0E0E0"/>
<path d="M84.4364 75.9568H88.7702V58.0046H84.4364V75.9568Z" fill="#E0E0E0"/>
<path d="M58 86.4339C82.8431 86.4339 102.982 85.2581 102.982 83.8076C102.982 82.3572 82.8431 81.1814 58 81.1814C33.1569 81.1814 13.0175 82.3572 13.0175 83.8076C13.0175 85.2581 33.1569 86.4339 58 86.4339Z" fill="#F5F5F5"/>
<path d="M56.6706 44.2609L52.4111 31.088C52.3225 30.8461 52.1822 30.6265 51.9998 30.4446C51.8175 30.2627 51.5976 30.1228 51.3555 30.0347C51.5526 29.9449 51.719 29.7991 51.8341 29.6156C51.9491 29.4321 52.0078 29.2189 52.0028 29.0023L51.6919 15.6901C51.6824 15.3879 51.5563 15.101 51.3401 14.8896C51.1239 14.6782 50.8343 14.5585 50.5319 14.5557H26.9584C26.8107 14.5553 26.6644 14.5845 26.5282 14.6416C26.392 14.6987 26.2686 14.7824 26.1652 14.8879C26.0619 14.9934 25.9807 15.1186 25.9265 15.256C25.8722 15.3933 25.846 15.5402 25.8494 15.6878L26.158 29C26.1626 29.162 26.2011 29.3213 26.271 29.4676C26.3409 29.6138 26.4408 29.7438 26.564 29.8491C26.6282 29.903 26.6705 29.9785 26.6829 30.0614C26.6953 30.1443 26.6769 30.2289 26.6313 30.2992C26.5633 30.4175 26.5223 30.5492 26.511 30.6852C26.4998 30.8211 26.5187 30.9579 26.5663 31.0857L30.8258 44.2702C30.938 44.5858 31.1401 44.8617 31.4073 45.0637C31.6745 45.2658 31.995 45.3851 32.3292 45.407H55.912C56.5268 45.3977 56.8725 44.885 56.6706 44.2609Z" fill="#263238"/>
<path d="M47.0194 13.7322H45.82V13.9642H47.0194V13.7322Z" fill="#407BFF"/>
<path d="M44.3514 13.7322H40.1754V13.9642H44.3514V13.7322Z" fill="#407BFF"/>
<path d="M56.9676 44.261L52.7081 31.088C52.6202 30.8457 52.4801 30.6258 52.2976 30.4438C52.1152 30.2617 51.8949 30.1221 51.6525 30.0347C51.8498 29.9451 52.0163 29.7994 52.1314 29.6159C52.2465 29.4323 52.3051 29.2189 52.2998 29.0023L51.9912 15.6878C51.9839 15.385 51.8585 15.0971 51.6418 14.8855C51.425 14.674 51.1341 14.5556 50.8312 14.5557H27.2577C27.1099 14.555 26.9635 14.584 26.8271 14.641C26.6907 14.6979 26.5672 14.7817 26.4638 14.8872C26.3604 14.9928 26.2792 15.1181 26.2251 15.2556C26.171 15.3931 26.145 15.5401 26.1487 15.6878L26.448 29C26.4523 29.1619 26.4904 29.321 26.56 29.4673C26.6295 29.6135 26.7289 29.7436 26.8517 29.8491C26.9163 29.9027 26.959 29.978 26.9718 30.061C26.9847 30.1439 26.9667 30.2286 26.9213 30.2992C26.8533 30.4175 26.8123 30.5492 26.801 30.6852C26.7898 30.8211 26.8087 30.9579 26.8563 31.0857L31.1158 44.2702C31.228 44.5859 31.4301 44.8617 31.6973 45.0638C31.9645 45.2658 32.285 45.3851 32.6192 45.407H56.1904C56.8238 45.3978 57.1694 44.885 56.9676 44.261Z" fill="#407BFF"/>
<g opacity="0.5">
<path opacity="0.5" d="M36.9112 15.4907H33.2874L30.0881 29.1787H33.7119L36.9112 15.4907Z" fill="white"/>
<path opacity="0.5" d="M39.5258 15.4907H37.9042L34.7049 29.1787H36.3266L39.5258 15.4907Z" fill="white"/>
<path opacity="0.5" d="M48.5066 15.4907H46.8826L43.6833 29.1787H45.305L48.5066 15.4907Z" fill="white"/>
</g>
<path opacity="0.8" d="M27.8562 29.1787C27.7359 29.1788 27.6203 29.1321 27.5338 29.0486C27.4472 28.9651 27.3965 28.8512 27.3922 28.731L27.093 15.9385C27.0917 15.8801 27.1022 15.8221 27.1236 15.7678C27.1451 15.7136 27.1772 15.6641 27.2181 15.6224C27.2589 15.5807 27.3077 15.5476 27.3615 15.525C27.4153 15.5024 27.4731 15.4907 27.5314 15.4907H50.5853C50.7056 15.4906 50.8212 15.5373 50.9078 15.6208C50.9943 15.7044 51.0451 15.8183 51.0493 15.9385L51.3486 28.731C51.3498 28.7893 51.3394 28.8473 51.3179 28.9016C51.2964 28.9559 51.2643 29.0053 51.2235 29.047C51.1826 29.0887 51.1339 29.1219 51.0801 29.1445C51.0262 29.1671 50.9685 29.1787 50.9101 29.1787H27.8562Z" fill="white"/>
<path opacity="0.2" d="M30.7609 38.8159C30.6292 38.8075 30.503 38.7605 30.3978 38.6809C30.2926 38.6013 30.2131 38.4925 30.1693 38.3681L27.8957 31.3362C27.8728 31.2868 27.863 31.2322 27.8674 31.1779C27.8719 31.1236 27.8903 31.0714 27.9209 31.0263C27.9515 30.9812 27.9932 30.9448 28.0421 30.9206C28.0909 30.8965 28.1452 30.8854 28.1996 30.8884H51.2534C51.3851 30.8969 51.5114 30.9438 51.6165 31.0234C51.7217 31.103 51.8012 31.2118 51.845 31.3362L54.1186 38.3681C54.1416 38.4176 54.1513 38.4721 54.1469 38.5264C54.1425 38.5807 54.1241 38.633 54.0935 38.678C54.0629 38.7231 54.0211 38.7595 53.9722 38.7837C53.9234 38.8078 53.8691 38.8189 53.8147 38.8159H30.7609Z" fill="black"/>
<path opacity="0.2" d="M40.781 44.3468C40.7042 44.3421 40.6305 44.315 40.5691 44.2688C40.5076 44.2226 40.4611 44.1594 40.4353 44.087L39.1106 39.9875C39.0974 39.9585 39.0919 39.9266 39.0946 39.8948C39.0973 39.863 39.1082 39.8325 39.1261 39.8062C39.1441 39.7798 39.1685 39.7586 39.1971 39.7444C39.2256 39.7303 39.2574 39.7237 39.2892 39.7254H45.8757C45.9526 39.7305 46.0264 39.758 46.0878 39.8046C46.1492 39.8512 46.1957 39.9148 46.2214 39.9875L47.5461 44.08C47.5593 44.1087 47.5649 44.1403 47.5623 44.1718C47.5598 44.2033 47.5491 44.2336 47.5313 44.2597C47.5136 44.2859 47.4894 44.307 47.4611 44.321C47.4328 44.3351 47.4013 44.3415 47.3698 44.3398L40.781 44.3468Z" fill="black"/>
<path d="M47.9474 27.5362H33.8233C33.2108 27.5362 32.7027 28.0605 32.777 29.1787H46.9034C46.8269 28.0721 47.328 27.5315 47.9474 27.5362Z" fill="#263238"/>
<path d="M33.8233 27.5361C34.4334 27.5361 34.9137 28.0813 34.9833 29.1996C35.2153 32.5311 35.3034 40.4678 36.7859 46.7782C37.0063 47.8663 37.649 48.5321 38.2243 48.2676H52.3485C51.7754 48.5321 51.1305 47.8663 50.9101 46.7782C49.4276 40.4678 49.3348 32.5311 49.1074 29.1996C49.0309 28.0813 48.5506 27.5431 47.9474 27.5361H33.8233Z" fill="#407BFF"/>
<path opacity="0.7" d="M33.8233 27.5361C34.4334 27.5361 34.9137 28.0813 34.9833 29.1996C35.2153 32.5311 35.3034 40.4678 36.7859 46.7782C37.0063 47.8663 37.649 48.5321 38.2243 48.2676H52.3485C51.7754 48.5321 51.1305 47.8663 50.9101 46.7782C49.4276 40.4678 49.3348 32.5311 49.1074 29.1996C49.0309 28.0813 48.5506 27.5431 47.9474 27.5361H33.8233Z" fill="white"/>
<path d="M39.6511 43.0637C39.53 43.0745 39.4147 43.1205 39.3194 43.196C38.7788 43.602 38.5793 44.7759 38.8739 45.8199C39.092 46.908 38.8066 48.003 38.2313 48.2675H52.3554C52.9308 48.003 53.2185 46.908 52.9981 45.8199C52.7034 44.7759 52.903 43.602 53.4435 43.196C53.5393 43.1213 53.6544 43.0754 53.7753 43.0637H39.6511Z" fill="#263238"/>
<path d="M58.7772 80.9192C58.7772 80.9192 58.4269 76.5367 58.1647 70.3005C57.659 58.3177 55.9236 47.5645 54.8634 44.3513C54.6151 43.595 54.1952 43.0962 53.773 43.0637H39.6511C39.7712 43.077 39.886 43.12 39.9852 43.189C40.3543 43.4849 40.6186 43.8916 40.7392 44.349C41.7994 47.5576 43.5232 58.3154 44.0382 70.2982C44.3027 76.5344 44.653 80.9168 44.653 80.9168C44.7342 82.0374 45.2934 82.9376 45.9035 82.9306H60.03C59.4198 82.9399 58.8607 82.0397 58.7772 80.9192Z" fill="#407BFF"/>
<path opacity="0.7" d="M58.7772 80.9192C58.7772 80.9192 58.4269 76.5367 58.1647 70.3005C57.659 58.3177 55.9236 47.5645 54.8634 44.3513C54.6151 43.595 54.1952 43.0962 53.773 43.0637H39.6511C39.7712 43.077 39.886 43.12 39.9852 43.189C40.3543 43.4849 40.6186 43.8916 40.7392 44.349C41.7994 47.5576 43.5232 58.3154 44.0382 70.2982C44.3027 76.5344 44.653 80.9168 44.653 80.9168C44.7342 82.0374 45.2934 82.9376 45.9035 82.9306H60.03C59.4198 82.9399 58.8607 82.0397 58.7772 80.9192Z" fill="white"/>
<path d="M60.9974 80.896H46.864C46.9452 82.0142 46.5183 82.9283 45.9082 82.933H60.0416C60.6518 82.9283 61.081 82.0142 60.9974 80.896Z" fill="#263238"/>
<path d="M81.2 25.1116C81.9262 26.1486 82.592 27.1856 83.2138 28.2737C83.8704 29.3852 84.4337 30.5492 84.8981 31.7537C85.0238 32.0979 85.1246 32.4507 85.1997 32.8093C85.2182 32.9114 85.2345 33.0205 85.2484 33.1249C85.2623 33.2458 85.27 33.3674 85.2716 33.4891C85.2681 33.7518 85.2275 34.0127 85.151 34.264C85.0231 34.6589 84.8345 35.0315 84.5918 35.3683C84.3902 35.6605 84.1644 35.9352 83.9167 36.1896C82.9993 37.1112 81.9519 37.8936 80.8079 38.5119L80.0562 37.4749C80.8809 36.6663 81.6418 35.7953 82.3322 34.8695C82.4785 34.6585 82.6125 34.4393 82.7335 34.2129C82.8293 34.0408 82.8966 33.8543 82.933 33.6608C82.9432 33.6181 82.9432 33.5736 82.933 33.5309C82.933 33.51 82.9214 33.4729 82.9168 33.4404L82.8843 33.3058C82.8159 33.0683 82.7314 32.8358 82.6314 32.6098C82.4056 32.0932 82.1524 31.5891 81.8728 31.0995C81.5921 30.5891 81.2928 30.081 80.9842 29.5753C80.3671 28.5661 79.7129 27.5476 79.0656 26.5592L81.2 25.1116Z" fill="#FFB573"/>
<path d="M80.3022 37.3518L79.1422 37.8436L80.2882 39.4444C80.2882 39.4444 81.1304 38.9804 81.2371 38.1568L80.3022 37.3518Z" fill="#FFB573"/>
<path d="M78.1028 38.484L78.8429 39.8249L80.2882 39.4328L79.1421 37.832L78.1028 38.484Z" fill="#FFB573"/>
<path d="M69.1708 54.6544L68.9736 54.7333L67.6558 55.2739L57.536 30.5264L59.0486 29.907L69.1708 54.6544Z" fill="#407BFF"/>
<path opacity="0.3" d="M69.1708 54.6544L68.9736 54.7333L67.6558 55.2739L57.536 30.5264L59.0486 29.907L69.1708 54.6544Z" fill="white"/>
<path d="M72.1961 53.4202L71.2286 53.8146L70.6834 54.0373L60.5636 29.2898L62.0762 28.6704L72.1961 53.4202Z" fill="#407BFF"/>
<path opacity="0.3" d="M72.1961 53.4202L71.2286 53.8146L70.6834 54.0373L60.5636 29.2898L62.0762 28.6704L72.1961 53.4202Z" fill="white"/>
<path d="M60.5679 29.2882L59.0557 29.9053L69.1584 54.6612L70.6706 54.0441L60.5679 29.2882Z" fill="#407BFF"/>
<path d="M59.4129 26.6938L58.051 27.2506L57.536 30.5265L62.0739 28.6705L59.4129 26.6938Z" fill="#407BFF"/>
<path opacity="0.3" d="M59.4129 26.6938L58.051 27.2506L57.536 30.5265L62.0739 28.6705L59.4129 26.6938Z" fill="black"/>
<path d="M58.2714 25.8469L58.051 27.2505L59.4129 26.6937L58.2714 25.8469Z" fill="#407BFF"/>
<path d="M72.7505 18.1354C72.7668 18.2723 72.7065 18.3906 72.616 18.3999C72.5255 18.4092 72.442 18.3071 72.4281 18.1679C72.4141 18.0287 72.4721 17.9127 72.5626 17.9034C72.6531 17.8941 72.7366 17.9985 72.7505 18.1354Z" fill="#263238"/>
<path d="M72.7181 18.3882C72.6016 18.8242 72.4252 19.2419 72.1938 19.6294C72.2947 19.686 72.4068 19.7199 72.5222 19.7287C72.6376 19.7375 72.7535 19.721 72.8619 19.6804L72.7181 18.3882Z" fill="#ED893E"/>
<path d="M73.1681 17.321C73.1874 17.3143 73.2037 17.3012 73.2145 17.2839C73.2246 17.2648 73.2269 17.2425 73.2208 17.2217C73.2147 17.2009 73.2008 17.1833 73.1821 17.1726C73.0718 17.1074 72.9475 17.0694 72.8197 17.0617C72.6918 17.0541 72.5639 17.077 72.4466 17.1285C72.428 17.1388 72.4141 17.1558 72.4076 17.1761C72.4011 17.1964 72.4026 17.2183 72.4118 17.2375C72.4217 17.2566 72.4387 17.2709 72.4592 17.2774C72.4796 17.2839 72.5018 17.2821 72.5209 17.2723C72.6143 17.2326 72.7158 17.2157 72.8171 17.223C72.9183 17.2302 73.0164 17.2615 73.1032 17.3141C73.1129 17.3197 73.1238 17.3232 73.1349 17.3244C73.1461 17.3256 73.1574 17.3245 73.1681 17.321Z" fill="#263238"/>
<path d="M77.133 19.1445C76.8894 20.3927 76.6458 22.6779 77.5182 23.5085C77.5182 23.5085 77.1771 24.7728 74.8594 24.7728C72.3074 24.7728 73.6414 23.5085 73.6414 23.5085C75.0334 23.1767 74.9963 22.1466 74.755 21.1768L77.133 19.1445Z" fill="#FFB573"/>
<path d="M78.0355 23.9283C78.2675 23.7566 78.1538 23.0815 77.8314 22.8379C77.2862 22.4249 74.704 22.2532 73.5788 23.0467C73.3597 23.3409 73.2618 23.7078 73.305 24.0721L78.0355 23.9283Z" fill="#407BFF"/>
<path d="M84.6614 81.9352C84.5917 81.9568 84.5184 81.9639 84.4458 81.9564C84.3732 81.9488 84.303 81.9266 84.2392 81.8911C84.2153 81.8668 84.1996 81.8356 84.1942 81.802C84.1888 81.7683 84.194 81.7338 84.209 81.7032C84.2179 81.6775 84.2322 81.654 84.2511 81.6344C84.2699 81.6148 84.2928 81.5995 84.3181 81.5895C84.5501 81.4921 85.0721 81.7334 85.093 81.7427C85.1005 81.7453 85.1069 81.7504 85.1111 81.7571C85.1153 81.7639 85.1171 81.7719 85.1162 81.7798C85.1161 81.7875 85.1139 81.7951 85.1098 81.8016C85.1057 81.8082 85.0999 81.8135 85.093 81.8169C84.9537 81.8713 84.809 81.911 84.6614 81.9352ZM84.3993 81.6499C84.3826 81.6528 84.3663 81.6575 84.3506 81.6638C84.3357 81.6694 84.3223 81.678 84.3111 81.6893C84.2999 81.7005 84.2912 81.7139 84.2856 81.7287C84.2601 81.8007 84.2856 81.8262 84.2856 81.8331C84.3738 81.9167 84.7171 81.861 84.9607 81.7775C84.7851 81.6944 84.5935 81.6509 84.3993 81.6499Z" fill="#407BFF"/>
<path d="M85.0837 81.8192H85.0628C84.8749 81.7542 84.4758 81.441 84.4805 81.2485C84.4821 81.2181 84.494 81.1891 84.5143 81.1664C84.5345 81.1436 84.5618 81.1284 84.5918 81.1232C84.6211 81.1138 84.6521 81.1111 84.6826 81.1151C84.7131 81.1191 84.7423 81.1298 84.7682 81.1464C85.0002 81.274 85.1115 81.7519 85.1162 81.7728C85.1171 81.7798 85.1165 81.7869 85.1145 81.7937C85.1125 81.8005 85.1091 81.8068 85.1046 81.8122L85.0837 81.8192ZM84.6313 81.1928H84.6127C84.564 81.209 84.5617 81.2322 84.5617 81.2438C84.5617 81.3575 84.8192 81.6011 85.0141 81.7078C84.9711 81.518 84.8716 81.3458 84.7287 81.2137C84.6987 81.1982 84.6644 81.1933 84.6313 81.1997V81.1928Z" fill="#407BFF"/>
<path d="M72.9849 82.1534C72.7645 82.1534 72.5533 82.1233 72.4837 82.0258C72.4656 82 72.4558 81.9693 72.4558 81.9377C72.4558 81.9061 72.4656 81.8753 72.4837 81.8495C72.4979 81.8258 72.5167 81.8051 72.5391 81.7888C72.5614 81.7724 72.5867 81.7608 72.6137 81.7544C72.8967 81.6779 73.493 82.0166 73.5162 82.0328C73.5239 82.0363 73.5302 82.0424 73.534 82.05C73.5378 82.0576 73.5389 82.0663 73.537 82.0746C73.5354 82.0826 73.5314 82.0899 73.5257 82.0957C73.5199 82.1015 73.5125 82.1054 73.5045 82.1071C73.3329 82.1372 73.1591 82.1527 72.9849 82.1534ZM72.7134 81.824C72.688 81.8203 72.6623 81.8203 72.6369 81.824C72.6204 81.8269 72.6049 81.8334 72.5912 81.8431C72.5776 81.8527 72.5662 81.8652 72.558 81.8797C72.5278 81.9307 72.5394 81.9563 72.558 81.9702C72.6369 82.0792 73.0684 82.0815 73.3862 82.0374C73.178 81.9232 72.9494 81.8507 72.7134 81.824Z" fill="#407BFF"/>
<path d="M73.4999 82.1071H73.4837C73.2772 82.0143 72.8689 81.6431 72.9014 81.4529C72.9014 81.4065 72.9408 81.3508 73.0522 81.3392C73.0935 81.3344 73.1354 81.3381 73.1753 81.3501C73.2152 81.362 73.2523 81.382 73.2842 81.4088C73.4999 81.5874 73.5463 82.0468 73.5486 82.0653C73.5495 82.0724 73.5485 82.0796 73.5457 82.0861C73.5428 82.0927 73.5382 82.0983 73.5324 82.1025C73.5226 82.1081 73.5109 82.1098 73.4999 82.1071ZM73.0823 81.4111H73.0591C72.9872 81.4111 72.9826 81.4459 72.9802 81.4552C72.9617 81.5712 73.2378 81.8612 73.4442 81.9865C73.422 81.7922 73.341 81.6093 73.2122 81.4621C73.174 81.4334 73.1278 81.4172 73.08 81.4157L73.0823 81.4111Z" fill="#407BFF"/>
<path d="M75.3722 82.0677H73.6693L73.4999 78.1213H75.2028L75.3722 82.0677Z" fill="#FFB573"/>
<path d="M87.0023 81.4621L85.3226 81.7382L83.8332 77.9845L85.5152 77.7061L87.0023 81.4621Z" fill="#FFB573"/>
<path d="M85.1695 81.5641L87.0603 81.2532C87.0933 81.2477 87.1272 81.2537 87.1564 81.2701C87.1855 81.2866 87.2081 81.3126 87.2204 81.3437L87.8004 82.7821C87.8145 82.8173 87.8204 82.8553 87.8176 82.8931C87.8149 82.931 87.8036 82.9677 87.7846 83.0005C87.7657 83.0334 87.7395 83.0615 87.708 83.0827C87.6766 83.104 87.6407 83.1178 87.6032 83.1231C86.942 83.2206 86.6149 83.2345 85.7843 83.3714C85.2739 83.4572 84.1186 83.6776 83.4133 83.7936C82.708 83.9096 82.4992 83.2275 82.7776 83.1162C84.0258 82.6197 84.5617 82.1534 84.9143 81.7126C84.9782 81.6333 85.0691 81.5805 85.1695 81.5641Z" fill="#263238"/>
<path d="M73.6809 81.8704H75.5369C75.5708 81.8701 75.6039 81.8814 75.6304 81.9025C75.657 81.9236 75.6756 81.9532 75.683 81.9864L76.0194 83.5013C76.0275 83.5379 76.0272 83.5758 76.0185 83.6122C76.0098 83.6486 75.993 83.6826 75.9694 83.7116C75.9457 83.7406 75.9158 83.7639 75.8819 83.7797C75.848 83.7955 75.8109 83.8034 75.7735 83.8029C75.103 83.8029 74.1309 83.7542 73.2888 83.7542C72.3005 83.7542 71.449 83.8076 70.2914 83.8076C69.5954 83.8076 69.3982 83.1 69.6905 83.035C71.0245 82.745 72.1125 82.7125 73.2656 82.0026C73.3889 81.9205 73.5328 81.8747 73.6809 81.8704Z" fill="#263238"/>
<path d="M80.569 23.8958C82.193 24.0999 83.9144 28.0254 83.9144 28.0254L80.968 30.7769C80.0528 29.9802 79.3605 28.9592 78.9589 27.8142C78.2002 25.7518 78.9055 23.6846 80.569 23.8958Z" fill="#407BFF"/>
<g opacity="0.4">
<path opacity="0.4" d="M80.569 23.8958C82.193 24.0999 83.9144 28.0254 83.9144 28.0254L80.968 30.7769C80.0528 29.9802 79.3605 28.9592 78.9589 27.8142C78.2002 25.7518 78.9055 23.6846 80.569 23.8958Z" fill="black"/>
</g>
<path opacity="0.2" d="M79.5087 27.0164C80.4576 27.782 80.9007 29.3108 81.1002 30.6564L80.9703 30.7794C80.0543 29.982 79.3612 28.9603 78.9589 27.8144C78.9148 27.6915 78.873 27.5662 78.8382 27.4456L79.5087 27.0164Z" fill="black"/>
<path d="M71.0198 23.9816C71.0198 23.9816 69.2079 26.0302 70.9201 38.7136H80.04C80.1026 37.3216 79.2234 30.4869 80.5736 23.8935C79.566 23.6995 78.547 23.5708 77.5228 23.5084C76.2316 23.4341 74.9372 23.4341 73.6461 23.5084C72.7597 23.5976 71.8816 23.7558 71.0198 23.9816Z" fill="#407BFF"/>
<g opacity="0.4">
<path opacity="0.4" d="M71.0198 23.9816C71.0198 23.9816 69.2079 26.0302 70.9201 38.7136H80.04C80.1026 37.3216 79.2234 30.4869 80.5736 23.8935C79.566 23.6995 78.547 23.5708 77.5228 23.5084C76.2316 23.4341 74.9372 23.4341 73.6461 23.5084C72.7597 23.5976 71.8816 23.7558 71.0198 23.9816Z" fill="black"/>
</g>
<path opacity="0.2" d="M70.2241 27.8585L70.2589 27.8284L72.3306 28.3248C72.449 29.7168 71.0082 31.4012 70.2658 32.1668C70.1741 30.7325 70.1602 29.2943 70.2241 27.8585Z" fill="black"/>
<path opacity="0.2" d="M73.4999 78.1213L73.5881 80.156H75.291L75.2051 78.1213H73.4999Z" fill="black"/>
<path opacity="0.2" d="M85.5152 77.7083L83.8332 77.9843L84.6011 79.9215L86.2831 79.6431L85.5152 77.7083Z" fill="black"/>
<path d="M77.2769 17.3419C77.3581 19.0309 77.4926 20.0169 76.7409 20.9704C75.6088 22.4065 73.4512 21.8683 72.8665 20.2373C72.3399 18.7687 72.2935 16.2515 73.8641 15.4024C74.2097 15.2174 74.5965 15.1229 74.9885 15.1279C75.3805 15.1328 75.7648 15.237 76.1056 15.4307C76.4464 15.6244 76.7326 15.9012 76.9374 16.2355C77.1422 16.5697 77.259 16.9504 77.2769 17.3419Z" fill="#FFB573"/>
<path d="M73.834 18.6759C73.0754 18.7153 73.1009 18.4578 73.1009 18.4578C73.1009 18.4578 73.3839 17.6597 73.3445 17.3256C73.073 17.2096 72.8271 16.3976 72.8619 16.1656C72.507 16.2283 71.115 15.1982 72.9199 14.0776C73.4234 14.4651 74.1913 14.4303 74.8664 14.2586C76.2329 13.9106 78.3882 14.3143 77.9334 15.342C78.7454 15.342 79.1259 17.3488 78.2559 18.4485C77.3418 19.6085 77.5599 20.9611 76.6319 21.091C75.7039 21.2209 75.0334 20.4971 75.0334 20.4971C75.0334 20.4971 74.6066 18.2629 73.834 18.6759Z" fill="#263238"/>
<path d="M77.8244 15.3767C77.8244 15.3767 78.4044 15.2097 77.9868 14.3977C78.5923 14.5323 78.9078 15.4858 77.8244 15.3767Z" fill="#263238"/>
<path d="M74.7156 18.0681C74.7344 18.4884 74.6128 18.903 74.3699 19.2466C74.0498 19.6967 73.6345 19.4786 73.5115 19.0007C73.4002 18.5622 73.435 17.7989 73.8595 17.5229C74.2841 17.2468 74.6854 17.5623 74.7156 18.0681Z" fill="#FFB573"/>
<path d="M74.1542 38.7136C74.1542 38.7136 76.096 51.7358 77.1493 56.6078C78.3093 61.9438 83.6986 79.6315 83.6986 79.6315L86.7494 78.9703C86.7494 78.9703 83.2393 64.5631 82.2626 57.0927C81.5132 51.3553 80.0354 38.7043 80.0354 38.7043L74.1542 38.7136Z" fill="#407BFF"/>
<path d="M82.9678 78.6224C82.9562 78.6224 83.5362 79.7267 83.5362 79.7267L86.9698 78.982L86.6798 77.9519L82.9678 78.6224Z" fill="#263238"/>
<path opacity="0.3" d="M75.3768 43.3537C77.6133 43.7922 77.3766 52.1326 77.1075 56.4223C76.4626 53.3901 75.5183 47.5553 74.8734 43.4141C75.0294 43.3372 75.207 43.3159 75.3768 43.3537Z" fill="black"/>
<path d="M70.9201 38.7136C70.9201 38.7136 70.2125 51.4574 70.3981 56.6542C70.5906 62.0598 72.9501 79.7614 72.9501 79.7614H75.8362C75.8362 79.7614 75.4696 62.3753 75.6042 57.0671C75.7457 51.2671 77.4787 38.7136 77.4787 38.7136H70.9201Z" fill="#407BFF"/>
<path d="M72.3956 78.6108C72.3817 78.6108 72.558 79.8103 72.558 79.8103H76.0705L76.1656 78.7408L72.3956 78.6108Z" fill="#263238"/>
<path d="M72.5209 26.5917C72.3121 27.2598 72.0801 27.8607 71.8249 28.4825C71.5697 29.1042 71.3029 29.7051 71.0082 30.306C70.4144 31.5541 69.667 32.7231 68.7834 33.786C68.5338 34.0703 68.2648 34.337 67.9783 34.5841C67.67 34.8492 67.3312 35.0766 66.9691 35.2615C66.6492 35.4182 66.3208 35.5568 65.9854 35.6768C65.6676 35.7951 65.3521 35.9088 65.0342 35.9993C63.7864 36.3828 62.5136 36.6797 61.2248 36.8878L60.8536 35.6652L64.2918 34.0713C64.8275 33.8235 65.3501 33.5487 65.8578 33.2477C66.053 33.1199 66.2355 32.9739 66.403 32.8116C66.5886 32.6265 66.7629 32.4305 66.925 32.2246C67.274 31.769 67.5888 31.2882 67.867 30.7862C68.1593 30.2712 68.433 29.7329 68.6882 29.1808C68.9434 28.6286 69.1847 28.0649 69.419 27.4988C69.6534 26.9327 69.8691 26.3388 70.0617 25.7913L72.5209 26.5917Z" fill="#FFB573"/>
<path d="M73.5069 25.6847C74.8246 27.6312 71.7437 31.1831 71.7437 31.1831L68.3008 28.7865C68.5358 27.5754 68.9257 26.3996 69.4608 25.288C70.593 22.9401 72.507 24.2045 73.5069 25.6847Z" fill="#407BFF"/>
<g opacity="0.4">
<path opacity="0.4" d="M73.5069 25.6847C74.8246 27.6312 71.7437 31.1831 71.7437 31.1831L68.3008 28.7865C68.5358 27.5754 68.9257 26.3996 69.4608 25.288C70.593 22.9401 72.507 24.2045 73.5069 25.6847Z" fill="black"/>
</g>
<path d="M61.8071 35.5122L59.6866 35.7442L60.1785 37.5422C60.1785 37.5422 61.6818 37.5909 62.1714 36.4495L61.8071 35.5122Z" fill="#FFB573"/>
<path d="M59.0046 36.287L59.4129 37.7579L60.1785 37.5375L59.6866 35.7395L59.0046 36.287Z" fill="#FFB573"/>
</svg>
