<svg width="111" height="83" viewBox="0 0 111 83" fill="none" xmlns="http://www.w3.org/2000/svg">
<path d="M111 72.6829H0V72.7384H111V72.6829Z" fill="#E6E6E6"/>
<path d="M27.7101 76.0417H20.3574V76.0972H27.7101V76.0417Z" fill="#E6E6E6"/>
<path d="M18.0308 76.0417H13.7706V76.0972H18.0308V76.0417Z" fill="#E6E6E6"/>
<path d="M46.7421 76.8586H42.4819V76.9141H46.7421V76.8586Z" fill="#E6E6E6"/>
<path d="M68.9554 78.0974H59.3672V78.1529H68.9554V78.0974Z" fill="#E6E6E6"/>
<path d="M57.3914 78.0974H55.9861V78.1529H57.3914V78.0974Z" fill="#E6E6E6"/>
<path d="M100.644 76.8586H79.8467V76.9141H100.644V76.8586Z" fill="#E6E6E6"/>
<path d="M52.614 62.7816H9.74801C9.4122 62.781 9.09034 62.6472 8.8531 62.4095C8.61585 62.1719 8.4826 61.8498 8.4826 61.514V1.25652C8.48553 0.922637 8.62007 0.603391 8.857 0.368124C9.09392 0.132858 9.41411 0.000571958 9.74801 0H52.614C52.9502 0 53.2726 0.133552 53.5103 0.371277C53.7481 0.609002 53.8816 0.931426 53.8816 1.26762V61.514C53.8816 61.8502 53.7481 62.1726 53.5103 62.4103C53.2726 62.648 52.9502 62.7816 52.614 62.7816ZM9.74801 0.0444002C9.42692 0.0449882 9.11918 0.172952 8.89234 0.400205C8.66551 0.627458 8.5381 0.93543 8.5381 1.25652V61.514C8.5381 61.8351 8.66551 62.143 8.89234 62.3703C9.11918 62.5975 9.42692 62.7255 9.74801 62.7261H52.614C52.9353 62.7255 53.2432 62.5976 53.4704 62.3704C53.6976 62.1432 53.8255 61.8353 53.8261 61.514V1.25652C53.8255 0.935226 53.6976 0.627259 53.4704 0.40007C53.2432 0.17288 52.9353 0.044987 52.614 0.0444002H9.74801Z" fill="#E6E6E6"/>
<path d="M100.635 62.7816H57.7666C57.4306 62.781 57.1085 62.6473 56.871 62.4097C56.6334 62.1721 56.4996 61.85 56.499 61.514V1.25652C56.5025 0.922435 56.6376 0.603191 56.8748 0.367986C57.1121 0.13278 57.4325 0.00056572 57.7666 0H100.635C100.968 0.0011554 101.288 0.133699 101.524 0.368904C101.761 0.604108 101.895 0.923021 101.898 1.25652V61.514C101.898 61.8494 101.765 62.1711 101.528 62.4087C101.292 62.6463 100.97 62.7804 100.635 62.7816ZM57.7666 0.0444002C57.4453 0.044987 57.1374 0.17288 56.9102 0.40007C56.683 0.627259 56.5551 0.935226 56.5545 1.25652V61.514C56.5551 61.8353 56.683 62.1432 56.9102 62.3704C57.1374 62.5976 57.4453 62.7255 57.7666 62.7261H100.635C100.956 62.7255 101.264 62.5976 101.491 62.3704C101.718 62.1432 101.846 61.8353 101.847 61.514V1.25652C101.846 0.935226 101.718 0.627259 101.491 0.40007C101.264 0.17288 100.956 0.044987 100.635 0.0444002H57.7666Z" fill="#E6E6E6"/>
<path d="M59.3628 53.7197H54.481V73.0848H59.3628V53.7197Z" fill="#E0E0E0"/>
<path d="M58.4348 73.0846H59.3628V70.4473H57.4625L58.4348 73.0846Z" fill="#FAFAFA"/>
<path d="M37.9708 53.7197H33.0891V73.0848H37.9708V53.7197Z" fill="#E0E0E0"/>
<path d="M59.3628 53.7197H37.1628V71.4664H59.3628V53.7197Z" fill="#FAFAFA"/>
<path d="M58.5569 54.592V59.2873H37.9619V54.592H58.5502H58.5569ZM58.6368 54.5054H37.882V59.3716H58.6435V54.5054H58.6368Z" fill="#E0E0E0"/>
<path d="M38.0885 73.0846H37.1628V70.4473H39.0609L38.0885 73.0846Z" fill="#FAFAFA"/>
<path d="M47.7722 56.9386C47.7722 57.0357 47.8009 57.1305 47.8548 57.2112C47.9088 57.2919 47.9854 57.3548 48.075 57.3919C48.1647 57.429 48.2633 57.4387 48.3585 57.4198C48.4537 57.4009 48.5411 57.3542 48.6097 57.2855C48.6783 57.2169 48.725 57.1295 48.744 57.0343C48.7629 56.9392 48.7532 56.8405 48.716 56.7509C48.6789 56.6612 48.616 56.5846 48.5353 56.5307C48.4547 56.4768 48.3598 56.448 48.2628 56.448C48.1327 56.448 48.0079 56.4997 47.9159 56.5917C47.8238 56.6837 47.7722 56.8085 47.7722 56.9386Z" fill="#E6E6E6"/>
<path d="M58.5569 60.244V64.9393H37.9619V60.244H58.5502H58.5569ZM58.6368 60.1597H37.882V65.0259H58.6435V60.1619L58.6368 60.1597Z" fill="#E0E0E0"/>
<path d="M47.7722 62.6039C47.7722 62.7009 47.8009 62.7958 47.8548 62.8765C47.9088 62.9572 47.9854 63.02 48.075 63.0572C48.1647 63.0943 48.2633 63.104 48.3585 63.0851C48.4537 63.0662 48.5411 63.0194 48.6097 62.9508C48.6783 62.8822 48.725 62.7948 48.744 62.6996C48.7629 62.6044 48.7532 62.5058 48.716 62.4161C48.6789 62.3265 48.616 62.2499 48.5353 62.196C48.4547 62.1421 48.3598 62.1133 48.2628 62.1133C48.1327 62.1133 48.0079 62.165 47.9159 62.257C47.8238 62.349 47.7722 62.4738 47.7722 62.6039Z" fill="#E6E6E6"/>
<path d="M58.5569 65.8983V70.5959H37.9619V65.8983H58.5502H58.5569ZM58.6368 65.8118H37.882V70.6802H58.6435V65.8118H58.6368Z" fill="#E0E0E0"/>
<path d="M47.7722 68.2472C47.7726 68.3442 47.8017 68.4388 47.8559 68.5192C47.9101 68.5996 47.9869 68.6621 48.0766 68.6989C48.1662 68.7357 48.2648 68.7451 48.3598 68.7259C48.4549 68.7067 48.5421 68.6599 48.6105 68.5911C48.6789 68.5224 48.7254 68.435 48.7441 68.3399C48.7629 68.2448 48.753 68.1463 48.7158 68.0568C48.6786 67.9672 48.6158 67.8907 48.5351 67.8369C48.4545 67.7831 48.3597 67.7544 48.2628 67.7544C48.1982 67.7544 48.1342 67.7672 48.0745 67.7919C48.0148 67.8167 47.9607 67.8531 47.9151 67.8989C47.8695 67.9447 47.8334 67.999 47.8089 68.0588C47.7843 68.1186 47.7719 68.1826 47.7722 68.2472Z" fill="#E6E6E6"/>
<path d="M34.9894 42.4731H30.1076V73.0869H34.9894V42.4731Z" fill="#E0E0E0"/>
<path d="M34.0614 73.0846H34.9893V70.4473H33.0912L34.0614 73.0846Z" fill="#FAFAFA"/>
<path d="M16.7454 42.4731H11.8636V73.0869H16.7454V42.4731Z" fill="#E0E0E0"/>
<path d="M34.9894 42.4731H15.9352V71.4686H34.9894V42.4731Z" fill="#FAFAFA"/>
<path d="M34.168 43.2901V49.8546H16.7566V43.2901H34.168ZM34.2702 43.1902H16.65V49.9501H34.2657V43.1924L34.2702 43.1902Z" fill="#E0E0E0"/>
<path d="M34.168 50.6558V68.0673H25.8741V50.6558H34.168ZM34.2701 50.5537H25.7742V68.1694H34.2701V50.5537Z" fill="#E0E0E0"/>
<path d="M25.0505 50.6558V68.0673H16.7566V50.6558H25.0505ZM25.1504 50.5537H16.65V68.1694H25.146V50.5537H25.1504Z" fill="#E0E0E0"/>
<path d="M16.8631 73.0846H15.9352V70.4473H17.8355L16.8631 73.0846Z" fill="#FAFAFA"/>
<path d="M24.9706 46.5758C24.9701 46.6734 24.9987 46.7689 25.0526 46.8502C25.1064 46.9316 25.1833 46.9951 25.2733 47.0327C25.3633 47.0704 25.4625 47.0805 25.5582 47.0617C25.654 47.0429 25.742 46.9962 25.8111 46.9273C25.8803 46.8585 25.9274 46.7707 25.9466 46.675C25.9658 46.5794 25.9562 46.4801 25.919 46.39C25.8817 46.2998 25.8186 46.2227 25.7375 46.1684C25.6564 46.1142 25.561 46.0852 25.4634 46.0852C25.3331 46.0852 25.2081 46.1368 25.1157 46.2288C25.0234 46.3207 24.9712 46.4455 24.9706 46.5758Z" fill="#E6E6E6"/>
<path d="M26.7288 58.9479C26.7288 59.0455 26.7577 59.1409 26.812 59.222C26.8662 59.3031 26.9433 59.3662 27.0335 59.4035C27.1237 59.4407 27.2229 59.4503 27.3186 59.4311C27.4142 59.4119 27.502 59.3648 27.5709 59.2956C27.6397 59.2265 27.6865 59.1385 27.7052 59.0427C27.724 58.947 27.7139 58.8478 27.6763 58.7578C27.6386 58.6678 27.5751 58.5909 27.4938 58.5371C27.4125 58.4832 27.317 58.4546 27.2194 58.4551C27.1548 58.4551 27.0908 58.4678 27.0311 58.4926C26.9714 58.5174 26.9173 58.5538 26.8717 58.5996C26.8261 58.6454 26.79 58.6997 26.7655 58.7595C26.7409 58.8193 26.7285 58.8833 26.7288 58.9479Z" fill="#E6E6E6"/>
<path d="M23.2145 58.9479C23.215 59.0449 23.2441 59.1395 23.2983 59.2199C23.3525 59.3003 23.4293 59.3628 23.5189 59.3996C23.6086 59.4364 23.7072 59.4458 23.8022 59.4266C23.8973 59.4074 23.9845 59.3605 24.0529 59.2918C24.1213 59.2231 24.1678 59.1357 24.1865 59.0406C24.2053 58.9455 24.1954 58.847 24.1582 58.7574C24.121 58.6679 24.0581 58.5914 23.9775 58.5376C23.8969 58.4838 23.8021 58.4551 23.7052 58.4551C23.6405 58.4551 23.5766 58.4678 23.5169 58.4926C23.4572 58.5174 23.403 58.5538 23.3575 58.5996C23.3119 58.6454 23.2758 58.6997 23.2513 58.7595C23.2267 58.8193 23.2143 58.8833 23.2145 58.9479Z" fill="#E6E6E6"/>
<path d="M22.6595 33.9373H20.6016C20.7912 34.9355 20.9107 35.9459 20.959 36.9609C20.959 38.0709 19.3917 42.4732 21.625 42.4732C23.8583 42.4732 22.291 38.082 22.291 36.9609C22.343 35.9456 22.4662 34.9353 22.6595 33.9373Z" fill="#E0E0E0"/>
<path d="M14.8296 38.4395V39.7715C14.8319 40.4855 15.1166 41.1697 15.6215 41.6746C16.1265 42.1795 16.8106 42.4642 17.5247 42.4665H18.8567C19.5707 42.4642 20.2549 42.1795 20.7598 41.6746C21.2647 41.1697 21.5494 40.4855 21.5517 39.7715V38.4395H14.8296Z" fill="#F5F5F5"/>
<path d="M43.4388 50.8958C43.4388 52.4498 45.177 53.7196 47.3016 53.7196H49.2197C51.3442 53.7196 53.0825 52.4498 53.0825 50.8958H43.4388Z" fill="#E0E0E0"/>
<path d="M94.2634 48.6178C93.1001 49.568 91.4928 51.3063 90.0232 53.7527C89.0419 55.3822 88.4514 57.0827 88.1917 59.3427C88.1917 56.7896 88.2072 54.0479 88.2161 51.4594C88.5114 50.7934 89.1862 49.2572 89.6702 48.0451C91.2841 43.998 91.8902 43.0012 93.3399 39.5114C95.2779 34.8494 97.2626 29.3305 96.6943 29.7723C95.5354 30.6714 91.0954 38.9853 90.6159 40.1752C89.3089 43.3507 88.5008 46.7093 88.2205 50.1319C88.2205 47.6899 88.2383 45.4699 88.2472 43.7472C88.2783 38.1283 88.3737 36.3146 88.4203 35.7552C88.6002 35.471 88.8111 35.1402 88.9354 34.9626C89.9788 33.453 90.3806 32.1699 91.3618 29.9188C92.756 26.7331 93.9548 21.0743 93.604 21.3585C92.1433 22.5484 90.9933 25.1014 89.4793 28.3581C87.9652 31.6149 88.3981 33.4863 88.0984 36.2658C88.0363 36.8119 87.9874 38.872 87.9519 41.7247C87.5612 38.6833 86.8242 36.6809 85.4811 34.8605C83.8294 32.6205 82.231 31.1087 81.0588 30.3184C79.8867 29.5281 83.0835 35.0292 84.6108 37.4224C85.9717 39.5625 87.226 41.4472 87.9408 43.3054C87.9031 47.1748 87.8853 52.0722 87.8853 56.6254C87.5346 54.5519 86.9618 52.3164 86.1981 50.587C85.279 48.5091 83.8671 45.3211 82.7416 44.24C82.473 43.9803 83.9182 50.1807 84.8461 51.8279C85.7741 53.4752 86.4556 55.0314 87.0395 55.966C87.1749 56.188 87.6278 57.025 87.8853 57.5089C87.8853 63.0745 87.9164 67.9851 87.9652 69.6568H88.205C88.1895 69.2261 88.185 66.3934 88.1917 62.646C88.7711 60.6125 90.0942 58.2904 91.1865 56.1725C92.3764 53.8792 95.4267 47.6743 94.2634 48.6178Z" fill="#E0E0E0"/>
<path d="M91.5617 73.0847H84.6042L84.0781 66.2649H92.0878L91.5617 73.0847Z" fill="#F0F0F0"/>
<path d="M92.6051 67.0595H83.5586L83.3011 64.7573H92.8648L92.6051 67.0595Z" fill="#F5F5F5"/>
<path d="M27.5857 4.55103H15.1426V18.2151H27.5857V4.55103Z" fill="#E0E0E0"/>
<path d="M28.9333 4.55103H16.0795V18.2151H28.9333V4.55103Z" fill="#F5F5F5"/>
<path d="M27.8566 17.1384V5.62769L17.1562 5.62769V17.1384H27.8566Z" fill="white"/>
<path d="M25.2614 14.3456V8.41602H19.7491V14.3456H25.2614Z" fill="#F5F5F5"/>
<path d="M91.0311 6.14282H79.4716V18.8368H91.0311V6.14282Z" fill="#E0E0E0"/>
<path d="M92.2832 6.14282H80.344V18.8368H92.2832V6.14282Z" fill="#F5F5F5"/>
<path d="M91.2842 17.8356V7.14404L81.3452 7.14404V17.8356H91.2842Z" fill="white"/>
<path d="M86.3136 15.5911C88.0264 15.5911 89.4149 14.2026 89.4149 12.4898C89.4149 10.7769 88.0264 9.38843 86.3136 9.38843C84.6008 9.38843 83.2122 10.7769 83.2122 12.4898C83.2122 14.2026 84.6008 15.5911 86.3136 15.5911Z" fill="#F5F5F5"/>
<path d="M40.5128 12.6985H31.282V22.835H40.5128V12.6985Z" fill="#E0E0E0"/>
<path d="M41.5118 12.6985H31.9769V22.835H41.5118V12.6985Z" fill="#F5F5F5"/>
<path d="M40.7126 22.0359V13.4978H32.7761V22.0359H40.7126Z" fill="white"/>
<path d="M36.7454 15.6067L34.5743 19.3674H38.9166L36.7454 15.6067Z" fill="#F5F5F5"/>
<path d="M55.4999 82.7082C79.2723 82.7082 98.5435 81.5831 98.5435 80.1952C98.5435 78.8073 79.2723 77.6821 55.4999 77.6821C31.7276 77.6821 12.4564 78.8073 12.4564 80.1952C12.4564 81.5831 31.7276 82.7082 55.4999 82.7082Z" fill="#F5F5F5"/>
<path d="M77.5335 24.0713L75.3313 23.1833C75.3313 23.1833 72.4253 28.4825 71.5928 28.7511C70.4606 29.1152 68.1163 30.1275 66.7265 30.3051C66.5378 30.5271 66.2293 31.2175 66.2581 31.4684C68.1251 32.0922 72.2277 31.2642 73.1068 30.6115C75.107 29.1307 77.5335 24.0713 77.5335 24.0713Z" fill="#E58A7B"/>
<path d="M78.2106 22.8659C78.6213 24.3821 76.3969 27.4324 76.3969 27.4324L73.482 25.7985C73.482 25.7985 74.0281 24.5442 74.6941 23.2677C75.7619 21.2053 77.7422 21.1365 78.2106 22.8659Z" fill="#407BFF"/>
<path opacity="0.2" d="M78.2106 22.8659C78.6213 24.3821 76.3969 27.4324 76.3969 27.4324L73.482 25.7985C73.482 25.7985 74.0281 24.5442 74.6941 23.2677C75.7619 21.2053 77.7422 21.1365 78.2106 22.8659Z" fill="black"/>
<path opacity="0.2" d="M74.6386 26.4514L75.7864 27.0952L75.9884 23.572C75.3202 24.0848 74.8495 25.63 74.6386 26.4514Z" fill="black"/>
<path d="M76.2925 21.7248C76.2925 21.7248 74.0237 26.7731 75.3468 36.1725H84.2867C84.4288 34.8006 83.9582 28.1051 85.6609 21.6404C84.6802 21.4487 83.688 21.3219 82.6906 21.2608C81.4255 21.1875 80.1572 21.1875 78.8921 21.2608C78.0152 21.3498 77.1462 21.5049 76.2925 21.7248Z" fill="#407BFF"/>
<path opacity="0.2" d="M76.2925 21.7248C76.2925 21.7248 74.0237 26.7731 75.3468 36.1725H84.2867C84.4288 34.8006 83.9582 28.1051 85.6609 21.6404C84.6802 21.4487 83.688 21.3219 82.6906 21.2608C81.4255 21.1875 80.1572 21.1875 78.8921 21.2608C78.0152 21.3498 77.1462 21.5049 76.2925 21.7248Z" fill="black"/>
<g style="mix-blend-mode:multiply">
<path d="M74.219 80.3948C74.2057 80.6346 77.5956 80.8277 81.7892 80.8277C85.9828 80.8277 89.3971 80.6346 89.4105 80.3948C89.4238 80.155 86.0361 79.9641 81.8403 79.9641C77.6445 79.9641 74.2345 80.1573 74.219 80.3948Z" fill="#E8ECF1"/>
</g>
<path d="M80.1865 74.0952L78.6009 74.709L79.9667 78.2374L81.5523 77.6236L80.1865 74.0952Z" fill="#E58A7B"/>
<path d="M87.2571 78.6876H85.5854L84.9727 74.8181H86.6444L87.2571 78.6876Z" fill="#E58A7B"/>
<path d="M85.47 78.4949H87.3481C87.3807 78.495 87.4122 78.5066 87.437 78.5278C87.4618 78.5489 87.4783 78.5782 87.4836 78.6103L87.7255 80.0955C87.7306 80.1328 87.7277 80.1707 87.7168 80.2067C87.7059 80.2427 87.6875 80.2759 87.6626 80.3042C87.6378 80.3324 87.6071 80.3549 87.5728 80.3702C87.5384 80.3856 87.5012 80.3933 87.4636 80.393C86.8087 80.3819 86.4935 80.3419 85.6676 80.3419C85.1592 80.3419 84.1136 80.3952 83.4076 80.3952C82.7017 80.3952 82.6551 79.7026 82.9459 79.6382C84.2512 79.3562 84.7574 78.9722 85.1925 78.5992C85.2692 78.5318 85.3679 78.4947 85.47 78.4949Z" fill="#263238"/>
<path d="M79.92 77.9221L81.696 77.4026C81.7277 77.3937 81.7615 77.3959 81.7918 77.4088C81.822 77.4217 81.847 77.4446 81.8625 77.4737L82.5285 78.8057C82.5439 78.8395 82.5519 78.8762 82.5516 78.9134C82.5514 78.9506 82.5431 78.9872 82.5272 79.0208C82.5114 79.0545 82.4884 79.0842 82.4598 79.108C82.4313 79.1318 82.3979 79.1491 82.362 79.1586C81.716 79.3362 81.2831 79.445 80.475 79.6804C79.9178 79.8424 79.3494 80.1066 78.7989 80.282C78.417 80.4041 77.5202 80.4085 77.0562 80.4085C76.3702 80.4085 76.217 79.6848 76.5123 79.6515C77.256 79.5693 77.3559 79.6071 77.7666 79.4006C78.4386 79.1069 79.0476 78.6863 79.5603 78.1619C79.657 78.0517 79.7811 77.969 79.92 77.9221Z" fill="#263238"/>
<path d="M67.0063 30.2962L65.1681 29.5259L64.4111 31.5638C65.1645 31.6786 65.931 31.6786 66.6844 31.5638L67.0063 30.2962Z" fill="#E58A7B"/>
<path d="M63.8006 29.4727L63.7517 30.8269L64.4111 31.5595L65.1681 29.5215L63.8006 29.4727Z" fill="#E58A7B"/>
<path d="M80.4041 74.395L78.8135 75.009L79.5179 76.8336L81.1085 76.2195L80.4041 74.395Z" fill="#CF6F64"/>
<path d="M86.6444 74.8181H84.9727L85.2902 76.8139H86.9618L86.6444 74.8181Z" fill="#CF6F64"/>
<path opacity="0.2" d="M75.0627 33.6306C75.096 34.0324 75.1337 34.4431 75.1825 34.8649L81.8292 32.7071C82.8672 32.3995 83.7693 31.7472 84.3867 30.8578C84.4133 30.2651 84.4466 29.6413 84.4977 28.9908C84.5199 28.6756 84.5465 28.3515 84.5754 28.0229C84.6042 27.6943 84.6442 27.3303 84.6864 26.9795L75.0627 33.6306Z" fill="black"/>
<path d="M77.2338 26.3489L77.0118 26.3223C77.1428 25.2123 77.9708 24.3376 78.8433 24.3598V24.5818C78.0796 24.5662 77.3514 25.3543 77.2338 26.3489Z" fill="white"/>
<path d="M78.417 28.398H78.3793V28.176C79.143 28.2048 79.86 27.4079 79.9777 26.4155L80.1997 26.4422C80.082 27.5277 79.2806 28.398 78.417 28.398Z" fill="white"/>
<path d="M82.5662 16.9829C82.2532 18.2061 81.8847 20.4461 82.6906 21.2609C82.6906 21.2609 82.1267 22.5018 79.8556 22.5018C77.7799 22.5018 78.8921 21.2609 78.8921 21.2609C80.273 20.9367 80.2974 19.9289 80.1154 18.9743L82.5662 16.9829Z" fill="#E58A7B"/>
<path d="M81.5672 17.7954L80.1176 18.9742C80.1625 19.1936 80.1885 19.4164 80.1953 19.6402C80.6193 20.062 81.4696 18.9942 81.5561 18.4481C81.6001 18.2331 81.6039 18.0118 81.5672 17.7954Z" fill="#CF6F64"/>
<path d="M77.6245 16.9672C77.7254 17.1421 77.8613 17.2942 78.0236 17.4141C78.1859 17.5341 78.3713 17.6192 78.568 17.6643C79.1008 17.782 79.3672 17.2913 79.2207 16.7985C79.0897 16.3545 78.6524 15.7573 78.1107 15.8594C77.9947 15.8833 77.8861 15.9347 77.794 16.0092C77.7019 16.0837 77.629 16.1792 77.5813 16.2877C77.5337 16.3962 77.5128 16.5145 77.5203 16.6327C77.5278 16.7509 77.5636 16.8656 77.6245 16.9672Z" fill="#CF6F64"/>
<path d="M78.5058 13.0536C77.6756 13.4332 77.3825 16.7321 78.4259 17.2205C79.4693 17.7089 80.0776 12.3321 78.5058 13.0536Z" fill="#263238"/>
<path d="M82.8193 15.1427C82.6195 16.7988 82.5973 17.7734 81.7093 18.6214C81.4341 18.9029 81.0866 19.1028 80.7049 19.1991C80.3233 19.2954 79.9225 19.2844 79.5467 19.1672C79.171 19.0501 78.8349 18.8314 78.5756 18.5353C78.3163 18.2392 78.1439 17.8772 78.0774 17.4892C77.8088 16.0018 78.1795 13.5443 79.8401 12.885C80.189 12.7311 80.5727 12.6733 80.9514 12.7176C81.3302 12.762 81.6902 12.9068 81.9941 13.1371C82.298 13.3674 82.5348 13.6749 82.6799 14.0275C82.825 14.3801 82.8731 14.7652 82.8193 15.1427Z" fill="#E58A7B"/>
<path d="M80.091 13.9104C81.3209 13.5974 82.2244 13.3843 81.9003 14.4077C81.4718 15.7752 80.9568 17.0983 81.6472 17.1583C82.069 17.196 83.9338 16.4057 83.6963 15.6043C83.4898 14.9072 84.3623 14.7163 84.5177 14.3633C85.0926 13.0846 83.4476 13.2533 83.7407 12.4763C84.0337 11.6993 82.4087 10.4472 81.5207 11.071C80.0754 12.0789 77.5957 12.0634 78.8988 10.405C79.8335 9.22177 78.1662 9.46375 78.1662 9.46375C78.1662 9.46375 79.1741 10.0609 77.478 10.9845C75.6843 11.9701 77.3293 14.6186 80.091 13.9104Z" fill="#263238"/>
<path d="M83.472 16.9672C83.2292 17.3185 82.8644 17.567 82.4486 17.6643C81.9003 17.782 81.6894 17.2913 81.8958 16.7985C82.0801 16.3545 82.5862 15.7573 83.1102 15.8594C83.6341 15.9616 83.754 16.5321 83.472 16.9672Z" fill="#E58A7B"/>
<path d="M75.3468 36.1724C75.3468 36.1724 73.8461 49.6034 73.7284 54.7005C73.6085 60.0018 78.8144 76.5431 78.8144 76.5431L81.4784 75.4331C81.4784 75.4331 78.3704 60.3193 78.8144 55.1134C79.2851 49.4369 81.2298 36.1812 81.2298 36.1812L75.3468 36.1724Z" fill="#407BFF"/>
<path opacity="0.2" d="M79.0764 39.8601C77.8798 42.342 78.6857 47.2504 79.3339 50.1586C79.5803 48.1051 79.8734 45.8763 80.1509 43.8139C80.1242 40.6437 79.8778 38.1951 79.0764 39.8601Z" fill="black"/>
<path d="M81.3608 74.5542C81.3741 74.5542 81.676 75.4022 81.676 75.4022L78.6035 76.6943L78.1196 75.793L81.3608 74.5542Z" fill="#407BFF"/>
<path d="M78.5192 36.1724C78.5192 36.1724 79.6669 48.9462 80.4261 53.7303C81.2609 58.9718 84.5331 76.4276 84.5331 76.4276H87.5945C87.5945 76.4276 85.7608 59.3958 85.4145 54.2054C85.0371 48.5755 84.2867 36.1724 84.2867 36.1724H78.5192Z" fill="#407BFF"/>
<path d="M87.6411 75.6309C87.6544 75.6309 87.7432 76.4856 87.7432 76.4856H84.3777L84.138 75.5044L87.6411 75.6309Z" fill="#407BFF"/>
<path opacity="0.2" d="M86.469 74.6187C86.462 74.6187 86.4553 74.6163 86.45 74.6118C86.4447 74.6074 86.4412 74.6011 86.4401 74.5942C86.4224 74.4388 84.7685 59.0542 84.4577 54.3922C84.1202 49.3351 83.4409 38.1174 83.4342 38.0042C83.4339 38.0005 83.4344 37.9968 83.4356 37.9933C83.4368 37.9898 83.4387 37.9866 83.4412 37.9839C83.4437 37.9812 83.4468 37.979 83.4501 37.9776C83.4535 37.9761 83.4572 37.9753 83.4609 37.9753C83.4682 37.9753 83.4752 37.9781 83.4805 37.983C83.4859 37.9879 83.4892 37.9947 83.4897 38.002C83.4897 38.1152 84.1757 49.324 84.5132 54.39C84.824 59.052 86.4779 74.4255 86.4934 74.592C86.494 74.5957 86.4939 74.5995 86.493 74.6031C86.4921 74.6067 86.4904 74.6101 86.4881 74.613C86.4858 74.6159 86.4829 74.6183 86.4796 74.6201C86.4763 74.6218 86.4727 74.6228 86.469 74.6231V74.6187Z" fill="black"/>
<path d="M80.2796 15.6041C80.2796 15.7395 80.1953 15.8483 80.1065 15.8483C80.0177 15.8483 79.9533 15.7395 79.9622 15.6041C79.9711 15.4686 80.0465 15.3599 80.1353 15.3599C80.2241 15.3599 80.2885 15.4709 80.2796 15.6041Z" fill="#263238"/>
<path d="M78.7567 15.6041C78.7567 15.7395 78.6701 15.8483 78.5836 15.8483C78.497 15.8483 78.4304 15.7395 78.437 15.6041C78.4437 15.4686 78.5236 15.3599 78.6124 15.3599C78.7012 15.3599 78.7656 15.4709 78.7567 15.6041Z" fill="#263238"/>
<path d="M79.2363 15.6731C79.0509 16.0866 78.8121 16.474 78.5258 16.8253C78.7478 17.0473 79.163 16.9452 79.163 16.9452L79.2363 15.6731Z" fill="#DF5753"/>
<path d="M79.2762 17.5114C79.2711 17.5114 79.266 17.5103 79.2612 17.5083C79.2565 17.5063 79.2522 17.5033 79.2487 17.4995C79.2452 17.4958 79.2424 17.4914 79.2407 17.4865C79.2389 17.4817 79.2382 17.4765 79.2385 17.4714C79.239 17.4606 79.2437 17.4504 79.2516 17.443C79.2594 17.4356 79.2698 17.4314 79.2806 17.4314C79.4504 17.4326 79.6183 17.3957 79.772 17.3235C79.9257 17.2513 80.0612 17.1456 80.1686 17.0141C80.1763 17.0074 80.1862 17.0037 80.1964 17.0037C80.2066 17.0037 80.2165 17.0074 80.2241 17.0141C80.2313 17.0215 80.2354 17.0315 80.2354 17.0418C80.2354 17.0522 80.2313 17.0621 80.2241 17.0696C80.1091 17.2093 79.9643 17.3215 79.8003 17.398C79.6362 17.4744 79.4572 17.5132 79.2762 17.5114Z" fill="#263238"/>
<path d="M80.5505 15.1959C80.5398 15.2014 80.528 15.2042 80.5161 15.2042C80.5041 15.2042 80.4923 15.2014 80.4816 15.1959C80.3986 15.1422 80.3041 15.1088 80.2057 15.0984C80.1074 15.088 80.008 15.1009 79.9156 15.136C79.9065 15.1405 79.8967 15.1431 79.8867 15.1438C79.8766 15.1444 79.8665 15.143 79.857 15.1397C79.8475 15.1364 79.8387 15.1312 79.8312 15.1245C79.8238 15.1177 79.8177 15.1096 79.8134 15.1004C79.8052 15.0807 79.805 15.0585 79.8129 15.0386C79.8207 15.0187 79.8361 15.0026 79.8556 14.9939C79.9717 14.9465 80.0975 14.9278 80.2223 14.9394C80.3471 14.951 80.4673 14.9925 80.5727 15.0605C80.5812 15.0663 80.5885 15.0737 80.5941 15.0823C80.5997 15.0909 80.6035 15.1006 80.6054 15.1107C80.6073 15.1208 80.6071 15.1312 80.6049 15.1413C80.6027 15.1513 80.5985 15.1608 80.5926 15.1693C80.5814 15.182 80.5668 15.1912 80.5505 15.1959Z" fill="#263238"/>
<path d="M78.1684 14.7517C78.1566 14.7489 78.1458 14.7427 78.1373 14.734C78.1299 14.7267 78.1241 14.7181 78.1201 14.7086C78.1161 14.699 78.114 14.6888 78.114 14.6785C78.114 14.6681 78.1161 14.6579 78.1201 14.6484C78.1241 14.6388 78.1299 14.6302 78.1373 14.623C78.2224 14.5275 78.3284 14.453 78.447 14.4053C78.5656 14.3575 78.6936 14.3378 78.8211 14.3477C78.8313 14.3493 78.8411 14.3529 78.8498 14.3584C78.8586 14.3639 78.8661 14.3712 78.8719 14.3797C78.8777 14.3882 78.8818 14.3979 78.8837 14.408C78.8857 14.4182 78.8855 14.4286 78.8832 14.4387C78.8785 14.4593 78.8664 14.4774 78.8492 14.4896C78.8321 14.5019 78.811 14.5075 78.79 14.5053C78.6891 14.499 78.5881 14.5156 78.4947 14.5541C78.4012 14.5926 78.3177 14.6518 78.2506 14.7273C78.2404 14.7385 78.2274 14.7468 78.2129 14.7511C78.1984 14.7554 78.183 14.7556 78.1684 14.7517Z" fill="#263238"/>
<path d="M86.5201 23.8249L84.2113 23.21C84.2113 23.21 81.9469 28.7844 81.1454 29.1462C80.0576 29.6435 77.3026 31.3662 76.1305 32.181C76.0661 32.4585 76.1171 33.1933 76.2637 33.3953C78.2617 33.0312 82.0867 31.5594 82.8859 30.8112C84.7085 29.1041 86.5201 23.8249 86.5201 23.8249Z" fill="#E58A7B"/>
<path d="M84.9083 78.7877C84.7956 78.7967 84.6834 78.766 84.5908 78.7012C84.5623 78.6753 84.5409 78.6425 84.5288 78.6059C84.5167 78.5693 84.5144 78.5302 84.522 78.4925C84.5234 78.4689 84.5312 78.4461 84.5445 78.4266C84.5578 78.407 84.5761 78.3915 84.5975 78.3815C84.784 78.286 85.3057 78.6168 85.3656 78.6545C85.3722 78.6586 85.3773 78.6647 85.3801 78.6719C85.3829 78.6791 85.3833 78.6871 85.3812 78.6945C85.3793 78.7022 85.3754 78.7094 85.37 78.7152C85.3645 78.721 85.3577 78.7254 85.3501 78.7278C85.2054 78.7634 85.0573 78.7835 84.9083 78.7877ZM84.6863 78.4414C84.6695 78.4377 84.6521 78.4377 84.6352 78.4414C84.6267 78.4457 84.6197 78.4525 84.6149 78.4607C84.6102 78.469 84.608 78.4785 84.6086 78.488C84.6027 78.5139 84.6037 78.5408 84.6115 78.5661C84.6193 78.5915 84.6336 78.6143 84.653 78.6323C84.7396 78.71 84.9571 78.7189 85.2435 78.6634C85.073 78.5511 84.881 78.4755 84.6796 78.4414H84.6863Z" fill="#407BFF"/>
<path d="M85.339 78.7278C85.3332 78.7297 85.327 78.7297 85.3212 78.7278C85.1547 78.6345 84.8417 78.2682 84.8883 78.0818C84.8953 78.0522 84.912 78.0258 84.9358 78.0069C84.9595 77.988 84.989 77.9776 85.0193 77.9774C85.0491 77.9734 85.0794 77.9759 85.1082 77.9848C85.1369 77.9936 85.1634 78.0085 85.1858 78.0285C85.3701 78.1861 85.3812 78.6701 85.3812 78.6945C85.3823 78.7018 85.3809 78.7092 85.3773 78.7157C85.3736 78.7221 85.368 78.7271 85.3612 78.73C85.3538 78.7315 85.346 78.7307 85.339 78.7278ZM85.0415 78.0507H85.026C84.9749 78.0507 84.9683 78.0795 84.966 78.0906C84.9394 78.1994 85.137 78.4769 85.3013 78.6079C85.3005 78.4204 85.2424 78.2376 85.1348 78.084C85.109 78.0615 85.0757 78.0496 85.0415 78.0507Z" fill="#407BFF"/>
<path d="M79.0142 78.5101C78.8784 78.5575 78.7305 78.5575 78.5947 78.5101C78.5638 78.4934 78.5377 78.4692 78.5187 78.4397C78.4996 78.4102 78.4884 78.3764 78.4859 78.3414C78.4831 78.3195 78.4859 78.2972 78.494 78.2766C78.5022 78.256 78.5154 78.2378 78.5325 78.2237C78.7101 78.0639 79.436 78.2238 79.5182 78.2548C79.526 78.2568 79.5329 78.2615 79.5377 78.2679C79.5426 78.2744 79.5451 78.2823 79.5448 78.2904C79.5452 78.2987 79.543 78.3069 79.5387 78.314C79.5343 78.3211 79.528 78.3268 79.5204 78.3303C79.3569 78.4041 79.1876 78.4643 79.0142 78.5101ZM78.6524 78.246C78.627 78.2511 78.6033 78.2625 78.5836 78.2792C78.5765 78.2845 78.5711 78.2917 78.5679 78.3C78.5648 78.3082 78.564 78.3172 78.5658 78.3259C78.5673 78.3492 78.5745 78.3717 78.5869 78.3915C78.5993 78.4113 78.6165 78.4276 78.6368 78.4391C78.7545 78.5012 79.0276 78.4524 79.3805 78.3037C79.1428 78.2437 78.8966 78.2242 78.6524 78.246Z" fill="#407BFF"/>
<path d="M79.5137 78.3305H79.496C79.274 78.2906 78.83 78.0353 78.8167 77.8443C78.8167 77.7999 78.8366 77.7378 78.9432 77.7023C78.9792 77.6894 79.0174 77.684 79.0555 77.6863C79.0937 77.6886 79.131 77.6985 79.1652 77.7156C79.405 77.8332 79.5315 78.2595 79.5382 78.2795C79.5397 78.2862 79.5395 78.2932 79.5376 78.2998C79.5356 78.3064 79.532 78.3124 79.5271 78.3172C79.5237 78.3226 79.5192 78.3272 79.5137 78.3305ZM78.9876 77.7689H78.9654C78.8966 77.7933 78.8966 77.8221 78.8966 77.831C78.8966 77.9465 79.2185 78.1574 79.4427 78.2284C79.3911 78.0501 79.2818 77.894 79.1319 77.7844C79.0873 77.7617 79.036 77.7562 78.9876 77.7689Z" fill="#407BFF"/>
<path d="M76.3192 32.05L74.0037 33.1156L73.7351 33.7816L74.5898 34.3566C74.5898 34.3566 76.1882 34.1835 76.6433 33.1556L76.3192 32.05Z" fill="#E58A7B"/>
<path d="M76.4169 33.4332C76.3651 32.9883 76.2182 32.5597 75.9862 32.1766L76.3525 31.9014C76.628 32.3428 76.8038 32.839 76.8675 33.3555L76.4169 33.4332Z" fill="#263238"/>
<path d="M76.812 32.3651C76.861 32.4421 76.885 32.5323 76.8809 32.6235C76.8768 32.7146 76.8447 32.8023 76.7889 32.8745C76.7332 32.9468 76.6566 33.0001 76.5695 33.0273C76.4824 33.0544 76.3891 33.0541 76.3022 33.0263C76.2153 32.9985 76.139 32.9446 76.0838 32.872C76.0286 32.7994 75.9971 32.7115 75.9937 32.6203C75.9902 32.5291 76.0149 32.4391 76.0644 32.3625C76.1139 32.2858 76.1858 32.2263 76.2703 32.192C76.3652 32.1436 76.4754 32.1347 76.5768 32.1671C76.6782 32.1996 76.7628 32.2707 76.812 32.3651Z" fill="#263238"/>
<path d="M72.4386 33.9768L72.7472 34.2876L74.8251 33.3996L74.0037 33.1155L72.4386 33.9768Z" fill="#E58A7B"/>
<path opacity="0.2" d="M81.3608 74.5542C81.3741 74.5542 81.676 75.4022 81.676 75.4022L78.6035 76.6943L78.1196 75.793L81.3608 74.5542Z" fill="black"/>
<path opacity="0.2" d="M87.6411 75.6309C87.6544 75.6309 87.7432 76.4856 87.7432 76.4856H84.3777L84.138 75.5044L87.6411 75.6309Z" fill="black"/>
<path d="M87.1217 23.1855C87.7322 25.1546 85.3457 27.8475 85.3457 27.8475L82.049 26.5022C82.4397 25.364 82.8903 24.2473 83.3987 23.1566C84.4111 20.9744 86.5045 21.1986 87.1217 23.1855Z" fill="#407BFF"/>
<path opacity="0.2" d="M87.1217 23.1855C87.7322 25.1546 85.3457 27.8475 85.3457 27.8475L82.049 26.5022C82.4397 25.364 82.8903 24.2473 83.3987 23.1566C84.4111 20.9744 86.5045 21.1986 87.1217 23.1855Z" fill="black"/>
<path d="M54.3633 3.4563H52.9448V3.68496H54.3633V3.4563Z" fill="#407BFF"/>
<path d="M72.7268 12.5066L72.5551 16.3167L72.7835 16.3269L72.9552 12.5169L72.7268 12.5066Z" fill="#407BFF"/>
<path d="M72.2854 4.48193H46.0894L43.6519 59.0318H69.8479L72.2854 4.48193Z" fill="#407BFF"/>
<path opacity="0.56" d="M71.504 5.23242H45.308L42.8704 59.7823H69.0664L71.504 5.23242Z" fill="#FAFAFA"/>
<path opacity="0.07" d="M70.7226 5.98047H44.5266L42.0868 60.5303H68.2828L70.7226 5.98047Z" fill="#407BFF"/>
<path d="M67.7411 29.7725H45.3812L45.1948 33.9461H67.5546L67.7411 29.7725Z" fill="white"/>
<path d="M57.6778 26.7266H45.5166L45.4345 28.5936H57.5957L57.6778 26.7266Z" fill="#407BFF"/>
<path d="M67.2372 41.0366H44.8773L44.6909 45.2102H67.0507L67.2372 41.0366Z" fill="white"/>
<path opacity="0.47" d="M63.1368 50.8469H48.1007L47.8765 55.8486H62.9126L63.1368 50.8469Z" fill="#407BFF"/>
<path d="M62.1311 56.6256H47.0951C47.0885 56.6273 47.0816 56.6273 47.0751 56.6256C47.0729 56.6191 47.0729 56.6121 47.0751 56.6056L47.2971 51.6017C47.2971 51.5983 47.2978 51.5949 47.2991 51.5918C47.3005 51.5887 47.3025 51.5859 47.305 51.5836C47.3075 51.5813 47.3105 51.5795 47.3137 51.5785C47.3169 51.5774 47.3203 51.577 47.3237 51.5773H62.3598C62.3625 51.5759 62.3656 51.5752 62.3687 51.5752C62.3717 51.5752 62.3748 51.5759 62.3775 51.5773C62.3791 51.58 62.3799 51.583 62.3799 51.5862C62.3799 51.5893 62.3791 51.5923 62.3775 51.595L62.16 56.61C62.1573 56.6152 62.1531 56.6195 62.148 56.6223C62.1428 56.6251 62.1369 56.6262 62.1311 56.6256ZM47.1217 56.5723H62.1045L62.3265 51.6217H47.3437L47.1217 56.5723Z" fill="white"/>
<path d="M55.0516 37.9907H45.0127L44.9306 39.86H54.9672L55.0516 37.9907Z" fill="#407BFF"/>
<path d="M62.8504 16.2904C62.7931 17.5051 62.3611 18.6722 61.6139 19.6315C61.0608 20.3562 60.349 20.9444 59.5331 21.3512C58.7173 21.758 57.8191 21.9724 56.9075 21.9781C56.1708 21.9837 55.4408 21.8384 54.7624 21.5512C54.084 21.264 53.4716 20.841 52.9629 20.3081C52.4542 19.7753 52.0599 19.1439 51.8045 18.453C51.549 17.762 51.4377 17.026 51.4774 16.2904C51.5555 14.7639 52.2137 13.325 53.3176 12.2677C54.4214 11.2105 55.8875 10.6149 57.4159 10.6028C58.1531 10.5959 58.8839 10.7403 59.5631 11.027C60.2424 11.3137 60.8556 11.7366 61.3649 12.2697C61.8742 12.8027 62.2688 13.4345 62.5244 14.1261C62.7799 14.8177 62.8908 15.5543 62.8504 16.2904Z" fill="white"/>
<path d="M63.3855 11.7926C63.371 12.1156 63.2561 12.426 63.0569 12.6806C62.9095 12.8731 62.7201 13.0293 62.5031 13.1374C62.2861 13.2456 62.0473 13.3027 61.8048 13.3044C61.5699 13.3059 61.3383 13.2498 61.1301 13.141C60.9219 13.0323 60.7435 12.8742 60.6105 12.6806C60.4343 12.419 60.3471 12.1076 60.3618 11.7926C60.3833 11.3873 60.5585 11.0055 60.8518 10.725C61.1451 10.4445 61.5344 10.2864 61.9402 10.283C62.136 10.2812 62.3301 10.3196 62.5105 10.3956C62.6909 10.4717 62.8539 10.5839 62.9893 10.7253C63.1247 10.8668 63.2297 11.0344 63.2978 11.218C63.3659 11.4015 63.3958 11.5971 63.3855 11.7926Z" fill="#407BFF"/>
<path d="M47.7899 31.8591C47.7793 32.038 47.7012 32.2062 47.5714 32.3298C47.4416 32.4534 47.2698 32.5232 47.0906 32.5251C47.0041 32.5262 46.9183 32.5094 46.8385 32.476C46.7587 32.4425 46.6866 32.3931 46.6267 32.3306C46.5667 32.2682 46.5202 32.1942 46.4901 32.1131C46.4599 32.032 46.4467 31.9455 46.4513 31.8591C46.4609 31.6799 46.5387 31.5111 46.6686 31.3873C46.7986 31.2635 46.971 31.194 47.1506 31.1931C47.237 31.1924 47.3227 31.2094 47.4023 31.2429C47.482 31.2765 47.5539 31.326 47.6138 31.3883C47.6736 31.4507 47.7201 31.5246 47.7504 31.6056C47.7807 31.6865 47.7942 31.7728 47.7899 31.8591Z" fill="#263238"/>
<path d="M50.7825 31.8592C50.7724 32.0382 50.6944 32.2067 50.5646 32.3304C50.4347 32.4541 50.2626 32.5238 50.0832 32.5252C49.9969 32.5259 49.9113 32.5089 49.8318 32.4753C49.7522 32.4418 49.6804 32.3922 49.6207 32.3299C49.561 32.2675 49.5147 32.1935 49.4847 32.1126C49.4547 32.0316 49.4415 31.9454 49.4461 31.8592C49.4557 31.6803 49.5331 31.5118 49.6627 31.388C49.7922 31.2643 49.964 31.1946 50.1431 31.1932C50.2297 31.1921 50.3155 31.2089 50.3953 31.2423C50.4751 31.2758 50.5472 31.3252 50.6071 31.3877C50.667 31.4501 50.7135 31.5241 50.7437 31.6052C50.7739 31.6863 50.7871 31.7728 50.7825 31.8592Z" fill="#263238"/>
<path d="M53.7773 31.8592C53.7671 32.0382 53.6892 32.2067 53.5593 32.3304C53.4294 32.4541 53.2573 32.5238 53.078 32.5252C52.9916 32.5259 52.9059 32.5089 52.8262 32.4754C52.7466 32.4418 52.6746 32.3923 52.6148 32.33C52.5549 32.2676 52.5084 32.1937 52.4781 32.1127C52.4478 32.0318 52.4344 31.9455 52.4386 31.8592C52.4488 31.6801 52.5267 31.5116 52.6566 31.3879C52.7865 31.2642 52.9586 31.1946 53.1379 31.1932C53.2245 31.1921 53.3103 31.2089 53.3901 31.2423C53.4699 31.2758 53.542 31.3252 53.6019 31.3877C53.6618 31.4501 53.7083 31.5241 53.7385 31.6052C53.7686 31.6863 53.7818 31.7728 53.7773 31.8592Z" fill="#263238"/>
<path d="M47.286 43.1233C47.2754 43.3022 47.1973 43.4704 47.0675 43.594C46.9377 43.7176 46.7659 43.7874 46.5867 43.7893C46.5003 43.79 46.4146 43.7731 46.335 43.7395C46.2553 43.7059 46.1833 43.6565 46.1235 43.5941C46.0636 43.5317 46.0171 43.4578 45.9868 43.3769C45.9566 43.2959 45.9431 43.2096 45.9474 43.1233C45.9575 42.9442 46.0354 42.7757 46.1653 42.652C46.2952 42.5283 46.4673 42.4587 46.6467 42.4573C46.7331 42.4566 46.8188 42.4735 46.8984 42.5071C46.9781 42.5407 47.05 42.5901 47.1099 42.6525C47.1697 42.7148 47.2162 42.7888 47.2465 42.8697C47.2768 42.9507 47.2903 43.037 47.286 43.1233Z" fill="#263238"/>
<path d="M50.2786 43.1233C50.2685 43.302 50.1909 43.4702 50.0615 43.5938C49.932 43.7175 49.7605 43.7873 49.5815 43.7893C49.495 43.7903 49.4092 43.7736 49.3294 43.7401C49.2496 43.7067 49.1775 43.6572 49.1176 43.5948C49.0576 43.5324 49.0112 43.4583 48.981 43.3772C48.9508 43.2961 48.9376 43.2097 48.9422 43.1233C48.9523 42.9442 49.0302 42.7757 49.1601 42.652C49.29 42.5283 49.4621 42.4587 49.6415 42.4573C49.7278 42.4566 49.8134 42.4735 49.8929 42.5071C49.9725 42.5407 50.0443 42.5902 50.104 42.6526C50.1636 42.715 50.2099 42.7889 50.24 42.8699C50.27 42.9508 50.2831 43.0371 50.2786 43.1233Z" fill="#263238"/>
<path d="M53.28 43.1233C53.2699 43.3024 53.192 43.4709 53.0621 43.5946C52.9322 43.7183 52.7601 43.7879 52.5808 43.7893C52.4944 43.7897 52.4089 43.7725 52.3294 43.7389C52.2499 43.7052 52.178 43.6557 52.1183 43.5934C52.0585 43.5311 52.0119 43.4573 51.9815 43.3765C51.9511 43.2957 51.9375 43.2096 51.9414 43.1233C51.9521 42.9444 52.0301 42.7762 52.1599 42.6526C52.2897 42.529 52.4615 42.4592 52.6407 42.4573C52.7272 42.4563 52.813 42.473 52.8928 42.5065C52.9726 42.5399 53.0447 42.5894 53.1047 42.6518C53.1646 42.7142 53.2111 42.7883 53.2412 42.8694C53.2714 42.9505 53.2846 43.0369 53.28 43.1233Z" fill="#263238"/>
<path d="M56.2682 43.1233C56.2575 43.3022 56.1794 43.4704 56.0496 43.594C55.9199 43.7176 55.748 43.7874 55.5688 43.7893C55.4825 43.7897 55.397 43.7725 55.3175 43.7388C55.238 43.7052 55.1661 43.6557 55.1063 43.5934C55.0466 43.5311 55 43.4573 54.9696 43.3765C54.9392 43.2957 54.9256 43.2096 54.9295 43.1233C54.9402 42.9444 55.0182 42.7762 55.148 42.6526C55.2778 42.529 55.4496 42.4592 55.6288 42.4573C55.7152 42.4566 55.8009 42.4735 55.8805 42.5071C55.9602 42.5407 56.0322 42.5901 56.092 42.6525C56.1519 42.7148 56.1984 42.7888 56.2287 42.8697C56.2589 42.9507 56.2724 43.037 56.2682 43.1233Z" fill="#263238"/>
<path d="M59.274 43.1233C59.2633 43.3022 59.1852 43.4704 59.0555 43.594C58.9257 43.7176 58.7539 43.7874 58.5747 43.7893C58.4882 43.7903 58.4023 43.7736 58.3225 43.7401C58.2427 43.7067 58.1706 43.6572 58.1107 43.5948C58.0508 43.5324 58.0043 43.4583 57.9741 43.3772C57.944 43.2961 57.9308 43.2097 57.9353 43.1233C57.9455 42.9442 58.0234 42.7757 58.1533 42.652C58.2832 42.5283 58.4553 42.4587 58.6346 42.4573C58.7211 42.4566 58.8067 42.4735 58.8864 42.5071C58.966 42.5407 59.038 42.5901 59.0979 42.6525C59.1577 42.7148 59.2042 42.7888 59.2345 42.8697C59.2648 42.9507 59.2782 43.037 59.274 43.1233Z" fill="#263238"/>
<path d="M58.8196 15.994C59.7488 15.0853 59.7981 13.6289 58.9298 12.7409C58.0614 11.8529 56.6042 11.8697 55.675 12.7783C54.7458 13.687 54.6965 15.1434 55.5649 16.0314C56.4332 16.9194 57.8905 16.9027 58.8196 15.994Z" fill="#407BFF"/>
<path d="M61.6139 19.6312C61.0607 20.3559 60.3489 20.9441 59.5331 21.3509C58.7173 21.7577 57.8191 21.9721 56.9075 21.9778C56.0235 21.9853 55.1512 21.7751 54.3676 21.3659C53.584 20.9567 52.9132 20.361 52.4142 19.6312C53.4931 18.5567 55.2003 17.8552 57.0917 17.8552C58.9832 17.8552 60.6304 18.5567 61.6139 19.6312Z" fill="#407BFF"/>
<path opacity="0.1" d="M58.8196 15.994C59.7488 15.0853 59.7981 13.6289 58.9298 12.7409C58.0614 11.8529 56.6042 11.8697 55.675 12.7783C54.7458 13.687 54.6965 15.1434 55.5649 16.0314C56.4332 16.9194 57.8905 16.9027 58.8196 15.994Z" fill="white"/>
<path opacity="0.1" d="M61.6139 19.6312C61.0607 20.3559 60.3489 20.9441 59.5331 21.3509C58.7173 21.7577 57.8191 21.9721 56.9075 21.9778C56.0235 21.9853 55.1512 21.7751 54.3676 21.3659C53.584 20.9567 52.9132 20.361 52.4142 19.6312C53.4931 18.5567 55.2003 17.8552 57.0917 17.8552C58.9832 17.8552 60.6304 18.5567 61.6139 19.6312Z" fill="white"/>
<path d="M28.951 34.9518C28.7401 35.4135 28.5181 35.9219 28.3249 36.4147C28.1318 36.9076 27.9342 37.416 27.7633 37.9221C27.4142 38.9196 27.1484 39.9443 26.9685 40.9857L26.9197 41.3121C26.915 41.368 26.9203 41.4244 26.9352 41.4786C26.9876 41.6626 27.0701 41.8366 27.1794 41.9936C27.4645 42.4 27.7952 42.7725 28.1651 43.1036C28.555 43.4663 28.9641 43.808 29.3905 44.127C29.8168 44.4556 30.2652 44.7753 30.707 45.0772L30.2918 45.8564C29.2369 45.3968 28.2356 44.8228 27.3059 44.1448C26.8099 43.783 26.3623 43.3593 25.9739 42.8838C25.7437 42.6008 25.5642 42.2801 25.4434 41.9359C25.3731 41.7209 25.3371 41.4961 25.3368 41.2699C25.3368 41.2166 25.3368 41.1389 25.3368 41.1012V40.9924L25.359 40.7704C25.4863 39.6138 25.7295 38.4729 26.0849 37.3649C26.2581 36.8188 26.4424 36.2749 26.6533 35.7443C26.8642 35.2137 27.0817 34.6942 27.3503 34.1548L28.951 34.9518Z" fill="#E58A7B"/>
<path d="M30.394 44.9395L31.9635 44.1448L31.5573 45.8675C31.5573 45.8675 30.4806 46.1694 29.9811 45.6455L30.394 44.9395Z" fill="#E58A7B"/>
<path d="M33.3999 44.4267L32.9826 45.852L31.5573 45.8675L31.9636 44.1448L33.3999 44.4267Z" fill="#E58A7B"/>
<path d="M35.6155 26.6399C35.6994 26.9476 35.8163 27.2453 35.964 27.5279C35.9208 27.5768 35.8653 27.6132 35.8031 27.6331C35.741 27.6531 35.6746 27.6558 35.611 27.6411L35.6155 26.6399Z" fill="#DF5753"/>
<path d="M35.5688 26.6532C35.6608 26.6532 35.7353 26.5389 35.7353 26.3979C35.7353 26.2569 35.6608 26.1426 35.5688 26.1426C35.4769 26.1426 35.4023 26.2569 35.4023 26.3979C35.4023 26.5389 35.4769 26.6532 35.5688 26.6532Z" fill="#263238"/>
<path d="M35.52 26.1516L35.8575 26.0562C35.8575 26.0562 35.6932 26.3181 35.52 26.1516Z" fill="#263238"/>
<path d="M31.2798 28.2695C31.4818 29.3018 31.6839 31.1955 30.9601 31.8859C30.9601 31.8859 31.2443 32.9338 33.1646 32.9338C35.2758 32.9338 34.1725 31.8859 34.1725 31.8859C33.0203 31.6106 33.0492 30.7559 33.2512 29.9523L31.2798 28.2695Z" fill="#E58A7B"/>
<path d="M30.7182 25.9163C30.8247 27.6413 30.8336 28.3739 31.7039 29.2596C33.0159 30.5916 35.1116 30.0855 35.5223 28.3716C35.893 26.8176 35.6577 24.2602 33.9683 23.5742C33.5974 23.4214 33.1937 23.3658 32.7954 23.4126C32.3971 23.4593 32.0172 23.6069 31.6919 23.8414C31.3665 24.0759 31.1063 24.3895 30.9359 24.7526C30.7655 25.1156 30.6906 25.5162 30.7182 25.9163Z" fill="#E58A7B"/>
<path d="M30.8891 23.9762C30.0233 24.2914 28.8689 24.0561 29.3218 26.7267C29.8013 29.555 29.0643 30.4852 29.0643 30.4852C29.0643 30.4852 32.3476 31.1845 35.6998 30.443C35.6998 30.443 34.6764 28.6537 34.9628 27.335C35.3291 25.67 35.0405 25.0551 35.0405 25.0551C35.0405 25.0551 32.1057 23.5322 30.8891 23.9762Z" fill="#263238"/>
<path d="M34.5521 26.8155C34.553 27.1434 34.6469 27.4644 34.823 27.7412C35.0583 28.1008 35.3358 27.9632 35.4046 27.5814C35.4668 27.2461 35.4201 26.6534 35.1204 26.4225C34.8207 26.1916 34.5566 26.4181 34.5521 26.8155Z" fill="#E58A7B"/>
<path d="M30.1365 24.2667C29.8879 23.5674 31.0734 22.4907 33.582 22.9347C36.0906 23.3787 36.1993 25.4677 36.1993 25.4677L35.6932 24.8639L35.7154 25.4988L33.138 25.9939L30.1365 24.2667Z" fill="#263238"/>
<path d="M30.3496 32.0035C30.3348 31.9022 30.3601 31.799 30.4203 31.7161C30.4804 31.6331 30.5705 31.577 30.6715 31.5595C31.4529 31.4308 33.2289 31.1688 34.1214 31.2931C34.7874 31.3864 34.9605 31.7726 34.9894 32.0901C34.9939 32.1457 34.9865 32.2016 34.9676 32.2541C34.9487 32.3066 34.9188 32.3544 34.8799 32.3943C34.841 32.4343 34.794 32.4655 34.742 32.4857C34.6901 32.506 34.6344 32.5149 34.5787 32.5119L30.7203 32.3387C30.6294 32.3342 30.5428 32.2983 30.4752 32.2372C30.4077 32.1761 30.3633 32.0936 30.3496 32.0035Z" fill="#407BFF"/>
<path opacity="0.6" d="M30.3496 32.0035C30.3348 31.9022 30.3601 31.799 30.4203 31.7161C30.4804 31.6331 30.5705 31.577 30.6715 31.5595C31.4529 31.4308 33.2289 31.1688 34.1214 31.2931C34.7874 31.3864 34.9605 31.7726 34.9894 32.0901C34.9939 32.1457 34.9865 32.2016 34.9676 32.2541C34.9487 32.3066 34.9188 32.3544 34.8799 32.3943C34.841 32.4343 34.794 32.4655 34.742 32.4857C34.6901 32.506 34.6344 32.5149 34.5787 32.5119L30.7203 32.3387C30.6294 32.3342 30.5428 32.2983 30.4752 32.2372C30.4077 32.1761 30.3633 32.0936 30.3496 32.0035Z" fill="black"/>
<path d="M32.5807 70.7869L34.0126 71.7815L36.408 68.5336L34.9761 67.5413L32.5807 70.7869Z" fill="#E58A7B"/>
<path d="M29.2419 70.7224L30.7537 71.5838L32.8738 68.1494L31.362 67.2881L29.2419 70.7224Z" fill="#E58A7B"/>
<path d="M36.4058 68.5336L35.1715 70.2075L33.7396 69.2151L34.9739 67.5413L36.4058 68.5336Z" fill="#CF6F64"/>
<path d="M31.3597 67.2881L32.8737 68.1517L31.7815 69.921L30.2675 69.0574L31.3597 67.2881Z" fill="#CF6F64"/>
<path d="M33.7884 42.8459C33.7884 42.8459 39.3784 49.89 38.3283 56.6277C37.4825 62.0689 32.5763 69.4371 32.5763 69.4371L30.2697 68.2916C31.8955 65.0338 33.283 61.6624 34.4211 58.2039C34.7721 57.1302 34.8745 55.9907 34.7207 54.8716C34.5669 53.7525 34.1608 52.6829 33.5331 51.7437C30.7004 47.6078 26.1627 50.0698 29.2152 42.8459H33.7884Z" fill="#407BFF"/>
<path opacity="0.6" d="M33.7884 42.8459C33.7884 42.8459 39.3784 49.89 38.3283 56.6277C37.4825 62.0689 32.5763 69.4371 32.5763 69.4371L30.2697 68.2916C31.8955 65.0338 33.283 61.6624 34.4211 58.2039C34.7721 57.1302 34.8745 55.9907 34.7207 54.8716C34.5669 53.7525 34.1608 52.6829 33.5331 51.7437C30.7004 47.6078 26.1627 50.0698 29.2152 42.8459H33.7884Z" fill="black"/>
<path opacity="0.4" d="M36.5301 47.3703L35.7176 46.5623C35.7176 46.6266 37.2916 56.3436 37.7334 59.0742C37.9941 58.2765 38.1937 57.4601 38.3305 56.6322C38.85 53.3266 37.7644 49.95 36.5301 47.3703Z" fill="black"/>
<path d="M36.2837 42.8459C36.2837 42.8459 43.0147 51.6993 43.2056 57.0073C43.3632 61.4473 35.8796 70.0498 35.8796 70.0498L33.704 68.6423C33.704 68.6423 38.0841 62.5329 39.1874 57.5423C38.7612 52.5962 29.748 42.8459 29.748 42.8459H36.2837Z" fill="#407BFF"/>
<path opacity="0.6" d="M36.2837 42.8459C36.2837 42.8459 43.0147 51.6993 43.2056 57.0073C43.3632 61.4473 35.8796 70.0498 35.8796 70.0498L33.704 68.6423C33.704 68.6423 38.0841 62.5329 39.1874 57.5423C38.7612 52.5962 29.748 42.8459 29.748 42.8459H36.2837Z" fill="black"/>
<path d="M27.9564 32.281C27.2371 32.452 26.5467 35.0671 26.5467 35.0671L29.3594 36.9453C29.3594 36.9453 30.2963 34.8762 29.9677 33.9705C29.6281 33.027 28.8599 32.0657 27.9564 32.281Z" fill="#407BFF"/>
<path opacity="0.2" d="M28.5071 33.9658L28.3117 36.2458L29.3573 36.9473C29.646 36.2973 29.8598 35.6166 29.9945 34.9182L28.5071 33.9658Z" fill="black"/>
<path d="M37.1162 32.3321C37.1162 32.3321 37.9465 32.6229 36.2837 42.8438H29.2108C29.3307 39.9578 29.3329 38.1818 27.9565 32.281C28.9468 32.0769 29.9507 31.9449 30.9601 31.8859C32.0296 31.8092 33.1031 31.8092 34.1725 31.8859C35.5533 32.0124 37.1162 32.3321 37.1162 32.3321Z" fill="#407BFF"/>
<path d="M37.8354 33.9661C37.9952 34.4101 38.164 34.8874 38.3416 35.3469C38.5192 35.8065 38.6879 36.2793 38.8677 36.7455L39.4116 38.1397L39.5492 38.4882L39.6203 38.6614L39.6536 38.748C39.6536 38.7635 39.6536 38.7635 39.6536 38.7613C39.613 38.7041 39.5599 38.657 39.4982 38.6236C39.4104 38.572 39.3114 38.5423 39.2096 38.5371C39.125 38.5344 39.0409 38.5503 38.9632 38.5837C38.861 38.6303 38.861 38.6503 38.8633 38.6481C38.8817 38.6333 38.8981 38.6161 38.9121 38.597C39.035 38.4357 39.1414 38.2624 39.2296 38.0797C39.3339 37.8755 39.4338 37.6579 39.5337 37.4382C39.7291 36.9942 39.9089 36.5346 40.0887 36.0706C40.2685 35.6067 40.4395 35.1382 40.606 34.6654L41.1121 33.249L41.9668 33.471C41.7981 34.4833 41.5805 35.469 41.3186 36.4725C41.192 36.972 41.0433 37.467 40.8746 37.9665C40.7902 38.2174 40.697 38.466 40.5904 38.7213C40.4794 38.9984 40.3426 39.2645 40.1819 39.5161C40.1229 39.6008 40.0576 39.6809 39.9866 39.7558C39.8732 39.8783 39.7356 39.9758 39.5825 40.0422C39.4467 40.1005 39.2996 40.1278 39.1519 40.1221C38.9864 40.116 38.8252 40.0679 38.6834 39.9823C38.5162 39.8779 38.3774 39.7338 38.2794 39.5627C38.2461 39.505 38.2172 39.4473 38.1973 39.4051L38.1551 39.3207L38.0707 39.1476L37.902 38.8035C37.68 38.3417 37.458 37.8755 37.2649 37.4071C37.0717 36.9387 36.8675 36.4636 36.6766 35.9863C36.4856 35.509 36.3147 35.0317 36.1526 34.5166L37.8354 33.9661Z" fill="#E58A7B"/>
<path d="M37.1162 32.3319C37.9664 32.5339 38.9233 35.047 38.9233 35.047L36.3947 37.1981C36.3947 37.1981 34.7585 34.4587 35.0893 33.5551C35.4334 32.6138 36.0062 32.0677 37.1162 32.3319Z" fill="#407BFF"/>
<path d="M41.514 32.4541L42.402 31.7126L43.0191 32.6739L42.564 33.4753C42.564 33.4753 41.8403 34.1413 41.201 33.8017C41.0995 33.5736 41.0751 33.3186 41.1316 33.0754C41.1881 32.8323 41.3224 32.6141 41.514 32.4541Z" fill="#E58A7B"/>
<path d="M44.0048 31.7149L43.9382 31.9568L42.533 32.1922L42.3953 31.7126L44.0048 31.7149Z" fill="#E58A7B"/>
<path d="M36.0528 70.1631L33.5176 68.5247L33.9727 67.7344L36.8209 69.486L36.0528 70.1631Z" fill="#407BFF"/>
<path d="M31.746 71.4684C31.5236 71.4412 31.3098 71.3654 31.12 71.2464C31.1121 71.2437 31.1053 71.2386 31.1005 71.2318C31.0957 71.2251 31.0931 71.217 31.0931 71.2087C31.0931 71.2004 31.0957 71.1923 31.1005 71.1855C31.1053 71.1788 31.1121 71.1737 31.12 71.1709C31.1888 71.1487 31.786 70.9645 31.9591 71.1066C31.9786 71.1227 31.9934 71.1438 32.002 71.1676C32.0106 71.1914 32.0126 71.2171 32.008 71.242C32.0049 71.2819 31.9916 71.3205 31.9695 71.3539C31.9473 71.3873 31.917 71.4145 31.8814 71.4329C31.8399 71.4556 31.7934 71.4678 31.746 71.4684ZM31.2465 71.2242C31.524 71.3663 31.746 71.4174 31.8526 71.3641C31.8758 71.3512 31.8953 71.3326 31.9093 71.3101C31.9233 71.2876 31.9313 71.2618 31.9325 71.2353C31.9325 71.1998 31.9325 71.1843 31.9125 71.1754C31.8193 71.0999 31.4863 71.1576 31.2421 71.2242H31.2465Z" fill="#263238"/>
<path d="M31.1355 71.2622C31.1238 71.262 31.1127 71.2572 31.1045 71.2488C31.1012 71.2427 31.0994 71.2358 31.0994 71.2289C31.0994 71.2219 31.1012 71.215 31.1045 71.2089C31.1045 71.1889 31.2488 70.7072 31.4752 70.5984C31.5041 70.5852 31.5355 70.5784 31.5673 70.5784C31.5991 70.5784 31.6305 70.5852 31.6595 70.5984C31.6906 70.6082 31.7176 70.6282 31.7361 70.6552C31.7546 70.6821 31.7636 70.7145 31.7616 70.7471C31.746 70.9469 31.3398 71.2222 31.1533 71.2688L31.1355 71.2622ZM31.5662 70.6561C31.5446 70.6568 31.5234 70.6621 31.5041 70.6716C31.3664 70.7382 31.2532 70.998 31.1977 71.1556C31.3931 71.0735 31.6617 70.8559 31.6706 70.7338C31.6706 70.7138 31.6706 70.6894 31.6195 70.6672C31.6029 70.6583 31.5849 70.6523 31.5662 70.6494V70.6561Z" fill="#263238"/>
<path d="M34.914 72.4275C34.6631 72.4275 34.3146 72.1056 34.1237 71.908C34.1188 71.9012 34.1161 71.893 34.1161 71.8847C34.1161 71.8763 34.1188 71.8682 34.1237 71.8614C34.128 71.8542 34.1343 71.8484 34.1417 71.8445C34.1491 71.8406 34.1575 71.8387 34.1658 71.8392C34.2546 71.8392 35.025 71.9546 35.1338 72.1722C35.1453 72.1917 35.1514 72.2139 35.1514 72.2366C35.1514 72.2592 35.1453 72.2814 35.1338 72.3009C35.1174 72.3348 35.0928 72.364 35.0621 72.3857C35.0314 72.4075 34.9957 72.4211 34.9584 72.4253L34.914 72.4275ZM34.2702 71.9391C34.5499 72.2099 34.7963 72.3609 34.9362 72.3431C34.9607 72.3399 34.984 72.3307 35.0041 72.3164C35.0243 72.3021 35.0406 72.2831 35.0516 72.261C35.0566 72.2534 35.0592 72.2445 35.0592 72.2354C35.0592 72.2264 35.0566 72.2175 35.0516 72.2099C34.9939 72.09 34.5832 71.9879 34.2702 71.9391Z" fill="#263238"/>
<path d="M34.2945 71.928C34.2447 71.9294 34.1949 71.9257 34.1458 71.9169C34.139 71.9158 34.1325 71.913 34.127 71.9088C34.1216 71.9045 34.1173 71.8989 34.1147 71.8924C34.1114 71.8859 34.1097 71.8787 34.1097 71.8713C34.1097 71.864 34.1114 71.8568 34.1147 71.8503C34.128 71.8347 34.4277 71.4729 34.7119 71.4484C34.7923 71.4422 34.872 71.4677 34.9339 71.5195C35.0205 71.595 35.016 71.6616 34.9938 71.7037C34.9383 71.8547 34.5543 71.928 34.2945 71.928ZM34.2368 71.8458C34.4855 71.8591 34.8828 71.777 34.9339 71.6682C34.9339 71.6682 34.9517 71.6327 34.8939 71.5839C34.871 71.5639 34.8441 71.5488 34.8151 71.5397C34.7861 71.5305 34.7555 71.5274 34.7252 71.5306C34.5338 71.584 34.3634 71.6948 34.2368 71.848V71.8458Z" fill="#263238"/>
<path d="M31.1954 71.0224L29.3129 70.4896C29.2804 70.4797 29.2455 70.4822 29.2147 70.4966C29.184 70.5109 29.1597 70.5361 29.1464 70.5673L28.5114 71.9947C28.4965 72.0313 28.4895 72.0706 28.4909 72.11C28.4923 72.1495 28.502 72.1882 28.5194 72.2237C28.5368 72.2591 28.5615 72.2904 28.5919 72.3157C28.6223 72.3409 28.6576 72.3593 28.6957 72.3699C29.3617 72.5431 29.6814 72.5919 30.5094 72.8294C31.02 72.9715 31.7482 73.2357 32.4519 73.4355C33.1557 73.6353 33.391 72.9493 33.1179 72.8028C31.8836 72.1501 31.7859 71.6928 31.4485 71.2044C31.3881 71.1159 31.2985 71.0515 31.1954 71.0224Z" fill="#407BFF"/>
<path d="M34.1747 71.6483L32.5674 70.5383C32.5402 70.5185 32.5066 70.5093 32.473 70.5126C32.4395 70.5159 32.4083 70.5314 32.3854 70.5561L31.3198 71.7016C31.2938 71.7312 31.2745 71.766 31.263 71.8037C31.2515 71.8414 31.2482 71.8811 31.2532 71.9201C31.2582 71.9592 31.2715 71.9967 31.2922 72.0302C31.3129 72.0638 31.3404 72.0925 31.3731 72.1145C31.9392 72.4942 32.2322 72.6473 32.9404 73.138C33.3844 73.4399 34.2435 74.1103 34.8429 74.5277C35.4423 74.945 35.8885 74.3723 35.6754 74.1458C34.7208 73.1269 34.5121 72.4875 34.3545 71.9081C34.3272 71.803 34.2635 71.711 34.1747 71.6483Z" fill="#407BFF"/>
<path d="M32.8715 69.5836L29.9744 68.1428L30.2741 67.3569L33.3688 68.8754L32.8715 69.5836Z" fill="#407BFF"/>
<path d="M29.1042 42.4286L28.86 43.0679C28.8356 43.1168 28.8933 43.1678 28.9755 43.1678H36.3192C36.3836 43.1678 36.4369 43.1367 36.4413 43.0968L36.5035 42.4619C36.5035 42.4197 36.4524 42.3819 36.3836 42.3819H29.2197C29.1981 42.3799 29.1764 42.3831 29.1563 42.3912C29.1362 42.3993 29.1183 42.4121 29.1042 42.4286Z" fill="#407BFF"/>
<path opacity="0.4" d="M29.1042 42.4286L28.86 43.0679C28.8356 43.1168 28.8933 43.1678 28.9755 43.1678H36.3192C36.3836 43.1678 36.4369 43.1367 36.4413 43.0968L36.5035 42.4619C36.5035 42.4197 36.4524 42.3819 36.3836 42.3819H29.2197C29.1981 42.3799 29.1764 42.3831 29.1563 42.3912C29.1362 42.3993 29.1183 42.4121 29.1042 42.4286Z" fill="white"/>
<path d="M30.2608 43.2298H30.0677C30.0299 43.2298 30.0011 43.2098 30.0033 43.1854L30.0943 42.3618C30.0943 42.3396 30.1298 42.3196 30.1676 42.3196H30.3607C30.3985 42.3196 30.4273 42.3396 30.4251 42.3618L30.3341 43.1854C30.3319 43.2098 30.2986 43.2298 30.2608 43.2298Z" fill="#407BFF"/>
<path d="M34.7896 43.2298H34.5987C34.5609 43.2298 34.5321 43.2098 34.5343 43.1854L34.6231 42.3618C34.6231 42.3396 34.6608 42.3196 34.6986 42.3196H34.8895C34.9272 42.3196 34.9583 42.3396 34.9539 42.3618L34.8651 43.1854C34.854 43.2098 34.8296 43.2298 34.7896 43.2298Z" fill="#407BFF"/>
<g style="mix-blend-mode:multiply">
<path d="M30.0921 80.8257C33.3767 80.8257 36.0395 80.6329 36.0395 80.395C36.0395 80.1572 33.3767 79.9644 30.0921 79.9644C26.8074 79.9644 24.1447 80.1572 24.1447 80.395C24.1447 80.6329 26.8074 80.8257 30.0921 80.8257Z" fill="#F5F5F5"/>
</g>
<path d="M33.7151 79.7868C32.6629 79.4804 31.4951 79.0875 30.7892 78.6768C30.7692 78.6635 30.747 78.6568 30.727 78.6457V73.8816H32.856C33.0176 73.872 33.1695 73.8011 33.2805 73.6833C33.3915 73.5655 33.4534 73.4097 33.4534 73.2478C33.4534 73.0859 33.3915 72.9301 33.2805 72.8123C33.1695 72.6945 33.0176 72.6236 32.856 72.614H30.7381V50.8979H29.4594V72.614H27.3437C27.2573 72.6089 27.1708 72.6215 27.0895 72.651C27.0081 72.6806 26.9337 72.7264 26.8707 72.7858C26.8077 72.8451 26.7576 72.9167 26.7233 72.9962C26.689 73.0756 26.6713 73.1613 26.6713 73.2478C26.6713 73.3343 26.689 73.42 26.7233 73.4994C26.7576 73.5789 26.8077 73.6505 26.8707 73.7098C26.9337 73.7692 27.0081 73.8151 27.0895 73.8446C27.1708 73.8741 27.2573 73.8867 27.3437 73.8816H29.4594V78.6391C29.4394 78.6391 29.4194 78.6568 29.3995 78.6701C28.6824 79.0875 27.5236 79.4804 26.4713 79.7801C26.4002 79.8016 26.3392 79.8479 26.2992 79.9105C26.2593 79.9731 26.2431 80.0479 26.2535 80.1214C26.264 80.195 26.3004 80.2623 26.3563 80.3113C26.4121 80.3603 26.4836 80.3876 26.5579 80.3884H33.6286C33.6995 80.3836 33.7667 80.3546 33.8188 80.3062C33.871 80.2578 33.9049 80.193 33.9151 80.1226C33.9252 80.0522 33.9109 79.9805 33.8745 79.9194C33.8381 79.8582 33.7819 79.8115 33.7151 79.7868Z" fill="#E0E0E0"/>
<path d="M34.0415 48.6868H26.1472C25.512 48.6868 24.9972 49.2016 24.9972 49.8367V52.1833C24.9972 52.8184 25.512 53.3332 26.1472 53.3332H34.0415C34.6766 53.3332 35.1914 52.8184 35.1914 52.1833V49.8367C35.1914 49.2016 34.6766 48.6868 34.0415 48.6868Z" fill="#407BFF"/>
<path d="M26.0739 53.3354V53.7395C26.0739 54.0725 26.4358 54.3433 26.8798 54.3433H33.3178C33.7618 54.3433 34.1236 54.0725 34.1236 53.7395V53.3354H26.0739Z" fill="#407BFF"/>
<path opacity="0.3" d="M26.0739 53.3354V53.7395C26.0739 54.0725 26.4358 54.3433 26.8798 54.3433H33.3178C33.7618 54.3433 34.1236 54.0725 34.1236 53.7395V53.3354H26.0739Z" fill="white"/>
</svg>
