<svg width="108" height="76" viewBox="0 0 108 76" fill="none" xmlns="http://www.w3.org/2000/svg">
<path d="M15.7649 67.4076C36.786 78.8629 70.8547 78.8653 91.8758 67.4076C112.897 55.9499 112.897 37.374 91.8758 25.9163C70.8547 14.4586 36.786 14.4586 15.7649 25.9163C-5.25618 37.374 -5.25376 55.945 15.7649 67.4076Z" fill="#F5F5F5"/>
<path d="M26.9689 63.2495L41.6136 71.7062C43.996 73.0811 47.8595 73.0811 50.2419 71.7062L86.1373 50.9823C88.5196 49.6075 88.5196 47.3773 86.1373 46.0001L71.4926 37.5433C69.1078 36.1685 65.2442 36.1685 62.8618 37.5433L26.9689 58.2672C24.5841 59.6421 24.5841 61.8722 26.9689 63.2495Z" fill="#EBEBEB"/>
<path d="M84.3807 48.4886C84.2309 47.6936 83.9603 46.3961 83.0204 45.3692C82.0028 44.2834 80.8032 43.3839 79.4758 42.7114C78.1565 42.0397 77.4365 40.2299 79.9348 40.2952C82.2399 40.3628 84.4314 42.953 84.69 45.1566L84.3807 48.4886Z" fill="#37474F"/>
<path d="M84.586 46.3962C84.555 46.3963 84.525 46.3847 84.5022 46.3636C84.4793 46.3425 84.4653 46.3136 84.4628 46.2827C84.185 42.7526 80.377 41.0878 79.6304 41.0177C79.6124 41.0193 79.5943 41.0169 79.5774 41.0107C79.5605 41.0046 79.5451 40.9947 79.5324 40.982C79.5197 40.9692 79.5099 40.9538 79.5038 40.9369C79.4976 40.9199 79.4953 40.9019 79.4969 40.8839C79.4985 40.866 79.504 40.8486 79.5131 40.833C79.5222 40.8174 79.5345 40.804 79.5493 40.7937C79.5641 40.7835 79.581 40.7766 79.5988 40.7735C79.6165 40.7705 79.6347 40.7713 79.6521 40.7761C80.4785 40.851 84.4266 42.5254 84.7262 46.2682C84.7275 46.2843 84.7256 46.3006 84.7206 46.3161C84.7156 46.3316 84.7076 46.3459 84.697 46.3582C84.6865 46.3706 84.6736 46.3807 84.6591 46.3881C84.6446 46.3954 84.6288 46.3998 84.6126 46.401L84.586 46.3962Z" fill="white"/>
<path d="M86.403 48.4885C86.5456 47.9328 87.1134 46.9977 87.8528 46.7368C88.5921 46.4758 90.2086 46.8528 90.9383 45.6857C91.668 44.5187 91.0204 42.9095 91.1412 42.2499C91.262 41.5902 91.726 41.0418 92.6465 40.4087C93.5671 39.7757 94.0093 38.5555 93.4874 37.9732C92.9655 37.3909 92.0256 37.3184 90.7909 38.1689C89.5562 39.0194 89.5151 38.7995 88.4278 38.7004C87.3405 38.6014 86.3716 39.737 86.2001 41.3172L86.403 48.4885Z" fill="#455A64"/>
<path d="M86.3209 45.6931H86.2919C86.2761 45.6897 86.2611 45.6832 86.2478 45.6738C86.2345 45.6645 86.2233 45.6526 86.2147 45.6389C86.2062 45.6251 86.2005 45.6098 86.1979 45.5938C86.1954 45.5778 86.1961 45.5615 86.2001 45.5457C86.9902 42.0495 90.9769 38.8166 92.4315 38.2681C92.4635 38.2566 92.4988 38.2582 92.5297 38.2727C92.5605 38.2872 92.5843 38.3134 92.5958 38.3454C92.6073 38.3775 92.6057 38.4128 92.5912 38.4436C92.5767 38.4744 92.5505 38.4982 92.5185 38.5097C91.1002 39.0461 87.2028 42.1969 86.4417 45.611C86.433 45.6358 86.4165 45.6571 86.3948 45.6719C86.373 45.6867 86.3472 45.6941 86.3209 45.6931Z" fill="white"/>
<path d="M88.1838 42.0976C88.159 42.0976 88.1347 42.0902 88.1141 42.0765C88.0934 42.0627 88.0773 42.0431 88.0678 42.0203C87.6764 41.0538 87.7513 39.7732 87.7537 39.7176C87.7628 39.6917 87.7802 39.6695 87.8032 39.6544C87.8262 39.6393 87.8535 39.6322 87.8809 39.6341C87.9084 39.636 87.9344 39.6469 87.9551 39.665C87.9757 39.6832 87.9899 39.7076 87.9953 39.7345C87.9953 39.7345 87.9204 41.0175 88.2925 41.926C88.2987 41.9412 88.3019 41.9575 88.3017 41.974C88.3016 41.9904 88.2981 42.0066 88.2916 42.0217C88.285 42.0368 88.2756 42.0504 88.2637 42.0618C88.2518 42.0732 88.2378 42.082 88.2224 42.0879C88.2103 42.0936 88.1972 42.0969 88.1838 42.0976Z" fill="white"/>
<path d="M90.0636 44.5284C89.5175 44.5284 88.1161 44.4535 87.0192 43.7335C86.9916 43.7156 86.9723 43.6874 86.9655 43.6552C86.9587 43.6231 86.965 43.5895 86.9829 43.5619C87.0009 43.5344 87.029 43.5151 87.0612 43.5083C87.0934 43.5015 87.1269 43.5078 87.1545 43.5257C88.4471 44.3738 90.2593 44.2771 90.2786 44.2747C90.295 44.2738 90.3114 44.2761 90.3269 44.2815C90.3424 44.287 90.3566 44.2955 90.3688 44.3065C90.3809 44.3175 90.3908 44.3309 90.3977 44.3457C90.4046 44.3606 90.4085 44.3767 90.4091 44.3931C90.4101 44.4093 90.4079 44.4255 90.4026 44.4409C90.3973 44.4562 90.389 44.4703 90.3782 44.4824C90.3674 44.4946 90.3544 44.5044 90.3398 44.5115C90.3252 44.5186 90.3093 44.5227 90.2931 44.5236C90.2641 44.526 90.182 44.5284 90.0636 44.5284Z" fill="white"/>
<path d="M44.9166 71.2737C44.6363 70.2661 43.6891 69.3962 42.121 68.4926C40.5529 67.5889 37.8685 66.4243 38.4967 64.8465C39.1249 63.2687 41.8576 64.5397 42.8797 65.4312C44.2183 66.6007 45.2548 68.3307 45.2838 69.5219L44.9166 71.2737Z" fill="#37474F"/>
<path d="M45.1703 70.2298C45.1415 70.2299 45.1135 70.2202 45.0911 70.2021C45.0687 70.1841 45.0531 70.1589 45.047 70.1308C44.4672 67.3739 41.2004 65.2428 39.613 64.8731C39.5807 64.8656 39.5527 64.8457 39.535 64.8176C39.5174 64.7895 39.5115 64.7556 39.5187 64.7233C39.5268 64.6913 39.5468 64.6637 39.5747 64.6461C39.6026 64.6286 39.6362 64.6225 39.6685 64.6291C41.3116 65.0132 44.6894 67.2217 45.2911 70.08C45.2946 70.0961 45.2949 70.1127 45.2919 70.1288C45.2889 70.145 45.2828 70.1603 45.2738 70.1741C45.2648 70.1878 45.2531 70.1996 45.2395 70.2088C45.2259 70.2179 45.2105 70.2243 45.1944 70.2274L45.1703 70.2298Z" fill="white"/>
<path d="M46.9389 71.2735C47.0646 70.1765 47.9755 69.5241 49.0845 69.2632C50.1936 69.0022 51.1794 68.8258 51.2591 67.6081C51.3389 66.3903 50.225 65.3876 51.119 64.3413C52.013 63.2951 53.3757 62.2006 53.2815 60.3642C53.1873 58.5279 51.4814 58.337 50.817 59.4944C50.1525 60.6518 50.0148 61.454 49.0797 61.3428C48.1446 61.2317 46.6466 61.843 46.4581 64.6385L46.9389 71.2735Z" fill="#455A64"/>
<path d="M46.7722 69.0604H46.7553C46.7228 69.0556 46.6934 69.0382 46.6736 69.012C46.6537 68.9858 46.6449 68.9529 46.649 68.9203C47.0187 66.1827 48.9372 63.8462 50.3386 62.1404C50.9402 61.4155 51.4597 60.7752 51.6844 60.3113C51.6912 60.2965 51.7008 60.2832 51.7127 60.2721C51.7247 60.261 51.7387 60.2524 51.754 60.2468C51.7692 60.2412 51.7855 60.2387 51.8017 60.2394C51.818 60.2401 51.834 60.244 51.8487 60.2509C51.8783 60.2655 51.9012 60.291 51.9124 60.3221C51.9237 60.3532 51.9225 60.3874 51.9091 60.4176C51.6675 60.9008 51.1432 61.5532 50.5295 62.2998C49.1474 63.9912 47.2555 66.2842 46.9051 68.9541C46.9009 68.9855 46.8847 69.0141 46.86 69.0339C46.8352 69.0537 46.8038 69.0632 46.7722 69.0604Z" fill="white"/>
<path d="M48.2631 65.146C48.2375 65.1464 48.2125 65.1386 48.1917 65.1238C48.1709 65.1091 48.1553 65.0881 48.1471 65.0639C47.9263 64.2952 47.8213 63.498 47.8354 62.6984C47.8366 62.6653 47.8507 62.634 47.8746 62.611C47.8984 62.588 47.9303 62.5752 47.9634 62.5752C47.9798 62.5755 47.996 62.5791 48.011 62.5857C48.026 62.5924 48.0395 62.6019 48.0508 62.6138C48.062 62.6258 48.0708 62.6398 48.0765 62.6552C48.0823 62.6705 48.0849 62.6869 48.0843 62.7033C48.0716 63.4732 48.1717 64.2408 48.3815 64.9817C48.3871 64.9971 48.3896 65.0135 48.3887 65.0298C48.3879 65.0462 48.3837 65.0622 48.3765 65.0769C48.3692 65.0915 48.3591 65.1046 48.3467 65.1153C48.3342 65.1259 48.3198 65.1339 48.3041 65.1388C48.291 65.1437 48.2771 65.1462 48.2631 65.146Z" fill="white"/>
<path d="M49.9761 67.5429C49.0636 67.4916 48.1657 67.2908 47.3183 66.9485C47.303 66.9429 47.289 66.9343 47.2772 66.9232C47.2653 66.912 47.2559 66.8986 47.2493 66.8837C47.2428 66.8688 47.2393 66.8528 47.2391 66.8365C47.2389 66.8202 47.242 66.8041 47.2482 66.7891C47.2539 66.7738 47.2625 66.7598 47.2736 66.7478C47.2847 66.7359 47.298 66.7263 47.3128 66.7195C47.3277 66.7128 47.3437 66.7091 47.36 66.7086C47.3763 66.708 47.3925 66.7108 47.4077 66.7166C48.228 67.0473 49.0959 67.2447 49.9786 67.3013C49.9949 67.3016 50.0111 67.3052 50.0261 67.3118C50.0411 67.3185 50.0546 67.328 50.0659 67.3399C50.0771 67.3519 50.0859 67.3659 50.0916 67.3813C50.0974 67.3966 50.1 67.413 50.0994 67.4294C50.0975 67.4605 50.0836 67.4898 50.0606 67.511C50.0377 67.5321 50.0074 67.5436 49.9761 67.5429Z" fill="white"/>
<path d="M27.2734 53.1639C27.3313 53.1398 27.515 49.2617 25.843 46.976C24.1709 44.6903 22.1534 44.4269 20.8245 44.9826C19.4956 45.5383 19.7662 46.9035 21.4019 47.7226C23.0377 48.5417 25.0746 49.9697 25.5603 52.5792L27.2734 53.1639Z" fill="#37474F"/>
<path d="M26.6596 52.0261C26.6302 52.026 26.6017 52.0155 26.5792 51.9966C26.5566 51.9776 26.5415 51.9513 26.5364 51.9222C25.9106 47.9838 23.5814 46.0532 21.6122 45.5603C21.5962 45.5567 21.5812 45.5498 21.5679 45.5403C21.5546 45.5307 21.5434 45.5186 21.5349 45.5047C21.5263 45.4907 21.5206 45.4752 21.5181 45.4591C21.5156 45.4429 21.5164 45.4264 21.5203 45.4105C21.5235 45.3927 21.5306 45.3758 21.5409 45.361C21.5513 45.3461 21.5647 45.3337 21.5803 45.3245C21.5959 45.3153 21.6133 45.3096 21.6313 45.3078C21.6493 45.3059 21.6675 45.308 21.6846 45.3139C23.7312 45.8261 26.1498 47.8195 26.7949 51.8763C26.7977 51.8925 26.7972 51.9091 26.7934 51.9251C26.7896 51.9411 26.7827 51.9562 26.773 51.9695C26.7634 51.9828 26.7511 51.994 26.737 52.0025C26.723 52.011 26.7073 52.0165 26.6911 52.0189L26.6596 52.0261Z" fill="white"/>
<path d="M26.9738 60.3645C26.7321 59.3425 25.6907 58.6732 24.4754 58.5572C23.2117 58.4436 21.7426 58.3156 21.3512 57.2524C20.9598 56.1893 21.3512 54.742 21.1748 54.034C20.9598 53.1763 20.6312 52.6664 18.9712 52.1445C17.4853 51.6782 16.6637 50.2575 18.1618 49.6583C19.6599 49.059 21.1603 49.4384 22.18 49.8999C23.1996 50.3614 23.2431 50.8374 24.6783 50.7141C26.1136 50.5909 27.184 51.4922 27.2734 52.362L26.9738 60.3645Z" fill="#455A64"/>
<path d="M26.9737 56.897C26.948 56.8968 26.923 56.8888 26.9019 56.8742C26.8808 56.8595 26.8646 56.8389 26.8553 56.8149C25.6762 53.5288 20.8535 50.5544 19.2491 50.366C19.2166 50.3618 19.187 50.345 19.1667 50.3192C19.1464 50.2935 19.1369 50.2609 19.1404 50.2283C19.144 50.1953 19.1605 50.1651 19.1863 50.1443C19.2121 50.1235 19.2451 50.1137 19.2781 50.1171C20.926 50.3128 25.8816 53.3621 27.0897 56.7303C27.0955 56.7457 27.0981 56.762 27.0974 56.7784C27.0967 56.7948 27.0928 56.8109 27.0858 56.8258C27.0788 56.8406 27.069 56.854 27.0568 56.8649C27.0446 56.8759 27.0303 56.8844 27.0148 56.8898L26.9737 56.897Z" fill="white"/>
<path d="M25.843 54.9229H25.8164C25.7841 54.9154 25.7561 54.8955 25.7384 54.8674C25.7208 54.8394 25.7149 54.8055 25.7222 54.7731C26.1184 53.06 25.7222 51.9582 25.7222 51.9462C25.711 51.9141 25.7129 51.8789 25.7277 51.8484C25.7424 51.8178 25.7687 51.7943 25.8007 51.7831C25.8327 51.7719 25.8679 51.7738 25.8985 51.7886C25.9291 51.8033 25.9526 51.8296 25.9638 51.8616C25.9807 51.9075 26.3818 53.0407 25.9638 54.8287C25.9569 54.8555 25.9413 54.8793 25.9194 54.8964C25.8976 54.9134 25.8707 54.9228 25.843 54.9229Z" fill="white"/>
<path d="M26.6596 56.1867C26.6394 56.1868 26.6195 56.1818 26.6016 56.1722C25.6352 55.6479 23.533 56.0224 23.5113 56.0248C23.495 56.029 23.478 56.0298 23.4613 56.0272C23.4447 56.0246 23.4288 56.0186 23.4145 56.0095C23.4003 56.0005 23.3881 55.9887 23.3786 55.9747C23.3692 55.9608 23.3626 55.9451 23.3595 55.9285C23.3564 55.9119 23.3566 55.8949 23.3603 55.8785C23.364 55.862 23.3711 55.8465 23.381 55.8329C23.3909 55.8193 23.4035 55.8079 23.418 55.7993C23.4326 55.7908 23.4487 55.7853 23.4654 55.7832C23.5548 55.7663 25.6738 55.3894 26.72 55.9548C26.7483 55.966 26.7716 55.9871 26.7854 56.0142C26.7993 56.0413 26.8029 56.0725 26.7955 56.102C26.7881 56.1315 26.7703 56.1574 26.7453 56.1747C26.7203 56.1921 26.6899 56.1998 26.6596 56.1964V56.1867Z" fill="white"/>
<path d="M48.4104 11.9071C47.485 11.0373 45.8106 10.699 43.7085 11.9869C41.6064 13.2747 39.944 17.3944 39.4221 20.3083C38.9002 23.2223 38.5716 27.0278 39.6154 28.6419C40.6592 30.2559 44.4478 31.9666 44.4478 31.9666L44.9069 30.3791L48.4104 11.9071Z" fill="#BA68C8"/>
<path opacity="0.4" d="M48.4104 11.9071C47.485 11.0373 45.8106 10.699 43.7085 11.9869C41.6064 13.2747 39.944 17.3944 39.4221 20.3083C38.9002 23.2223 38.5716 27.0278 39.6154 28.6419C40.6592 30.2559 44.4478 31.9666 44.4478 31.9666L44.9069 30.3791L48.4104 11.9071Z" fill="white"/>
<path d="M40.6544 28.1586C42.295 30.1229 44.9166 30.3887 44.9166 30.3887L55.0285 24.5342L50.9789 22.1978L40.6544 28.1586Z" fill="#BA68C8"/>
<path opacity="0.2" d="M40.6544 28.1586C42.295 30.1229 44.9166 30.3887 44.9166 30.3887L55.0285 24.5342L50.9789 22.1978L40.6544 28.1586Z" fill="black"/>
<path d="M40.6544 28.1585C39.9899 27.3708 39.8546 25.3436 40.2146 22.2097C40.6061 18.769 41.8794 13.4461 44.9142 11.6919C48.4733 9.63815 52.0879 14.7412 50.9861 22.2097L40.6544 28.1585Z" fill="#BA68C8"/>
<path d="M64.343 44.8113C66.2107 46.9279 67.5783 47.3483 68.0784 47.8002C68.5786 48.252 68.3805 49.2282 67.2642 49.5399C66.1479 49.8515 64.8939 49.6679 64.1086 48.9938C63.3233 48.3197 62.741 47.3991 61.9533 46.9207C61.1656 46.4423 60.7742 46.3287 60.6147 45.7126C60.4553 45.0964 60.8805 43.1755 60.8805 43.1755L64.343 44.8113Z" fill="#263238"/>
<path d="M63.2726 41.4478C63.1735 42.2741 63.0527 43.0014 63.6809 43.9413C63.8839 44.2435 64.105 44.5332 64.343 44.8087C65.4351 46.0676 66.3219 47.0485 66.4789 47.2249C66.636 47.4013 65.8362 48.0416 64.8455 47.7082C63.8549 47.3747 62.9247 46.0168 62.2336 45.2122C61.9268 44.8522 61.6271 44.526 61.3904 44.2747C61.0719 43.9397 60.8871 43.4996 60.8709 43.0376L60.825 41.7329L63.2726 41.4478Z" fill="#FFA8A7"/>
<path d="M58.6721 48.2735C60.5399 50.3925 61.905 50.8105 62.4076 51.2624C62.9102 51.7142 62.7096 52.6928 61.5933 53.0045C60.477 53.3161 59.223 53.1325 58.4353 52.456C57.6476 51.7794 57.0702 50.8637 56.2825 50.3853C55.4948 49.9069 55.1009 49.7933 54.9439 49.1772C54.7868 48.561 55.2097 46.6401 55.2097 46.6401L58.6721 48.2735Z" fill="#263238"/>
<path d="M57.5993 44.9126C57.5027 45.7414 57.3794 46.4662 58.0101 47.4061C58.2124 47.7088 58.4335 47.9985 58.6721 48.2736C59.7642 49.5348 60.6486 50.5158 60.8056 50.6898C60.9627 50.8637 60.1653 51.5065 59.1723 51.173C58.1792 50.8396 57.2514 49.4817 56.5628 48.6795C56.2559 48.317 55.9563 47.9933 55.7195 47.742C55.4014 47.4067 55.2167 46.9668 55.2 46.5049L55.1517 45.1977L57.5993 44.9126Z" fill="#FFA8A7"/>
<path d="M50.0462 2.73741e-06H51.4815C52.042 -0.000632187 52.5972 0.109189 53.1153 0.323193C53.6334 0.537196 54.1043 0.851189 54.501 1.24723C54.8977 1.64327 55.2125 2.11359 55.4274 2.63133C55.6423 3.14906 55.753 3.70407 55.7533 4.26463V14.983H45.7792V4.26463C45.7798 3.13336 46.2297 2.04864 47.0298 1.24894C47.83 0.449233 48.915 2.55604e-06 50.0462 2.73741e-06Z" fill="#263238"/>
<path d="M56.3525 12.4532C54.6829 10.6991 53.83 10.5203 52.8152 10.5203L54.7482 16.1984C54.7482 16.1984 57.9279 18.3005 59.7884 19.4603L60.9699 16.8556C60.9699 16.8556 58.0221 14.2002 56.3525 12.4532Z" fill="#FFA8A7"/>
<path d="M45.0688 25.259C44.4478 26.5976 43.6481 28.0208 44.4575 29.398C45.2669 30.7753 51.8415 29.398 51.8415 29.398V25.259H45.0688Z" fill="#263238"/>
<path d="M52.1822 10.52C52.907 10.4596 53.7285 10.4814 54.5984 11.9456C55.4682 13.4098 55.9563 14.2314 55.6808 16.3625C55.4054 18.4936 54.3761 20.1366 54.3012 20.9339C54.2263 21.7313 54.4172 25.5634 54.4172 25.5634C54.4172 25.5634 53.1462 27.378 49.9858 27.4626C49.0541 27.483 48.1295 27.2958 47.2791 26.9147C46.4286 26.5336 45.6736 25.968 45.0688 25.259L47.485 20.9243L46.8665 12.1147L49.2271 10.7013L52.1822 10.52Z" fill="#BA68C8"/>
<path d="M52.1822 10.52C52.907 10.4596 53.7285 10.4814 54.5984 11.9456C55.4682 13.4098 55.9563 14.2314 55.6808 16.3625C55.4054 18.4936 54.3761 20.1366 54.3012 20.9339C54.2263 21.7313 54.4172 25.5634 54.4172 25.5634C54.4172 25.5634 53.1462 27.378 49.9858 27.4626C49.0541 27.483 48.1295 27.2958 47.2791 26.9147C46.4286 26.5336 45.6736 25.968 45.0688 25.259L47.485 20.9243L46.8665 12.1147L49.2271 10.7013L52.1822 10.52Z" fill="#E0E0E0"/>
<path d="M49.2295 13.6369C49.0005 13.6369 48.7738 13.5918 48.5623 13.5041C48.3508 13.4164 48.1586 13.2878 47.9968 13.1258C47.835 12.9638 47.7068 12.7715 47.6193 12.5598C47.5319 12.3482 47.4871 12.1214 47.4874 11.8924V6.81836H49.2295V13.6369Z" fill="#263238"/>
<path d="M54.1103 2.01514C54.6346 2.32683 55.287 3.65092 55.2218 6.42473C55.1686 8.77813 54.4051 9.35802 54.0136 9.52716C53.6222 9.69629 52.8925 9.5924 52.1725 9.47158V10.8851C52.1725 10.8851 53.1656 12.0376 53.1027 12.6827C53.0399 13.3279 51.6699 13.4849 50.7421 12.8519C50.1403 12.4184 49.6235 11.8778 49.2175 11.2572V7.84305C49.2175 7.84305 48.7342 8.4906 47.9417 7.96386C47.1492 7.43713 47.1178 6.13479 47.5793 5.66846C48.0408 5.20213 49.029 5.3471 49.2175 5.99465C49.2175 5.99465 50.3627 6.03572 51.8753 5.19971C52.4724 4.8825 52.986 4.42868 53.3744 3.87527C53.7628 3.32185 54.015 2.68449 54.1103 2.01514Z" fill="#FFA8A7"/>
<path d="M52.5953 5.83501C52.5989 5.91319 52.5712 5.98957 52.5184 6.04734C52.4656 6.10512 52.392 6.13956 52.3138 6.14308C52.2357 6.1466 52.1593 6.11893 52.1015 6.06614C52.0437 6.01335 52.0093 5.93977 52.0058 5.86159C52.004 5.82288 52.0099 5.7842 52.0231 5.74777C52.0363 5.71134 52.0566 5.67786 52.0827 5.64926C52.1089 5.62065 52.1404 5.59747 52.1755 5.58105C52.2106 5.56462 52.2486 5.55527 52.2873 5.55352C52.326 5.55178 52.3647 5.55767 52.4011 5.57088C52.4375 5.58408 52.471 5.60432 52.4996 5.63046C52.5282 5.6566 52.5514 5.68812 52.5678 5.72322C52.5842 5.75831 52.5936 5.7963 52.5953 5.83501Z" fill="#263238"/>
<path d="M52.0613 4.92915L51.4476 5.3085C51.3977 5.22444 51.3824 5.12429 51.4049 5.02917C51.4275 4.93405 51.4861 4.8514 51.5684 4.79868C51.6092 4.77415 51.6544 4.75806 51.7015 4.75135C51.7486 4.74465 51.7965 4.74746 51.8425 4.75963C51.8884 4.7718 51.9315 4.79307 51.9691 4.82219C52.0067 4.85131 52.0381 4.88769 52.0613 4.92915Z" fill="#263238"/>
<path d="M52.675 7.82837L53.3613 8.04825C53.3483 8.09377 53.3263 8.13623 53.2966 8.17313C53.267 8.21004 53.2303 8.24065 53.1886 8.26316C53.147 8.28567 53.1013 8.29963 53.0541 8.30422C53.007 8.3088 52.9595 8.30393 52.9143 8.28987C52.8231 8.25786 52.7476 8.19228 52.7032 8.10653C52.6587 8.02077 52.6487 7.92129 52.675 7.82837Z" fill="#F28F8F"/>
<path d="M55.0285 4.92672L54.4292 4.51113C54.4542 4.47057 54.4872 4.43556 54.5262 4.40827C54.5652 4.38098 54.6094 4.36199 54.6561 4.35247C54.7028 4.34296 54.7509 4.34312 54.7975 4.35296C54.8441 4.36279 54.8881 4.38209 54.927 4.40965C55.0066 4.46666 55.0615 4.55194 55.0803 4.64804C55.0992 4.74415 55.0806 4.84384 55.0285 4.92672Z" fill="#263238"/>
<path d="M54.8835 5.62016C54.8843 5.6785 54.868 5.73582 54.8366 5.78495C54.8051 5.83408 54.7598 5.87286 54.7065 5.89645C54.6531 5.92005 54.594 5.92741 54.5364 5.91762C54.4789 5.90782 54.4255 5.88132 54.383 5.8414C54.3404 5.80148 54.3106 5.74991 54.2971 5.69313C54.2837 5.63635 54.2872 5.57687 54.3074 5.5221C54.3275 5.46733 54.3633 5.4197 54.4103 5.38515C54.4573 5.3506 54.5135 5.33065 54.5718 5.3278C54.6114 5.32651 54.651 5.33305 54.6881 5.34705C54.7253 5.36104 54.7593 5.38222 54.7882 5.40938C54.8172 5.43653 54.8405 5.46912 54.8568 5.50529C54.8732 5.54145 54.8822 5.58049 54.8835 5.62016Z" fill="#263238"/>
<path d="M53.4869 5.45093L53.5352 7.23168L54.4727 6.94174L53.4869 5.45093Z" fill="#F28F8F"/>
<path d="M52.1822 9.47153C51.5854 9.40388 50.3869 9.04145 50.1211 8.63794C50.1724 8.89569 50.3158 9.12591 50.5246 9.28548C50.9161 9.66 52.1822 9.93061 52.1822 9.93061V9.47153Z" fill="#F28F8F"/>
<path d="M45.9266 49.6582L26.7007 38.5581L67.1772 15.1885L86.403 26.2886L45.9266 49.6582Z" fill="#BA68C8"/>
<path opacity="0.4" d="M45.9266 49.6582L26.7007 38.5581L67.1772 15.1885L86.403 26.2886L45.9266 49.6582Z" fill="white"/>
<path d="M26.7007 38.5581V60.7583L27.7131 61.343V46.1523L44.9166 56.0829V71.2737L45.9266 71.8584V49.6582L26.7007 38.5581Z" fill="#BA68C8"/>
<path opacity="0.3" d="M26.7007 38.5581V60.7583L27.7131 61.343V46.1523L44.9166 56.0829V71.2737L45.9266 71.8584V49.6582L26.7007 38.5581Z" fill="black"/>
<path d="M27.7131 61.3431L28.7255 60.7584V46.7371L27.7131 46.1523V61.3431Z" fill="#BA68C8"/>
<path opacity="0.5" d="M27.7131 61.3431L28.7255 60.7584V46.7371L27.7131 46.1523V61.3431Z" fill="black"/>
<path d="M45.9266 71.8584L46.939 71.2737V56.083L85.3906 33.8827V49.0735L86.403 48.4888V26.2886L45.9266 49.6582V71.8584Z" fill="#BA68C8"/>
<path opacity="0.1" d="M45.9266 71.8584L46.939 71.2737V56.083L85.3906 33.8827V49.0735L86.403 48.4888V26.2886L45.9266 49.6582V71.8584Z" fill="black"/>
<path d="M46.939 54.9155V50.2426L59.0829 43.2307V47.9037L46.939 54.9155Z" fill="#BA68C8"/>
<path opacity="0.3" d="M46.939 54.9155V50.2426L59.0829 43.2307V47.9037L46.939 54.9155Z" fill="black"/>
<path d="M60.0928 47.3215V42.6462L72.2367 35.6367V40.3097L60.0928 47.3215Z" fill="#BA68C8"/>
<path opacity="0.3" d="M60.0928 47.3215V42.6462L72.2367 35.6367V40.3097L60.0928 47.3215Z" fill="black"/>
<path d="M73.2491 39.7251V35.0521L85.3906 28.0403V32.7157L73.2491 39.7251Z" fill="#BA68C8"/>
<path opacity="0.3" d="M73.2491 39.7251V35.0521L85.3906 28.0403V32.7157L73.2491 39.7251Z" fill="black"/>
<path d="M55.0285 45.5676V45.9421C55.0285 46.1475 54.5452 46.5945 53.9484 46.9376L52.0589 48.0298C51.4621 48.3729 50.9789 48.4864 50.9789 48.2714V47.8993L55.0285 45.5676Z" fill="#263238"/>
<path d="M68.1896 37.9734V38.3479C68.1896 38.5533 67.7063 39.0003 67.1095 39.3434L65.2201 40.4355C64.6257 40.7786 64.1424 40.8898 64.1424 40.6771V40.3026L68.1896 37.9734Z" fill="#263238"/>
<path d="M81.3435 30.3792V30.7512C81.3435 30.959 80.8602 31.4036 80.2659 31.7491L78.374 32.8389C77.7796 33.1844 77.2963 33.2955 77.2963 33.0805V32.706L81.3435 30.3792Z" fill="#263238"/>
<path d="M85.3907 49.0733L84.3807 48.4886V34.4673L85.3907 33.8826V49.0733Z" fill="#BA68C8"/>
<path opacity="0.3" d="M85.3907 49.0733L84.3807 48.4886V34.4673L85.3907 33.8826V49.0733Z" fill="black"/>
<path d="M57.0581 27.7913V27.7067C57.0624 27.6319 57.0841 27.5591 57.1214 27.4941C57.1587 27.4291 57.2107 27.3737 57.2731 27.3322L70.009 19.9869C70.0761 19.9533 70.1502 19.9358 70.2252 19.9358C70.3003 19.9358 70.3744 19.9533 70.4415 19.9869L73.0462 21.4898C73.1086 21.5312 73.1605 21.5867 73.1979 21.6517C73.2352 21.7167 73.2569 21.7895 73.2612 21.8643V21.9513C73.2562 22.0259 73.234 22.0983 73.1963 22.1629C73.1585 22.2275 73.1063 22.2824 73.0438 22.3234L60.3224 29.6687C60.2552 29.7023 60.1812 29.7197 60.1061 29.7197C60.031 29.7197 59.957 29.7023 59.8899 29.6687L57.2731 28.1585C57.2116 28.1178 57.1603 28.0635 57.123 27.9998C57.0857 27.9362 57.0635 27.8648 57.0581 27.7913Z" fill="#BA68C8"/>
<path opacity="0.7" d="M57.0581 27.7913V27.7067C57.0624 27.6319 57.0841 27.5591 57.1214 27.4941C57.1587 27.4291 57.2107 27.3737 57.2731 27.3322L70.009 19.9869C70.0761 19.9533 70.1502 19.9358 70.2252 19.9358C70.3003 19.9358 70.3744 19.9533 70.4415 19.9869L73.0462 21.4898C73.1086 21.5312 73.1605 21.5867 73.1979 21.6517C73.2352 21.7167 73.2569 21.7895 73.2612 21.8643V21.9513C73.2562 22.0259 73.234 22.0983 73.1963 22.1629C73.1585 22.2275 73.1063 22.2824 73.0438 22.3234L60.3224 29.6687C60.2552 29.7023 60.1812 29.7197 60.1061 29.7197C60.031 29.7197 59.957 29.7023 59.8899 29.6687L57.2731 28.1585C57.2116 28.1178 57.1603 28.0635 57.123 27.9998C57.0857 27.9362 57.0635 27.8648 57.0581 27.7913Z" fill="white"/>
<path d="M57.2731 27.5811L59.8778 29.0865C59.9449 29.12 60.019 29.1375 60.094 29.1375C60.1691 29.1375 60.2432 29.12 60.3103 29.0865L73.0317 21.7412C73.0548 21.7306 73.0744 21.7135 73.0882 21.6921C73.1019 21.6707 73.1092 21.6458 73.1092 21.6203C73.1092 21.5949 73.1019 21.57 73.0882 21.5486C73.0744 21.5271 73.0548 21.5101 73.0317 21.4995L70.427 19.9966C70.3599 19.963 70.2858 19.9456 70.2107 19.9456C70.1357 19.9456 70.0616 19.963 69.9945 19.9966L57.2707 27.3419C57.1547 27.4023 57.1547 27.5135 57.2731 27.5811Z" fill="#BA68C8"/>
<path opacity="0.9" d="M57.2731 27.5811L59.8778 29.0865C59.9449 29.12 60.019 29.1375 60.094 29.1375C60.1691 29.1375 60.2432 29.12 60.3103 29.0865L73.0317 21.7412C73.0548 21.7306 73.0744 21.7135 73.0882 21.6921C73.1019 21.6707 73.1092 21.6458 73.1092 21.6203C73.1092 21.5949 73.1019 21.57 73.0882 21.5486C73.0744 21.5271 73.0548 21.5101 73.0317 21.4995L70.427 19.9966C70.3599 19.963 70.2858 19.9456 70.2107 19.9456C70.1357 19.9456 70.0616 19.963 69.9945 19.9966L57.2707 27.3419C57.1547 27.4023 57.1547 27.5135 57.2731 27.5811Z" fill="white"/>
<path d="M41.0845 34.7864L48.7463 39.2129C48.8134 39.2465 48.8875 39.264 48.9626 39.264C49.0376 39.264 49.1117 39.2465 49.1788 39.2129L54.8183 35.9558C54.8423 35.946 54.8628 35.9293 54.8773 35.9078C54.8917 35.8863 54.8994 35.8609 54.8994 35.835C54.8994 35.8091 54.8917 35.7837 54.8773 35.7622C54.8628 35.7407 54.8423 35.724 54.8183 35.7142L47.154 31.2901C47.0876 31.2556 47.0138 31.2375 46.939 31.2375C46.8641 31.2375 46.7904 31.2556 46.7239 31.2901L41.0845 34.5375C40.9637 34.6076 40.9637 34.7187 41.0845 34.7864Z" fill="#BA68C8"/>
<path opacity="0.8" d="M41.0845 34.7864L48.7463 39.2129C48.8134 39.2465 48.8875 39.264 48.9626 39.264C49.0376 39.264 49.1117 39.2465 49.1788 39.2129L54.8183 35.9558C54.8423 35.946 54.8628 35.9293 54.8773 35.9078C54.8917 35.8863 54.8994 35.8609 54.8994 35.835C54.8994 35.8091 54.8917 35.7837 54.8773 35.7622C54.8628 35.7407 54.8423 35.724 54.8183 35.7142L47.154 31.2901C47.0876 31.2556 47.0138 31.2375 46.939 31.2375C46.8641 31.2375 46.7904 31.2556 46.7239 31.2901L41.0845 34.5375C40.9637 34.6076 40.9637 34.7187 41.0845 34.7864Z" fill="white"/>
<path d="M46.7239 31.2829L41.3672 34.3732L48.7463 38.6354C48.8134 38.669 48.8875 38.6865 48.9625 38.6865C49.0376 38.6865 49.1116 38.669 49.1788 38.6354L54.5452 35.5427L47.1637 31.2829C47.096 31.2467 47.0205 31.2278 46.9438 31.2278C46.8671 31.2278 46.7916 31.2467 46.7239 31.2829Z" fill="#BA68C8"/>
<path opacity="0.7" d="M46.7239 31.2829L41.3672 34.3732L48.7463 38.6354C48.8134 38.669 48.8875 38.6865 48.9625 38.6865C49.0376 38.6865 49.1116 38.669 49.1788 38.6354L54.5452 35.5427L47.1637 31.2829C47.096 31.2467 47.0205 31.2278 46.9438 31.2278C46.8671 31.2278 46.7916 31.2467 46.7239 31.2829Z" fill="white"/>
<path d="M41.0844 34.0083L48.7463 38.4324C48.8134 38.466 48.8875 38.4835 48.9625 38.4835C49.0376 38.4835 49.1116 38.466 49.1788 38.4324L54.8182 35.1778C54.8414 35.1672 54.861 35.1501 54.8747 35.1287C54.8885 35.1073 54.8958 35.0824 54.8958 35.057C54.8958 35.0315 54.8885 35.0066 54.8747 34.9852C54.861 34.9638 54.8414 34.9468 54.8182 34.9361L47.154 30.5024C47.0872 30.4692 47.0136 30.4519 46.9389 30.4519C46.8643 30.4519 46.7907 30.4692 46.7239 30.5024L41.0844 33.7594C41.058 33.7678 41.0349 33.7844 41.0185 33.8067C41.0021 33.8291 40.9932 33.8561 40.9932 33.8839C40.9932 33.9116 41.0021 33.9387 41.0185 33.961C41.0349 33.9834 41.058 34 41.0844 34.0083Z" fill="#BA68C8"/>
<path opacity="0.9" d="M41.0844 34.0083L48.7463 38.4324C48.8134 38.466 48.8875 38.4835 48.9625 38.4835C49.0376 38.4835 49.1116 38.466 49.1788 38.4324L54.8182 35.1778C54.8414 35.1672 54.861 35.1501 54.8747 35.1287C54.8885 35.1073 54.8958 35.0824 54.8958 35.057C54.8958 35.0315 54.8885 35.0066 54.8747 34.9852C54.861 34.9638 54.8414 34.9468 54.8182 34.9361L47.154 30.5024C47.0872 30.4692 47.0136 30.4519 46.9389 30.4519C46.8643 30.4519 46.7907 30.4692 46.7239 30.5024L41.0844 33.7594C41.058 33.7678 41.0349 33.7844 41.0185 33.8067C41.0021 33.8291 40.9932 33.8561 40.9932 33.8839C40.9932 33.9116 41.0021 33.9387 41.0185 33.961C41.0349 33.9834 41.058 34 41.0844 34.0083Z" fill="white"/>
<path d="M45.3322 29.3983C45.0785 30.0893 45.4675 30.6475 46.2044 30.6426C46.5916 30.6224 46.9654 30.4937 47.2828 30.271C47.6003 30.0484 47.8487 29.741 47.9997 29.3838C48.2558 28.6928 47.8644 28.1346 47.1274 28.1394C46.7402 28.1596 46.3665 28.2884 46.049 28.511C45.7315 28.7337 45.4831 29.0411 45.3322 29.3983Z" fill="#BA68C8"/>
<path opacity="0.1" d="M45.3322 29.3983C45.0785 30.0893 45.4675 30.6475 46.2044 30.6426C46.5916 30.6224 46.9654 30.4937 47.2828 30.271C47.6003 30.0484 47.8487 29.741 47.9997 29.3838C48.2558 28.6928 47.8644 28.1346 47.1274 28.1394C46.7402 28.1596 46.3665 28.2884 46.049 28.511C45.7315 28.7337 45.4831 29.0411 45.3322 29.3983Z" fill="black"/>
<path d="M45.9435 32.6769C45.366 34.2401 46.2503 35.5038 47.9199 35.4942C49.5896 35.4845 51.4041 34.1991 51.984 32.643C52.5639 31.087 51.6748 29.8185 50.0076 29.8257C48.3404 29.833 46.5185 31.1111 45.9435 32.6769Z" fill="#455A64"/>
<path d="M47.2965 28.1584L46.2962 28.8567L45.2959 29.555C44.9649 30.867 44.8658 32.916 46.0957 34.6798L51.8511 30.6592C50.6092 28.8833 48.6327 28.2889 47.2965 28.1584Z" fill="#455A64"/>
<path d="M47.874 28.2529C47.874 28.2529 48.0528 29.8356 46.8665 30.5532C46.8665 30.5532 47.9828 30.2463 48.3162 29.461C48.6496 28.6758 47.874 28.2529 47.874 28.2529Z" fill="#263238"/>
<path d="M48.0214 28.4319C47.5758 27.8125 46.9761 27.3203 46.2817 27.0039L45.4796 27.5741L45.3902 27.637L44.5856 28.2072C44.6554 28.9641 44.9201 29.69 45.3539 30.3141C45.4539 30.4413 45.5834 30.5421 45.7312 30.6078C45.879 30.6734 46.0406 30.702 46.202 30.6911C46.6098 30.6688 47.0031 30.532 47.3369 30.2966C47.6706 30.0611 47.9313 29.7365 48.0891 29.3597C48.1541 29.2102 48.1815 29.047 48.1689 28.8844C48.1563 28.7218 48.104 28.5648 48.0166 28.4271L48.0214 28.4319Z" fill="#37474F"/>
<path d="M44.6121 27.7769C44.5638 27.8741 44.5427 27.9827 44.5511 28.0909C44.5594 28.1992 44.5969 28.3032 44.6596 28.3919C44.7223 28.4806 44.8078 28.5506 44.907 28.5946C45.0063 28.6387 45.1156 28.655 45.2234 28.6419C45.493 28.6276 45.753 28.5375 45.9736 28.3819C46.1942 28.2263 46.3663 28.0116 46.4702 27.7624C46.5184 27.6653 46.5394 27.5571 46.5312 27.4491C46.5229 27.341 46.4856 27.2372 46.4233 27.1486C46.3609 27.06 46.2758 26.9899 46.1769 26.9457C46.0779 26.9015 45.9689 26.8848 45.8613 26.8974C45.5919 26.9132 45.3322 27.0039 45.1115 27.1592C44.8908 27.3146 44.7178 27.5285 44.6121 27.7769Z" fill="#455A64"/>
<path d="M46.26 29.7414C46.1596 29.5967 46.0266 29.4776 45.8717 29.3937C45.7169 29.3098 45.5445 29.2634 45.3684 29.2581C45.3015 29.2523 45.2343 29.2661 45.1751 29.2979C45.1158 29.3296 45.0672 29.3779 45.035 29.4369L42.6623 35.1658C42.6448 35.2213 42.6405 35.2801 42.6497 35.3376C42.659 35.3951 42.6815 35.4496 42.7154 35.4968C42.816 35.642 42.9493 35.7613 43.1047 35.8453C43.26 35.9293 43.4329 35.9754 43.6094 35.9801C43.6764 35.9862 43.7437 35.9726 43.803 35.9408C43.8623 35.909 43.9109 35.8605 43.9429 35.8013L46.3108 30.0917C46.3332 30.0339 46.3403 29.9713 46.3314 29.9099C46.3225 29.8485 46.2979 29.7905 46.26 29.7414Z" fill="#455A64"/>
<path d="M49.0845 43.7723C49.0845 43.691 49.0756 43.61 49.058 43.5306C48.8546 42.6038 48.3082 41.7881 47.5285 41.2473H44.327C43.5466 41.7879 42.9994 42.6035 42.7951 43.5306C42.7781 43.61 42.77 43.6911 42.771 43.7723C42.7701 43.7867 42.7701 43.8013 42.771 43.8157C42.8 44.2579 43.1044 44.6953 43.6891 45.0239C44.9238 45.7487 46.922 45.7487 48.1567 45.0239C48.7414 44.6856 49.0459 44.2483 49.0749 43.8157C49.079 43.8015 49.0822 43.7869 49.0845 43.7723Z" fill="#455A64"/>
<path d="M45.9266 43.3035C47.1115 43.3035 48.0722 42.7485 48.0722 42.064C48.0722 41.3794 47.1115 40.8245 45.9266 40.8245C44.7416 40.8245 43.781 41.3794 43.781 42.064C43.781 42.7485 44.7416 43.3035 45.9266 43.3035Z" fill="#37474F"/>
<path d="M45.4192 41.7691C45.3575 41.7896 45.3038 41.8289 45.2657 41.8816C45.2277 41.9343 45.2072 41.9977 45.2072 42.0627C45.2072 42.1277 45.2277 42.191 45.2657 42.2437C45.3038 42.2964 45.3575 42.3358 45.4192 42.3563C45.5768 42.4361 45.7511 42.4777 45.9278 42.4777C46.1045 42.4777 46.2787 42.4361 46.4364 42.3563C46.4981 42.3358 46.5518 42.2964 46.5898 42.2437C46.6279 42.191 46.6484 42.1277 46.6484 42.0627C46.6484 41.9977 46.6279 41.9343 46.5898 41.8816C46.5518 41.8289 46.4981 41.7896 46.4364 41.7691C46.2787 41.6893 46.1045 41.6477 45.9278 41.6477C45.7511 41.6477 45.5768 41.6893 45.4192 41.7691Z" fill="#455A64"/>
<path d="M42.481 36.1683C42.4193 36.1887 42.3656 36.2281 42.3276 36.2808C42.2895 36.3335 42.2691 36.3969 42.2691 36.4619C42.2691 36.5269 42.2895 36.5902 42.3276 36.6429C42.3656 36.6956 42.4193 36.735 42.481 36.7554C42.6387 36.8353 42.8129 36.8769 42.9896 36.8769C43.1664 36.8769 43.3406 36.8353 43.4983 36.7554C43.56 36.735 43.6136 36.6956 43.6517 36.6429C43.6897 36.5902 43.7102 36.5269 43.7102 36.4619C43.7102 36.3969 43.6897 36.3335 43.6517 36.2808C43.6136 36.2281 43.56 36.1887 43.4983 36.1683C43.3406 36.0885 43.1664 36.0469 42.9896 36.0469C42.8129 36.0469 42.6387 36.0885 42.481 36.1683Z" fill="#BA68C8"/>
<path opacity="0.3" d="M42.481 36.1683C42.4193 36.1887 42.3656 36.2281 42.3276 36.2808C42.2895 36.3335 42.2691 36.3969 42.2691 36.4619C42.2691 36.5269 42.2895 36.5902 42.3276 36.6429C42.3656 36.6956 42.4193 36.735 42.481 36.7554C42.6387 36.8353 42.8129 36.8769 42.9896 36.8769C43.1664 36.8769 43.3406 36.8353 43.4983 36.7554C43.56 36.735 43.6136 36.6956 43.6517 36.6429C43.6897 36.5902 43.7102 36.5269 43.7102 36.4619C43.7102 36.3969 43.6897 36.3335 43.6517 36.2808C43.6136 36.2281 43.56 36.1887 43.4983 36.1683C43.3406 36.0885 43.1664 36.0469 42.9896 36.0469C42.8129 36.0469 42.6387 36.0885 42.481 36.1683Z" fill="black"/>
<path d="M43.6819 36.3447L46.6176 41.9455L45.2379 42.1823L42.2974 36.5743L43.6819 36.3447Z" fill="#455A64"/>
<path d="M42.6454 34.7137C42.5545 34.6913 42.459 34.6959 42.3707 34.7268C42.2823 34.7577 42.2048 34.8135 42.1476 34.8876C41.9819 35.0742 41.8624 35.2973 41.7991 35.5387C41.7357 35.78 41.7301 36.033 41.7828 36.2769C41.7974 36.3571 41.8306 36.4327 41.8796 36.4978C41.9287 36.5628 41.9924 36.6154 42.0655 36.6515L43.1624 37.0622L43.7085 35.1051L42.6454 34.7137Z" fill="#37474F"/>
<path d="M43.2301 35.2934C43.0637 35.4802 42.9437 35.7035 42.8799 35.9454C42.8161 36.1872 42.8102 36.4407 42.8628 36.6852C42.9836 37.1274 43.346 37.2216 43.665 36.8954C43.8313 36.7091 43.9513 36.4862 44.0151 36.2447C44.0789 36.0033 44.0848 35.7502 44.0322 35.5061C43.9138 35.0639 43.5514 34.9697 43.2301 35.2934Z" fill="#263238"/>
<path d="M37.7138 40.1481C38.7335 39.1091 39.3303 36.5117 38.3372 35.6877H33.2825C32.2894 36.5117 32.8862 39.1067 33.9059 40.1481L33.9325 40.1771L33.9687 40.2109C33.9976 40.2401 34.0283 40.2676 34.0605 40.2931L34.0847 40.3124L34.162 40.3704C34.2038 40.4011 34.2474 40.4293 34.2925 40.4549C34.7633 40.6932 35.2835 40.8173 35.8111 40.8173C36.3387 40.8173 36.8589 40.6932 37.3297 40.4549C37.3732 40.4308 37.4167 40.4018 37.4626 40.3704L37.5326 40.3148L37.564 40.2931L37.651 40.2133L37.6921 40.1722L37.7138 40.1481Z" fill="#BA68C8"/>
<path opacity="0.7" d="M37.7138 40.1481C38.7335 39.1091 39.3303 36.5117 38.3372 35.6877H33.2825C32.2894 36.5117 32.8862 39.1067 33.9059 40.1481L33.9325 40.1771L33.9687 40.2109C33.9976 40.2401 34.0283 40.2676 34.0605 40.2931L34.0847 40.3124L34.162 40.3704C34.2038 40.4011 34.2474 40.4293 34.2925 40.4549C34.7633 40.6932 35.2835 40.8173 35.8111 40.8173C36.3387 40.8173 36.8589 40.6932 37.3297 40.4549C37.3732 40.4308 37.4167 40.4018 37.4626 40.3704L37.5326 40.3148L37.564 40.2931L37.651 40.2133L37.6921 40.1722L37.7138 40.1481Z" fill="white"/>
<path d="M35.8075 38.2681C37.4395 38.2681 38.7625 37.5044 38.7625 36.5623C38.7625 35.6202 37.4395 34.8564 35.8075 34.8564C34.1754 34.8564 32.8524 35.6202 32.8524 36.5623C32.8524 37.5044 34.1754 38.2681 35.8075 38.2681Z" fill="#BA68C8"/>
<path opacity="0.9" d="M35.8075 38.2681C37.4395 38.2681 38.7625 37.5044 38.7625 36.5623C38.7625 35.6202 37.4395 34.8564 35.8075 34.8564C34.1754 34.8564 32.8524 35.6202 32.8524 36.5623C32.8524 37.5044 34.1754 38.2681 35.8075 38.2681Z" fill="white"/>
<path d="M34.5365 35.8279C33.8358 36.2338 33.8358 36.891 34.5365 37.2969C34.9311 37.496 35.3668 37.5996 35.8087 37.5996C36.2505 37.5996 36.6863 37.496 37.0808 37.2969C37.7815 36.891 37.7815 36.2338 37.0808 35.8279C36.6866 35.6277 36.2508 35.5234 35.8087 35.5234C35.3666 35.5234 34.9307 35.6277 34.5365 35.8279Z" fill="#BA68C8"/>
<path opacity="0.7" d="M34.5365 35.8279C33.8358 36.2338 33.8358 36.891 34.5365 37.2969C34.9311 37.496 35.3668 37.5996 35.8087 37.5996C36.2505 37.5996 36.6863 37.496 37.0808 37.2969C37.7815 36.891 37.7815 36.2338 37.0808 35.8279C36.6866 35.6277 36.2508 35.5234 35.8087 35.5234C35.3666 35.5234 34.9307 35.6277 34.5365 35.8279Z" fill="white"/>
<path d="M37.0808 36.5236C36.6863 36.3246 36.2505 36.2209 35.8087 36.2209C35.3668 36.2209 34.931 36.3246 34.5365 36.5236C34.3675 36.6171 34.2233 36.7496 34.1161 36.9102C34.2233 37.0709 34.3675 37.2034 34.5365 37.2968C34.931 37.4959 35.3668 37.5995 35.8087 37.5995C36.2505 37.5995 36.6863 37.4959 37.0808 37.2968C37.2498 37.2034 37.394 37.0709 37.5012 36.9102C37.394 36.7496 37.2498 36.6171 37.0808 36.5236Z" fill="#BA68C8"/>
<path opacity="0.3" d="M37.0808 36.5236C36.6863 36.3246 36.2505 36.2209 35.8087 36.2209C35.3668 36.2209 34.931 36.3246 34.5365 36.5236C34.3675 36.6171 34.2233 36.7496 34.1161 36.9102C34.2233 37.0709 34.3675 37.2034 34.5365 37.2968C34.931 37.4959 35.3668 37.5995 35.8087 37.5995C36.2505 37.5995 36.6863 37.4959 37.0808 37.2968C37.2498 37.2034 37.394 37.0709 37.5012 36.9102C37.394 36.7496 37.2498 36.6171 37.0808 36.5236Z" fill="black"/>
<path d="M36.2665 37.0696C36.9988 36.6121 37.5516 35.9169 37.8322 35.1003C38.2985 33.7376 38.0231 32.0897 37.6051 31.4084C37.0397 30.4854 35.6721 30.5893 36.0756 32.1332C36.4791 33.6772 36.7304 35.3468 36.0901 36.4631L36.2665 37.0696Z" fill="#37474F"/>
<path d="M36.3149 36.7894C36.2999 36.7894 36.2854 36.7843 36.2738 36.7749C36.2679 36.7691 36.2632 36.7621 36.26 36.7544C36.2568 36.7468 36.2551 36.7385 36.2551 36.7302C36.2551 36.7219 36.2568 36.7137 36.26 36.706C36.2632 36.6983 36.2679 36.6914 36.2738 36.6855C36.6823 36.2339 36.9949 35.7039 37.1926 35.1279C37.3903 34.5518 37.469 33.9416 37.4239 33.3342C37.3538 32.2155 36.9407 31.4013 36.7836 31.278C36.7722 31.2659 36.7659 31.2499 36.7659 31.2333C36.7659 31.2167 36.7722 31.2007 36.7836 31.1886C36.7953 31.1774 36.8109 31.1711 36.8271 31.1711C36.8433 31.1711 36.8589 31.1774 36.8706 31.1886C37.0784 31.3674 37.4843 32.2373 37.552 33.3294C37.5987 33.9538 37.518 34.5812 37.3149 35.1735C37.1118 35.7657 36.7905 36.3106 36.3704 36.7749C36.3632 36.782 36.3543 36.787 36.3446 36.7895C36.3348 36.7921 36.3246 36.792 36.3149 36.7894Z" fill="white"/>
<path d="M35.0874 37.0695C35.0483 36.9348 34.9627 36.8184 34.8458 36.7409C34.7014 36.6604 34.5492 36.5949 34.3915 36.5452C34.1185 36.4462 33.7706 36.3036 33.7343 35.975C33.7258 35.8573 33.7406 35.7391 33.7778 35.6271C33.8451 35.4752 33.8612 35.3056 33.8237 35.1438C33.7633 34.9989 33.6087 34.9215 33.4758 34.8345C33.3292 34.7479 33.2044 34.6289 33.1109 34.4866C33.0321 34.3602 32.9941 34.2125 33.0022 34.0638C33.0288 33.7593 33.3212 33.5588 33.3308 33.2568C33.3429 32.8146 32.3088 32.2154 32.8597 31.807C33.5652 31.273 34.6694 31.8916 34.9859 32.3458C35.3025 32.8001 35.3025 33.0031 35.8799 33.3872C36.3632 33.7062 36.9237 33.7714 36.9237 34.3996C36.9237 35.0278 36.1191 35.0568 36.7522 35.7696C37.1339 36.1973 36.5106 36.567 36.2689 37.0744C35.8751 37.0695 35.4764 37.0502 35.0874 37.0695Z" fill="#455A64"/>
<path d="M35.7253 37.1251C35.717 37.1248 35.7089 37.1228 35.7014 37.1194C35.6939 37.1159 35.6872 37.111 35.6816 37.105C35.6759 37.0989 35.6716 37.0918 35.6687 37.0841C35.6659 37.0763 35.6646 37.0681 35.6649 37.0598C35.805 33.4089 33.947 32.1283 33.5749 32.0268C33.5596 32.0217 33.547 32.0109 33.5395 31.9967C33.532 31.9824 33.5302 31.9659 33.5346 31.9504C33.5389 31.935 33.549 31.9217 33.5628 31.9135C33.5766 31.9052 33.593 31.9026 33.6087 31.906C34.2369 32.0776 35.921 33.6191 35.7833 37.0647C35.7827 37.0801 35.7765 37.0948 35.7658 37.1059C35.7551 37.1171 35.7407 37.1239 35.7253 37.1251Z" fill="white"/>
<path d="M35.4305 34.5301C35.4156 34.5301 35.4011 34.525 35.3894 34.5156C34.8506 34.0324 33.7971 34.0517 33.7851 34.0517C33.7688 34.0517 33.7532 34.0454 33.7415 34.0342C33.7298 34.0229 33.7229 34.0075 33.7222 33.9913C33.7222 33.9748 33.7284 33.9589 33.7396 33.9468C33.7508 33.9347 33.7662 33.9273 33.7826 33.9261C33.8286 33.9261 34.8965 33.914 35.474 34.4093C35.4831 34.4178 35.4895 34.4288 35.4923 34.4409C35.4952 34.4531 35.4943 34.4658 35.4899 34.4774C35.4855 34.4891 35.4777 34.4992 35.4676 34.5064C35.4574 34.5136 35.4454 34.5177 35.4329 34.518L35.4305 34.5301Z" fill="white"/>
<path d="M78.3594 24.5006L79.2679 13.4729C79.2774 13.2945 79.2405 13.1166 79.1609 12.9565C79.0813 12.7965 78.9617 12.6598 78.8137 12.5596C78.65 12.4804 78.47 12.4409 78.2883 12.4443C78.1065 12.4476 77.9281 12.4938 77.7675 12.5789L65.6864 19.5521C65.5267 19.6556 65.3911 19.7922 65.289 19.9527C65.1868 20.1132 65.1205 20.2939 65.0944 20.4824L64.1859 31.51C64.1765 31.6885 64.2133 31.8664 64.2929 32.0264C64.3725 32.1865 64.4921 32.3232 64.6402 32.4233C64.8038 32.5025 64.9838 32.542 65.1656 32.5387C65.3474 32.5353 65.5258 32.4892 65.6864 32.404L77.7675 25.4308C77.927 25.3272 78.0624 25.1905 78.1645 25.03C78.2666 24.8695 78.3331 24.689 78.3594 24.5006Z" fill="#BA68C8"/>
<path opacity="0.8" d="M78.3594 24.5006L79.2679 13.4729C79.2774 13.2945 79.2405 13.1166 79.1609 12.9565C79.0813 12.7965 78.9617 12.6598 78.8137 12.5596C78.65 12.4804 78.47 12.4409 78.2883 12.4443C78.1065 12.4476 77.9281 12.4938 77.7675 12.5789L65.6864 19.5521C65.5267 19.6556 65.3911 19.7922 65.289 19.9527C65.1868 20.1132 65.1205 20.2939 65.0944 20.4824L64.1859 31.51C64.1765 31.6885 64.2133 31.8664 64.2929 32.0264C64.3725 32.1865 64.4921 32.3232 64.6402 32.4233C64.8038 32.5025 64.9838 32.542 65.1656 32.5387C65.3474 32.5353 65.5258 32.4892 65.6864 32.404L77.7675 25.4308C77.927 25.3272 78.0624 25.1905 78.1645 25.03C78.2666 24.8695 78.3331 24.689 78.3594 24.5006Z" fill="white"/>
<path d="M78.3595 24.5006L79.268 13.4729C79.2774 13.2945 79.2405 13.1166 79.1609 12.9565C79.0814 12.7965 78.9617 12.6598 78.8137 12.5596C78.65 12.4804 78.47 12.4409 78.2883 12.4443C78.1065 12.4476 77.9281 12.4938 77.7675 12.5789L65.6864 19.5521C65.5259 19.6516 65.3911 19.7874 65.2925 19.9484L67.1699 21.0309V31.5414L77.7602 25.426C77.9207 25.3238 78.0573 25.1883 78.1607 25.0286C78.2641 24.8689 78.3319 24.6888 78.3595 24.5006Z" fill="#BA68C8"/>
<path opacity="0.9" d="M78.3595 24.5006L79.268 13.4729C79.2774 13.2945 79.2405 13.1166 79.1609 12.9565C79.0814 12.7965 78.9617 12.6598 78.8137 12.5596C78.65 12.4804 78.47 12.4409 78.2883 12.4443C78.1065 12.4476 77.9281 12.4938 77.7675 12.5789L65.6864 19.5521C65.5259 19.6516 65.3911 19.7874 65.2925 19.9484L67.1699 21.0309V31.5414L77.7602 25.426C77.9207 25.3238 78.0573 25.1883 78.1607 25.0286C78.2641 24.8689 78.3319 24.6888 78.3595 24.5006Z" fill="white"/>
<path d="M65.2056 32.0944L66.1141 21.0668C66.1404 20.8784 66.2066 20.6977 66.3083 20.5369C66.4099 20.3761 66.5447 20.2388 66.7036 20.1341L78.7847 13.1634C79.0843 12.9918 79.3018 13.1295 79.2679 13.4726L78.3594 24.5002C78.3334 24.6884 78.2673 24.8688 78.1656 25.0293C78.0639 25.1898 77.9289 25.3266 77.7699 25.4305L65.6888 32.4037C65.394 32.5752 65.1766 32.4375 65.2056 32.0944Z" fill="#BA68C8"/>
<path opacity="0.7" d="M65.2056 32.0944L66.1141 21.0668C66.1404 20.8784 66.2066 20.6977 66.3083 20.5369C66.4099 20.3761 66.5447 20.2388 66.7036 20.1341L78.7847 13.1634C79.0843 12.9918 79.3018 13.1295 79.2679 13.4726L78.3594 24.5002C78.3334 24.6884 78.2673 24.8688 78.1656 25.0293C78.0639 25.1898 77.9289 25.3266 77.7699 25.4305L65.6888 32.4037C65.394 32.5752 65.1766 32.4375 65.2056 32.0944Z" fill="white"/>
<path d="M71.437 23.2464C71.4698 22.95 71.5657 22.664 71.7182 22.4077C71.8708 22.1514 72.0764 21.9307 72.3213 21.7605C72.7635 21.5043 73.0824 21.7605 73.0462 22.321C73.013 22.6174 72.917 22.9032 72.7645 23.1595C72.612 23.4158 72.4065 23.6365 72.1618 23.807C71.7003 24.051 71.3911 23.8094 71.437 23.2464Z" fill="#BA68C8"/>
<path opacity="0.4" d="M71.437 23.2464C71.4698 22.95 71.5657 22.664 71.7182 22.4077C71.8708 22.1514 72.0764 21.9307 72.3213 21.7605C72.7635 21.5043 73.0824 21.7605 73.0462 22.321C73.013 22.6174 72.917 22.9032 72.7645 23.1595C72.612 23.4158 72.4065 23.6365 72.1618 23.807C71.7003 24.051 71.3911 23.8094 71.437 23.2464Z" fill="white"/>
<path d="M71.2244 26.873L75.2715 24.5365L74.7665 24.2441L70.7194 26.5806L71.2244 26.873Z" fill="#BA68C8"/>
<path opacity="0.9" d="M71.2244 26.873L75.2715 24.5365L74.7665 24.2441L70.7194 26.5806L71.2244 26.873Z" fill="white"/>
<path d="M76.0665 29.9178L72.4421 32.0054C72.3681 32.0452 72.2844 32.0636 72.2005 32.0585C72.1324 32.0556 72.0657 32.0383 72.0048 32.0078L70.4125 31.0896C70.352 31.0479 70.3019 30.9929 70.2659 30.9288C70.2299 30.8647 70.209 30.7933 70.2047 30.7199V30.6354C70.2047 30.4976 70.3014 30.4397 70.4198 30.5097L71.3862 31.063L71.6013 31.1887L71.553 30.9471L70.7169 26.5979L71.2219 26.8902L75.2715 24.5344L76.238 29.5457C76.2493 29.6177 76.239 29.6914 76.2085 29.7577C76.178 29.8239 76.1286 29.8796 76.0665 29.9178Z" fill="#BA68C8"/>
<path opacity="0.7" d="M76.0665 29.9178L72.4421 32.0054C72.3681 32.0452 72.2844 32.0636 72.2005 32.0585C72.1324 32.0556 72.0657 32.0383 72.0048 32.0078L70.4125 31.0896C70.352 31.0479 70.3019 30.9929 70.2659 30.9288C70.2299 30.8647 70.209 30.7933 70.2047 30.7199V30.6354C70.2047 30.4976 70.3014 30.4397 70.4198 30.5097L71.3862 31.063L71.6013 31.1887L71.553 30.9471L70.7169 26.5979L71.2219 26.8902L75.2715 24.5344L76.238 29.5457C76.2493 29.6177 76.239 29.6914 76.2085 29.7577C76.178 29.8239 76.1286 29.8796 76.0665 29.9178Z" fill="white"/>
<path d="M70.2796 30.4855L71.5119 29.7727L71.7632 31.4326L70.2796 30.4855Z" fill="#BA68C8"/>
<path opacity="0.7" d="M70.2796 30.4855L71.5119 29.7727L71.7632 31.4326L70.2796 30.4855Z" fill="white"/>
<path d="M71.2171 26.8732L70.7121 26.5808L71.5481 30.93C71.5771 31.0629 71.4998 31.1185 71.3814 31.0484L70.4149 30.4951C70.2965 30.425 70.1999 30.4951 70.1999 30.6207V30.7053C70.2041 30.7787 70.225 30.8501 70.2611 30.9141C70.2971 30.9782 70.3472 31.0332 70.4077 31.075L72 31.9931C72.0609 32.0237 72.1276 32.041 72.1957 32.0439L71.2171 26.8732Z" fill="#BA68C8"/>
<path opacity="0.8" d="M71.2171 26.8732L70.7121 26.5808L71.5481 30.93C71.5771 31.0629 71.4998 31.1185 71.3814 31.0484L70.4149 30.4951C70.2965 30.425 70.1999 30.4951 70.1999 30.6207V30.7053C70.2041 30.7787 70.225 30.8501 70.2611 30.9141C70.2971 30.9782 70.3472 31.0332 70.4077 31.075L72 31.9931C72.0609 32.0237 72.1276 32.041 72.1957 32.0439L71.2171 26.8732Z" fill="white"/>
<path d="M58.1695 32.7155C58.9113 32.6599 59.1505 32.3869 59.2713 32.0582C59.3921 31.7296 59.4356 31.3696 59.1481 30.6085C58.8606 29.8474 57.2151 28.8495 55.5069 29.2144C53.7986 29.5792 53.5618 30.884 53.6536 31.2343C53.7454 31.5847 54.7723 32.4738 56.1037 32.6261C56.7884 32.7155 57.4796 32.7454 58.1695 32.7155Z" fill="#BA68C8"/>
<path opacity="0.7" d="M58.1695 32.7155C58.9113 32.6599 59.1505 32.3869 59.2713 32.0582C59.3921 31.7296 59.4356 31.3696 59.1481 30.6085C58.8606 29.8474 57.2151 28.8495 55.5069 29.2144C53.7986 29.5792 53.5618 30.884 53.6536 31.2343C53.7454 31.5847 54.7723 32.4738 56.1037 32.6261C56.7884 32.7155 57.4796 32.7454 58.1695 32.7155Z" fill="white"/>
<path d="M57.3021 30.3334C57.4002 30.256 57.5215 30.2139 57.6464 30.2139C57.7714 30.2139 57.8927 30.256 57.9908 30.3334C58.2168 30.4614 58.3974 30.6564 58.5078 30.8915C58.5827 31.0872 58.5465 31.2612 58.4619 31.2612C58.3773 31.2612 58.3145 31.0824 57.9908 30.8118C57.667 30.5412 57.2296 30.4349 57.3021 30.3334Z" fill="#BA68C8"/>
<path opacity="0.9" d="M57.3021 30.3334C57.4002 30.256 57.5215 30.2139 57.6464 30.2139C57.7714 30.2139 57.8927 30.256 57.9908 30.3334C58.2168 30.4614 58.3974 30.6564 58.5078 30.8915C58.5827 31.0872 58.5465 31.2612 58.4619 31.2612C58.3773 31.2612 58.3145 31.0824 57.9908 30.8118C57.667 30.5412 57.2296 30.4349 57.3021 30.3334Z" fill="white"/>
<path d="M46.8665 12.1196C46.0691 12.656 45.1244 13.2915 45.2549 15.3839C45.3853 17.4764 46.9462 23.2487 47.0525 23.9518C47.1588 24.655 51.4017 28.0594 52.1821 28.7311C53.0786 29.5116 53.4168 29.6759 53.8228 30.1229C54.2287 30.5699 54.6104 31.7103 55.0309 32.2056C55.6905 32.9716 57.1112 32.9885 57.766 32.8991C58.4208 32.8097 58.0076 32.0148 57.766 31.4494C57.5244 30.884 56.8769 30.1132 57.0605 29.9803C57.1861 29.8909 57.8699 30.0117 58.3991 30.4636C58.8074 30.8115 58.8557 31.1522 59.0853 31.3116C59.4695 31.5823 59.5975 31.1039 59.2013 30.3452C58.805 29.5865 58.2009 29.0428 57.6041 28.8544C57.8675 28.8751 58.131 28.8162 58.3604 28.6852C58.689 28.4823 58.805 28.0232 58.3991 28.144C58.1575 28.2141 57.9158 28.144 57.4326 28.144C55.9152 28.144 55.4585 28.6949 53.7019 26.9987C51.9454 25.3025 49.5944 22.995 49.5944 22.995C49.5944 22.995 48.8043 18.1868 48.4491 16.0581C48.1471 14.2242 48.0214 13.0233 46.8665 12.1196Z" fill="#FFA8A7"/>
<path d="M60.9699 16.8484L63.9685 10.4985L65.6598 11.1968C65.6598 11.1968 63.1735 18.7209 62.8159 19.5376C62.6057 20.0209 61.9316 20.608 60.9554 20.132C60.7428 20.0281 60.32 19.7792 59.7957 19.453" fill="#FFA8A7"/>
<path d="M65.0244 13.0888C65.2321 12.4679 65.8918 11.8058 65.9908 11.5424C66.0788 11.3344 66.1081 11.1063 66.0754 10.8828L65.3046 10.9601L65.0244 13.0888Z" fill="#FFA8A7"/>
<path d="M63.4345 11.6076C63.5601 11.3201 63.5819 10.3125 63.4345 9.73263C63.2871 9.15274 63.6423 8.42787 63.5529 8.01953C63.4635 7.61119 63.7244 7.48797 63.9612 7.63536C64.1063 7.72738 64.2263 7.85386 64.3106 8.00352C64.3949 8.15318 64.4409 8.32137 64.4445 8.49311C64.4565 8.91595 64.4831 9.99117 64.3116 10.5155C64.14 11.0398 63.4345 11.6076 63.4345 11.6076Z" fill="#FFA8A7"/>
<path d="M63.8332 10.6191C63.8791 10.7496 64.053 10.9308 64.616 10.8342L65.6526 11.1966L66.0754 11.1725C65.8494 11.3324 65.5728 11.4044 65.2975 11.375C65.0222 11.3457 64.767 11.217 64.5798 11.013C64.5798 11.013 63.8187 11.1072 63.8332 10.6191Z" fill="#F28F8F"/>
<path d="M66.7326 10.1939C66.0827 10.7013 66.1745 11.361 66.9404 11.6702C67.365 11.8161 67.818 11.8598 68.2626 11.7976C68.7072 11.7355 69.1309 11.5693 69.4992 11.3126C70.1492 10.8052 70.0549 10.1432 69.2914 9.83391C68.8666 9.68896 68.4136 9.64602 67.969 9.70857C67.5245 9.77111 67.101 9.93738 66.7326 10.1939Z" fill="#BA68C8"/>
<path opacity="0.7" d="M66.7326 10.1939C66.0827 10.7013 66.1745 11.361 66.9404 11.6702C67.365 11.8161 67.818 11.8598 68.2626 11.7976C68.7072 11.7355 69.1309 11.5693 69.4992 11.3126C70.1492 10.8052 70.0549 10.1432 69.2914 9.83391C68.8666 9.68896 68.4136 9.64602 67.969 9.70857C67.5245 9.77111 67.101 9.93738 66.7326 10.1939Z" fill="white"/>
<path d="M69.951 6.48975L67.5662 6.82318L65.1765 7.15662C65.2297 8.703 65.754 10.4354 66.4378 11.3173L69.8785 10.8341C70.2965 9.79513 70.3231 7.99022 69.951 6.48975Z" fill="#BA68C8"/>
<path opacity="0.7" d="M69.951 6.48975L67.5662 6.82318L65.1765 7.15662C65.2297 8.703 65.754 10.4354 66.4378 11.3173L69.8785 10.8341C70.2965 9.79513 70.3231 7.99022 69.951 6.48975Z" fill="white"/>
<path d="M65.7903 6.43451C64.9156 6.96849 65.0074 7.6257 65.9957 7.89873C67.1446 8.1503 68.3458 7.9787 69.3784 7.41549C70.2531 6.87909 70.1612 6.2243 69.173 5.94885C68.0237 5.69824 66.8226 5.87068 65.7903 6.43451Z" fill="#BA68C8"/>
<path opacity="0.9" d="M65.7903 6.43451C64.9156 6.96849 65.0074 7.6257 65.9957 7.89873C67.1446 8.1503 68.3458 7.9787 69.3784 7.41549C70.2531 6.87909 70.1612 6.2243 69.173 5.94885C68.0237 5.69824 66.8226 5.87068 65.7903 6.43451Z" fill="white"/>
<path d="M66.143 6.65416C65.4182 7.02385 65.4882 7.45152 66.2759 7.62065C67.2014 7.76076 68.1477 7.6281 68.999 7.23889C69.7118 6.86921 69.6538 6.44154 68.8637 6.2724C67.939 6.13249 66.9935 6.26515 66.143 6.65416Z" fill="#BA68C8"/>
<path opacity="0.4" d="M66.143 6.65416C65.4182 7.02385 65.4882 7.45152 66.2759 7.62065C67.2014 7.76076 68.1477 7.6281 68.999 7.23889C69.7118 6.86921 69.6538 6.44154 68.8637 6.2724C67.939 6.13249 66.9935 6.26515 66.143 6.65416Z" fill="white"/>
<path d="M66.2325 7.21971C66.1044 7.28257 65.9864 7.36399 65.8821 7.46133C66.0091 7.52637 66.1451 7.57198 66.2856 7.59663C67.2111 7.73674 68.1574 7.60408 69.0087 7.21487C69.1373 7.15301 69.2555 7.07149 69.359 6.97325C69.2321 6.90821 69.096 6.8626 68.9555 6.83794C68.03 6.69784 67.0837 6.8305 66.2325 7.21971Z" fill="#BA68C8"/>
<path opacity="0.3" d="M66.2325 7.21971C66.1044 7.28257 65.9864 7.36399 65.8821 7.46133C66.0091 7.52637 66.1451 7.57198 66.2856 7.59663C67.2111 7.73674 68.1574 7.60408 69.0087 7.21487C69.1373 7.15301 69.2555 7.07149 69.359 6.97325C69.2321 6.90821 69.096 6.8626 68.9555 6.83794C68.03 6.69784 67.0837 6.8305 66.2325 7.21971Z" fill="black"/>
<path d="M65.725 11.2451C65.5245 11.2749 65.3201 11.265 65.1234 11.2161C64.8528 11.1436 64.5967 10.8827 64.343 10.4164C64.1303 10.0249 63.7655 9.15509 63.9201 8.67426C64.1182 8.06296 64.8262 7.97597 65.2974 7.91799L65.4593 7.89624L65.5632 8.63802L65.3892 8.65977C65.1234 8.69118 64.6812 8.74675 64.6305 8.90139C64.5628 9.201 65.0702 10.368 65.3288 10.4961C65.5619 10.5285 65.7994 10.4897 66.0102 10.3849L66.3484 11.0518C66.152 11.1485 65.9417 11.2137 65.725 11.2451Z" fill="#BA68C8"/>
<path opacity="0.7" d="M65.725 11.2451C65.5245 11.2749 65.3201 11.265 65.1234 11.2161C64.8528 11.1436 64.5967 10.8827 64.343 10.4164C64.1303 10.0249 63.7655 9.15509 63.9201 8.67426C64.1182 8.06296 64.8262 7.97597 65.2974 7.91799L65.4593 7.89624L65.5632 8.63802L65.3892 8.65977C65.1234 8.69118 64.6812 8.74675 64.6305 8.90139C64.5628 9.201 65.0702 10.368 65.3288 10.4961C65.5619 10.5285 65.7994 10.4897 66.0102 10.3849L66.3484 11.0518C66.152 11.1485 65.9417 11.2137 65.725 11.2451Z" fill="white"/>
<path d="M64.8383 8.90381C64.3768 8.90381 63.0213 9.44263 62.9923 9.9307C62.9633 10.4188 63.8839 10.3825 63.8839 10.3825C63.8404 10.455 63.8239 10.5405 63.8371 10.624C63.8504 10.7075 63.8926 10.7837 63.9564 10.8392C64.1859 11.0373 65.9256 10.4333 65.9256 10.4333C65.8648 10.2339 65.7726 10.0455 65.6526 9.87513C65.5659 9.76496 65.439 9.6937 65.2998 9.677C65.2998 9.677 65.5245 8.90381 64.8383 8.90381Z" fill="#FFA8A7"/>
<path d="M30.313 32.6988L28.2882 31.5317L30.313 30.947V32.6988Z" fill="#E0E0E0"/>
<g style="mix-blend-mode:multiply" opacity="0.5">
<g style="mix-blend-mode:multiply" opacity="0.5">
<path d="M30.313 30.947V32.6988L28.2882 31.5317" fill="#E0E0E0"/>
</g>
</g>
<path d="M18.1691 37.9589V39.8194L7.03998 33.3946V31.5317L18.1691 37.9589Z" fill="#E0E0E0"/>
<g style="mix-blend-mode:multiply" opacity="0.5">
<g style="mix-blend-mode:multiply" opacity="0.5">
<path d="M18.1691 37.9589V39.8194L7.03998 33.3946V31.5317L18.1691 37.9589Z" fill="#E0E0E0"/>
</g>
</g>
<path d="M6.02758 16.9255L17.1591 23.3527V38.541L6.02758 32.1163V16.9255Z" fill="#E0E0E0"/>
<path d="M17.1591 23.3527L32.3353 14.5891V29.7775L17.1591 38.5411V23.3527Z" fill="#EBEBEB"/>
<path d="M32.3353 14.589L21.2062 8.16187L6.02755 16.9255L17.1591 23.3526L32.3353 14.589Z" fill="#F5F5F5"/>
<path d="M18.1691 23.9377L31.3254 16.3411V19.847L18.1691 27.4412V23.9377Z" fill="#E0E0E0"/>
<g style="mix-blend-mode:multiply" opacity="0.5">
<g style="mix-blend-mode:multiply" opacity="0.5">
<path d="M23.2286 21.3061C23.2286 21.468 23.7119 21.3206 24.3087 20.9775L26.1982 19.8854C26.795 19.5423 27.2758 19.1315 27.2758 18.9696V18.6772L23.2262 21.0161L23.2286 21.3061Z" fill="#E0E0E0"/>
</g>
</g>
<path d="M18.1691 28.6105L31.3254 21.0164V24.5199L18.1691 32.1165V28.6105Z" fill="#E0E0E0"/>
<g style="mix-blend-mode:multiply" opacity="0.5">
<g style="mix-blend-mode:multiply" opacity="0.5">
<path d="M23.2286 25.9841C23.2286 26.146 23.7119 25.9841 24.3087 25.6531L26.1982 24.5609C26.795 24.2178 27.2758 23.8071 27.2758 23.6476V23.3552L23.2262 25.6917L23.2286 25.9841Z" fill="#E0E0E0"/>
</g>
</g>
<path d="M18.1691 33.2836L31.3254 25.6895V29.1954L18.1691 36.7896V33.2836Z" fill="#E0E0E0"/>
<g style="mix-blend-mode:multiply" opacity="0.5">
<g style="mix-blend-mode:multiply" opacity="0.5">
<path d="M23.2286 30.6545C23.2286 30.8164 23.7119 30.669 24.3087 30.3235L26.1982 29.2337C26.795 28.8882 27.2758 28.4799 27.2758 28.318V28.0256L23.2262 30.3621L23.2286 30.6545Z" fill="#E0E0E0"/>
</g>
</g>
<path d="M18.1691 39.8192L19.1815 39.2369V37.374L18.1691 37.9587V39.8192Z" fill="#E0E0E0"/>
<path d="M30.313 32.6988L31.3254 32.1165V30.3623L30.313 30.947V32.6988Z" fill="#E0E0E0"/>
<path d="M12.5345 17.5587C13.5541 16.5173 14.1533 13.9344 13.1578 13.0959H8.1007C7.10763 13.9223 7.70444 16.5173 8.72408 17.5563L8.75066 17.5853L8.7869 17.6191C8.81581 17.6483 8.84647 17.6758 8.87872 17.7013L8.90288 17.7206L8.9802 17.7786C9.022 17.8093 9.06557 17.8375 9.11068 17.8631C9.58145 18.1014 10.1017 18.2255 10.6293 18.2255C11.1569 18.2255 11.6771 18.1014 12.1479 17.8631C12.1938 17.8376 12.2381 17.8093 12.2808 17.7786L12.3508 17.7254L12.3822 17.7013L12.4716 17.6215L12.5103 17.5829L12.5345 17.5587Z" fill="#EBEBEB"/>
<path d="M8.54045 12.7649C7.3855 13.4318 7.3855 14.5118 8.54045 15.1811C9.69541 15.8504 11.5656 15.848 12.7181 15.1811C13.8706 14.5143 13.873 13.4366 12.7181 12.7649C11.5631 12.0932 9.69299 12.098 8.54045 12.7649Z" fill="#F5F5F5"/>
<path d="M9.36196 13.236C8.66126 13.642 8.66126 14.2992 9.36196 14.7051C9.75615 14.9052 10.192 15.0096 10.6341 15.0096C11.0762 15.0096 11.512 14.9052 11.9062 14.7051C12.6069 14.2992 12.6069 13.642 11.9062 13.236C11.5117 13.037 11.076 12.9333 10.6341 12.9333C10.1922 12.9333 9.75649 13.037 9.36196 13.236Z" fill="#E0E0E0"/>
<path d="M11.9014 13.9343C11.5072 13.7342 11.0714 13.6299 10.6293 13.6299C10.1872 13.6299 9.75132 13.7342 9.35713 13.9343C9.18753 14.0259 9.04312 14.1578 8.93671 14.3185C9.04297 14.4799 9.18737 14.6127 9.35713 14.7051C9.75132 14.9052 10.1872 15.0095 10.6293 15.0095C11.0714 15.0095 11.5072 14.9052 11.9014 14.7051C12.0712 14.6127 12.2156 14.4799 12.3218 14.3185C12.2154 14.1578 12.071 14.0259 11.9014 13.9343Z" fill="#E0E0E0"/>
<g style="mix-blend-mode:multiply" opacity="0.5">
<g style="mix-blend-mode:multiply" opacity="0.5">
<path d="M11.9014 13.9343C11.5072 13.7342 11.0714 13.6299 10.6293 13.6299C10.1872 13.6299 9.75132 13.7342 9.35713 13.9343C9.18753 14.0259 9.04312 14.1578 8.93671 14.3185C9.04297 14.4799 9.18737 14.6127 9.35713 14.7051C9.75132 14.9052 10.1872 15.0095 10.6293 15.0095C11.0714 15.0095 11.5072 14.9052 11.9014 14.7051C12.0712 14.6127 12.2156 14.4799 12.3218 14.3185C12.2154 14.1578 12.071 14.0259 11.9014 13.9343Z" fill="#E0E0E0"/>
</g>
</g>
<path d="M9.51418 14.3186C9.15431 13.9538 8.84471 13.5427 8.5936 13.096C8.16835 12.347 8.09103 11.3394 8.3109 11.2162C8.53078 11.0929 9.42236 12.0957 9.42236 12.0957C9.34111 11.6731 9.30948 11.2425 9.32813 10.8127C9.36679 10.1434 9.52868 9.53689 9.72197 9.41367C9.91527 9.29044 10.3405 10.1385 10.5242 10.7474C10.7078 11.3563 10.8117 11.8613 10.8117 11.8613C10.8857 11.3842 10.9955 10.9133 11.1403 10.4526C11.3626 9.81959 11.5655 9.67462 11.7226 9.72777C11.8797 9.78093 11.9836 10.0878 12.0295 10.9359C12.0455 11.339 12.0326 11.7427 11.9908 12.144C11.9908 12.144 12.3073 11.7961 12.6553 11.4602C13.0394 11.0905 13.2037 11.0398 13.3149 11.1099C13.426 11.1799 13.455 11.755 12.8606 12.8302C12.5643 13.3779 12.1854 13.8767 11.7371 14.3089C11.7371 14.3089 10.9204 14.8502 9.51418 14.3186Z" fill="#EBEBEB"/>
<path d="M22.7333 18.8102L28.7738 15.3067C28.8922 15.239 28.8922 15.1279 28.7738 15.065L20.4765 10.3389C20.4094 10.3053 20.3354 10.2878 20.2603 10.2878C20.1852 10.2878 20.1112 10.3053 20.044 10.3389L14.0567 13.8014C13.9383 13.8714 13.9383 13.9826 14.0567 14.043L22.3008 18.8029C22.3674 18.8377 22.4411 18.8564 22.5162 18.8577C22.5913 18.8589 22.6656 18.8427 22.7333 18.8102Z" fill="#E0E0E0"/>
<g style="mix-blend-mode:multiply" opacity="0.5">
<g style="mix-blend-mode:multiply" opacity="0.5">
<path d="M22.7333 18.8102L28.7738 15.3067C28.8922 15.239 28.8922 15.1279 28.7738 15.065L20.4765 10.3389C20.4094 10.3053 20.3354 10.2878 20.2603 10.2878C20.1852 10.2878 20.1112 10.3053 20.044 10.3389L14.0567 13.8014C13.9383 13.8714 13.9383 13.9826 14.0567 14.043L22.3008 18.8029C22.3674 18.8377 22.4411 18.8564 22.5162 18.8577C22.5913 18.8589 22.6656 18.8427 22.7333 18.8102Z" fill="#E0E0E0"/>
</g>
</g>
<path d="M14.0518 13.7943L20.8607 9.4644C20.9267 9.42989 21.0001 9.41187 21.0746 9.41187C21.149 9.41187 21.2224 9.42989 21.2884 9.4644L23.7409 10.8803C23.7982 10.9151 23.8405 10.9701 23.8593 11.0345C23.8781 11.0989 23.872 11.1681 23.8423 11.2282L23.7433 11.4215C23.7136 11.4817 23.7076 11.5508 23.7264 11.6152C23.7451 11.6796 23.7874 11.7347 23.8448 11.7695L28.7859 14.6279C28.8122 14.6381 28.8347 14.6561 28.8506 14.6794C28.8664 14.7026 28.8749 14.7302 28.8749 14.7583C28.8749 14.7865 28.8664 14.814 28.8506 14.8373C28.8347 14.8606 28.8122 14.8785 28.7859 14.8888L22.7212 18.7934C22.656 18.8292 22.5829 18.8479 22.5086 18.8479C22.4343 18.8479 22.3611 18.8292 22.296 18.7934L14.0518 14.0335C14.0307 14.0214 14.0132 14.004 14.001 13.983C13.9888 13.962 13.9824 13.9381 13.9824 13.9139C13.9824 13.8896 13.9888 13.8657 14.001 13.8447C14.0132 13.8237 14.0307 13.8063 14.0518 13.7943Z" fill="#EBEBEB"/>
<path d="M99.6463 24.0702C101.4 22.2798 102.432 14.9925 100.719 13.5718H92.0207C90.3076 14.9901 91.3394 22.2702 93.0935 24.0678L93.1394 24.1162L93.1998 24.1766C93.2506 24.2249 93.3037 24.2708 93.3593 24.3167L93.4004 24.3505C93.4439 24.3844 93.4874 24.4182 93.5333 24.4496C93.6058 24.5027 93.6817 24.5511 93.7604 24.5946C95.2101 25.4282 97.5442 25.4282 98.9891 24.5946C99.0678 24.5511 99.1437 24.5027 99.2162 24.4496L99.3395 24.3554L99.3926 24.3143C99.4458 24.2708 99.4965 24.2249 99.5448 24.179L99.6149 24.1113L99.6463 24.0702Z" fill="#37474F"/>
<path d="M92.7673 12.9992C90.7788 14.1469 90.7788 16.0074 92.7673 17.1551C94.7559 18.3028 97.9767 18.3004 99.9628 17.1551C101.949 16.0098 101.949 14.1469 99.9628 12.9992C97.9767 11.8515 94.7535 11.8515 92.7673 12.9992Z" fill="#455A64"/>
<path d="M93.7217 13.5502C92.272 14.3935 92.272 15.7587 93.7217 16.6019C95.1715 17.4452 97.549 17.4452 99.006 16.6019C100.463 15.7587 100.456 14.3935 99.006 13.5502C97.5563 12.707 95.1811 12.7094 93.7217 13.5502Z" fill="#37474F"/>
<path d="M99.0036 14.9996C97.5539 14.1564 95.1787 14.1564 93.7193 14.9996C93.3667 15.1906 93.0664 15.4652 92.8447 15.7994C93.0662 16.1343 93.3665 16.4098 93.7193 16.6016C95.1691 17.4448 97.5442 17.4448 99.0036 16.6016C99.3573 16.4111 99.6579 16.1354 99.8783 15.7994C99.6576 15.4643 99.357 15.1895 99.0036 14.9996Z" fill="#E0E0E0"/>
<g style="mix-blend-mode:multiply">
<g style="mix-blend-mode:multiply">
<path d="M99.0036 14.9996C97.5539 14.1564 95.1787 14.1564 93.7193 14.9996C93.3667 15.1906 93.0664 15.4652 92.8447 15.7994C93.0662 16.1343 93.3665 16.4098 93.7193 16.6016C95.1691 17.4448 97.5442 17.4448 99.0036 16.6016C99.3573 16.4111 99.6579 16.1354 99.8783 15.7994C99.6576 15.4643 99.357 15.1895 99.0036 14.9996Z" fill="#263238"/>
</g>
</g>
<path d="M97.9936 15.8044C98.4164 14.5238 99.006 12.1801 101.198 10.4235C103.445 8.61615 105.66 7.18575 104.897 5.99938C104.201 4.92175 102.108 4.76228 99.7164 6.60827C97.3944 8.39627 96.3457 12.499 96.5511 15.2197L97.9936 15.8044Z" fill="#BA68C8"/>
<g opacity="0.1">
<path opacity="0.1" d="M97.9936 15.8044C98.4164 14.5238 99.006 12.1801 101.198 10.4235C103.445 8.61615 105.66 7.18575 104.897 5.99938C104.201 4.92175 102.108 4.76228 99.7164 6.60827C97.3944 8.39627 96.3457 12.499 96.5511 15.2197L97.9936 15.8044Z" fill="black"/>
</g>
<path d="M96.9256 15.4975H96.9087C96.8926 15.4957 96.877 15.4907 96.8628 15.4827C96.8486 15.4748 96.8362 15.464 96.8263 15.4512C96.8164 15.4383 96.8091 15.4236 96.805 15.4079C96.8009 15.3922 96.8 15.3758 96.8024 15.3597C97.6336 8.93017 101.635 6.08387 103.59 5.98963C103.606 5.98796 103.622 5.98969 103.638 5.99474C103.654 5.99978 103.668 6.00801 103.68 6.01892C103.693 6.02983 103.702 6.04316 103.709 6.05809C103.716 6.07301 103.72 6.0892 103.72 6.10561C103.721 6.13879 103.71 6.17119 103.688 6.19599C103.666 6.22078 103.635 6.23602 103.602 6.2385C102.152 6.30616 97.9284 8.6064 97.0489 15.3911C97.0448 15.4208 97.03 15.448 97.0073 15.4675C96.9846 15.4871 96.9556 15.4977 96.9256 15.4975Z" fill="white"/>
<path d="M94.797 16.1041C94.7401 15.7435 94.5976 15.4017 94.3816 15.1075C94.1655 14.8132 93.8821 14.575 93.555 14.4127C92.8423 14.0261 91.9748 14.4127 91.1388 13.2457C90.3028 12.0787 91.0349 11.1315 90.8972 10.5661C90.7595 10.0007 90.6145 9.63103 89.6625 9.2251C88.7105 8.81918 88.4544 8.22237 88.783 6.88379C89.1116 5.5452 89.0947 5.13928 88.2804 4.55214C87.4662 3.965 87.4275 3.2208 88.2804 2.73031C89.1334 2.23982 90.6507 2.24707 91.8516 3.31262C93.0525 4.37817 93.2047 4.83725 94.5264 4.96531C95.848 5.09337 96.6043 5.14653 96.9039 5.9318C97.2035 6.71707 97.0489 7.32596 96.9039 8.06049C96.8358 8.39578 96.8815 8.74423 97.0338 9.0506C97.1861 9.35698 97.4363 9.60376 97.7448 9.75184C98.3222 10.0249 99.2839 10.2351 99.6415 11.2886C99.9991 12.342 99.2066 14.49 98.1918 15.8093C98.1797 15.8045 97.9381 16.5752 94.797 16.1041Z" fill="#BA68C8"/>
<path d="M97.0078 16.2274C96.9914 16.2274 96.9752 16.2241 96.9601 16.2177C96.945 16.2114 96.9313 16.2021 96.9198 16.1904C96.9083 16.1787 96.8993 16.1648 96.8932 16.1496C96.8872 16.1344 96.8843 16.1181 96.8846 16.1017C96.8454 14.0404 96.3858 12.0087 95.5339 10.1312C94.1736 7.19553 89.8268 3.72826 89.561 3.56879C89.546 3.56398 89.5322 3.55611 89.5204 3.54566C89.5086 3.53522 89.4991 3.52242 89.4925 3.50811C89.4859 3.49379 89.4823 3.47825 89.4821 3.46249C89.4818 3.44673 89.4848 3.43109 89.4909 3.41656C89.5039 3.38512 89.5284 3.35983 89.5594 3.3459C89.5904 3.33197 89.6256 3.33045 89.6577 3.34166C89.8075 3.38999 94.3282 6.93458 95.7586 10.0249C96.6251 11.9377 97.0929 14.007 97.1334 16.1065C97.1335 16.1228 97.1302 16.1389 97.1238 16.1539C97.1174 16.1689 97.1081 16.1824 97.0964 16.1937C97.0846 16.205 97.0707 16.2138 97.0555 16.2196C97.0403 16.2254 97.0241 16.228 97.0078 16.2274Z" fill="white"/>
<path d="M94.1325 7.89872C94.1123 7.89882 94.0923 7.89384 94.0745 7.88423C93.1636 7.38407 90.9866 7.73925 90.9648 7.74408C90.9323 7.74834 90.8993 7.73993 90.8728 7.7206C90.8463 7.70126 90.8282 7.67248 90.8223 7.64019C90.8195 7.62416 90.8199 7.60774 90.8236 7.59188C90.8272 7.57601 90.8339 7.56102 90.8433 7.54777C90.8527 7.53452 90.8647 7.52326 90.8785 7.51466C90.8923 7.50605 90.9077 7.50027 90.9238 7.49763C91.0156 7.48314 93.2095 7.12553 94.1929 7.66677C94.2073 7.67459 94.22 7.68519 94.2302 7.69797C94.2405 7.71075 94.2481 7.72545 94.2526 7.74119C94.2571 7.75694 94.2584 7.77343 94.2564 7.78969C94.2545 7.80595 94.2493 7.82166 94.2412 7.8359C94.2306 7.85533 94.2148 7.87147 94.1957 7.88255C94.1765 7.89363 94.1546 7.89922 94.1325 7.89872Z" fill="white"/>
<path d="M96.7831 13.9032C96.7528 13.9065 96.7224 13.8988 96.6974 13.8815C96.6724 13.8641 96.6545 13.8383 96.6472 13.8088C96.6398 13.7792 96.6434 13.748 96.6573 13.721C96.6711 13.6939 96.6944 13.6728 96.7227 13.6615C97.7471 13.1058 98.53 11.5353 98.5372 11.5208C98.5431 11.504 98.5524 11.4887 98.5646 11.4759C98.5767 11.463 98.5915 11.4528 98.6078 11.4461C98.6242 11.4393 98.6418 11.4361 98.6595 11.4366C98.6773 11.4371 98.6946 11.4413 98.7106 11.4491C98.7265 11.4568 98.7407 11.4678 98.7521 11.4813C98.7635 11.4949 98.7719 11.5107 98.7767 11.5278C98.7816 11.5448 98.7828 11.5627 98.7802 11.5802C98.7777 11.5977 98.7714 11.6145 98.7619 11.6295C98.7281 11.6971 97.9332 13.287 96.8411 13.8814C96.8239 13.8936 96.804 13.9011 96.7831 13.9032Z" fill="white"/>
</svg>
