<svg width="125" height="92" viewBox="0 0 125 92" fill="none" xmlns="http://www.w3.org/2000/svg">
<path d="M112.258 85.707H103.994V85.7694H112.258V85.707Z" fill="#EBEBEB"/>
<path d="M82.6456 86.3857H80.4772V86.4481H82.6456V86.3857Z" fill="#EBEBEB"/>
<path d="M103.745 83.3916H98.9566V83.454H103.745V83.3916Z" fill="#EBEBEB"/>
<path d="M23.8665 83.8108H13.0898V83.8732H23.8665V83.8108Z" fill="#EBEBEB"/>
<path d="M27.6691 83.8108H26.0897V83.8732H27.6691V83.8108Z" fill="#EBEBEB"/>
<path d="M56.1791 84.8638H32.8042V84.9261H56.1791V84.8638Z" fill="#EBEBEB"/>
<path d="M59.1359 70.5639H10.9588C10.5809 70.5639 10.2186 70.4138 9.95136 70.1466C9.68416 69.8794 9.53406 69.517 9.53406 69.1391V1.41228C9.53735 1.03657 9.68891 0.67738 9.95574 0.41288C10.2226 0.148379 10.5831 -1.44037e-05 10.9588 1.04861e-09H59.1359C59.5137 1.04862e-09 59.8761 0.150107 60.1433 0.4173C60.4105 0.684493 60.5606 1.04688 60.5606 1.42475V69.1391C60.5606 69.517 60.4105 69.8794 60.1433 70.1466C59.8761 70.4138 59.5137 70.5639 59.1359 70.5639ZM10.9588 0.0499039C10.5977 0.0505635 10.2515 0.19431 9.9962 0.449662C9.74084 0.705013 9.5971 1.05115 9.59644 1.41228V69.1391C9.5971 69.5002 9.74084 69.8464 9.9962 70.1017C10.2515 70.3571 10.5977 70.5008 10.9588 70.5015H59.1359C59.497 70.5008 59.8431 70.3571 60.0985 70.1017C60.3538 69.8464 60.4976 69.5002 60.4982 69.1391V1.41228C60.4976 1.05115 60.3538 0.705013 60.0985 0.449662C59.8431 0.19431 59.497 0.0505635 59.1359 0.0499039H10.9588Z" fill="#EBEBEB"/>
<path d="M113.109 70.5639H64.9273C64.5496 70.5632 64.1876 70.4129 63.9205 70.1458C63.6535 69.8788 63.5032 69.5168 63.5025 69.1391V1.41228C63.5064 1.03678 63.6582 0.677961 63.9249 0.4136C64.1916 0.149239 64.5517 0.000635846 64.9273 0H113.109C113.484 0.00129862 113.843 0.150272 114.109 0.414632C114.375 0.678992 114.526 1.03744 114.529 1.41228V69.1391C114.529 69.5161 114.38 69.8777 114.114 70.1448C113.847 70.4118 113.486 70.5625 113.109 70.5639ZM64.9273 0.0499039C64.5661 0.0505635 64.22 0.19431 63.9646 0.449662C63.7093 0.705013 63.5655 1.05115 63.5649 1.41228V69.1391C63.5655 69.5002 63.7093 69.8464 63.9646 70.1017C64.22 70.3571 64.5661 70.5008 64.9273 70.5015H113.109C113.47 70.5008 113.817 70.3571 114.072 70.1017C114.327 69.8464 114.471 69.5002 114.472 69.1391V1.41228C114.471 1.05115 114.327 0.705013 114.072 0.449662C113.817 0.19431 113.47 0.0505635 113.109 0.0499039H64.9273Z" fill="#EBEBEB"/>
<path d="M124.759 81.6924H0V81.7548H124.759V81.6924Z" fill="#EBEBEB"/>
<path d="M42.6427 75.9536H48.4241L45.3849 51.2013C45.3119 50.6839 45.0577 50.2091 44.6675 49.8614C44.2773 49.5137 43.7765 49.3157 43.254 49.3025H18.0277L21.7256 75.9536H42.6427Z" fill="#F5F5F5"/>
<path d="M24.3056 75.9533H18.5243L15.4852 51.2011C15.4478 50.9631 15.4632 50.7199 15.5302 50.4885C15.5972 50.2572 15.7143 50.0434 15.873 49.8623C16.0318 49.6811 16.2284 49.5371 16.449 49.4403C16.6695 49.3435 16.9087 49.2964 17.1495 49.3022H19.1456C19.6678 49.3155 20.1683 49.5136 20.558 49.8613C20.9478 50.2091 21.2015 50.6838 21.274 51.2011L24.3056 75.9533Z" fill="#F0F0F0"/>
<path d="M26.449 75.9234L25.401 63.9465C25.3783 63.686 25.2668 63.4412 25.0851 63.2531C24.9034 63.065 24.6625 62.9451 24.4029 62.9135L23.9713 62.8586C23.6245 62.8144 23.3033 62.653 23.0609 62.4011C22.8186 62.1492 22.6696 61.822 22.6388 61.4738L22.4567 59.2955C22.4392 59.0856 22.4652 58.8744 22.533 58.6751C22.6009 58.4758 22.7092 58.2926 22.8512 58.1371C22.9931 57.9816 23.1656 57.857 23.358 57.7712C23.5503 57.6855 23.7582 57.6403 23.9688 57.6387H14.3074C14.0951 57.6385 13.8851 57.6826 13.6908 57.7681C13.4964 57.8535 13.322 57.9785 13.1786 58.1351C13.0352 58.2916 12.926 58.4763 12.8578 58.6774C12.7897 58.8784 12.7642 59.0915 12.7829 59.303L12.9725 61.4863C13.0024 61.8348 13.151 62.1625 13.3936 62.4145C13.6361 62.6666 13.9578 62.8278 14.3049 62.8711L14.7341 62.926C14.9935 62.958 15.2341 63.0781 15.4157 63.2661C15.5973 63.4541 15.709 63.6986 15.7322 63.959L16.7802 75.9359C16.8193 76.3552 17.0138 76.7449 17.3254 77.0283C17.637 77.3117 18.0432 77.4685 18.4644 77.4679H28.1208C27.6999 77.4645 27.2954 77.3044 26.9863 77.0188C26.6772 76.7332 26.4856 76.3427 26.449 75.9234Z" fill="#E6E6E6"/>
<path d="M53.0252 60.9548C53.1062 60.0487 53.5236 59.2058 54.1951 58.592C54.8666 57.9783 55.7435 57.6382 56.6532 57.6387H48.2394C47.329 57.639 46.4517 57.9804 45.7805 58.5956C45.1094 59.2109 44.6932 60.0553 44.6139 60.9623L43.783 70.444H52.1968L53.0252 60.9548Z" fill="#E6E6E6"/>
<path d="M60.3835 57.6387H56.6407C55.7298 57.6384 54.8519 57.9795 54.1803 58.5948C53.5086 59.2101 53.092 60.0549 53.0127 60.9623L52.1843 70.444H32.1629L31.3321 60.9623C31.2527 60.0536 30.835 59.2078 30.1618 58.5923C29.4885 57.9768 28.6087 57.6365 27.6966 57.6387H23.9538C23.7445 57.6424 23.5382 57.689 23.3477 57.7757C23.1571 57.8624 22.9864 57.9872 22.846 58.1425C22.7057 58.2978 22.5987 58.4803 22.5318 58.6786C22.4648 58.877 22.4392 59.0869 22.4567 59.2955L22.6463 61.4788C22.6771 61.827 22.826 62.1542 23.0684 62.4061C23.3108 62.658 23.632 62.8194 23.9787 62.8636L24.4104 62.9185C24.67 62.9502 24.9108 63.0701 25.0925 63.2581C25.2743 63.4462 25.3858 63.691 25.4085 63.9515L26.4565 75.9284C26.4933 76.3498 26.6866 76.7421 26.9984 77.028C27.3101 77.3139 27.7177 77.4727 28.1407 77.4729H56.2365C56.6595 77.4727 57.0671 77.3139 57.3788 77.028C57.6906 76.7421 57.8839 76.3498 57.9208 75.9284L58.9687 63.9515C58.9919 63.6912 59.1036 63.4466 59.2852 63.2586C59.4668 63.0706 59.7074 62.9506 59.9668 62.9185L60.396 62.8636C60.7431 62.8203 61.0648 62.6592 61.3073 62.4071C61.5499 62.155 61.6985 61.8273 61.7284 61.4788L61.918 59.2955C61.9357 59.0838 61.9091 58.8707 61.8399 58.6698C61.7707 58.469 61.6603 58.2847 61.516 58.1289C61.3716 57.973 61.1963 57.8489 61.0014 57.7645C60.8064 57.6801 60.596 57.6373 60.3835 57.6387Z" fill="#F0F0F0"/>
<path d="M35.1646 34.3661C41.2818 34.3661 46.2408 29.4072 46.2408 23.29C46.2408 17.1728 41.2818 12.2139 35.1646 12.2139C29.0475 12.2139 24.0885 17.1728 24.0885 23.29C24.0885 29.4072 29.0475 34.3661 35.1646 34.3661Z" fill="#F5F5F5"/>
<path d="M35.1646 32.682C40.3516 32.682 44.5565 28.4771 44.5565 23.2901C44.5565 18.1031 40.3516 13.8982 35.1646 13.8982C29.9777 13.8982 25.7728 18.1031 25.7728 23.2901C25.7728 28.4771 29.9777 32.682 35.1646 32.682Z" fill="#FAFAFA"/>
<path d="M35.1647 13.8981C35.0175 13.8981 34.8702 13.8981 34.723 13.8981C37.1364 14.0095 39.414 15.0466 41.0825 16.7938C42.751 18.5411 43.682 20.8641 43.682 23.28C43.682 25.696 42.751 28.019 41.0825 29.7662C39.414 31.5135 37.1364 32.5506 34.723 32.6619C34.8702 32.6619 35.0175 32.6619 35.1647 32.6619C37.6555 32.6619 40.0444 31.6724 41.8057 29.9111C43.5671 28.1498 44.5566 25.7609 44.5566 23.2701C44.5566 20.7792 43.5671 18.3903 41.8057 16.629C40.0444 14.8677 37.6555 13.8782 35.1647 13.8782V13.8981Z" fill="#E6E6E6"/>
<path d="M35.1672 32.6719C35.4042 32.6595 35.6388 32.637 35.8733 32.6096V23.9962H44.09C44.1074 23.7616 44.1174 23.5271 44.1174 23.29C44.1174 23.053 44.1174 22.8185 44.09 22.5839H35.8708V13.973C35.6363 13.9431 35.4017 13.9206 35.1647 13.9106H34.4585V22.5864H25.7828V23.9987H34.4585V32.6744L35.1672 32.6719Z" fill="#F0F0F0"/>
<path d="M34.4585 13.9082H33.7524V22.584H34.4585V13.9082Z" fill="#E6E6E6"/>
<path d="M34.4585 23.9963H33.7524V32.6721H34.4585V23.9963Z" fill="#E6E6E6"/>
<path d="M89.5947 34.3661C95.7118 34.3661 100.671 29.4072 100.671 23.29C100.671 17.1728 95.7118 12.2139 89.5947 12.2139C83.4775 12.2139 78.5185 17.1728 78.5185 23.29C78.5185 29.4072 83.4775 34.3661 89.5947 34.3661Z" fill="#F5F5F5"/>
<path d="M89.5946 32.682C94.7816 32.682 98.9865 28.4771 98.9865 23.2901C98.9865 18.1031 94.7816 13.8982 89.5946 13.8982C84.4077 13.8982 80.2028 18.1031 80.2028 23.2901C80.2028 28.4771 84.4077 32.682 89.5946 32.682Z" fill="#FAFAFA"/>
<path d="M89.5946 13.8981C89.4474 13.8981 89.3002 13.8981 89.1555 13.8981C91.5689 14.0095 93.8465 15.0466 95.515 16.7938C97.1835 18.5411 98.1145 20.8641 98.1145 23.28C98.1145 25.696 97.1835 28.019 95.515 29.7662C93.8465 31.5135 91.5689 32.5506 89.1555 32.6619C89.3002 32.6619 89.4474 32.6619 89.5946 32.6619C92.0855 32.6619 94.4744 31.6724 96.2357 29.9111C97.997 28.1498 98.9865 25.7609 98.9865 23.2701C98.9865 20.7792 97.997 18.3903 96.2357 16.629C94.4744 14.8677 92.0855 13.8782 89.5946 13.8782V13.8981Z" fill="#E6E6E6"/>
<path d="M89.5997 32.6719C89.8492 32.6595 90.0737 32.637 90.3058 32.6096V23.9962H98.5224C98.5399 23.7616 98.5524 23.5271 98.5524 23.29C98.5524 23.053 98.5399 22.8185 98.5224 22.5839H90.3008V13.973C90.0688 13.9431 89.8342 13.9206 89.5947 13.9106H88.8885V22.5864H80.2128V23.9987H88.8885V32.6744L89.5997 32.6719Z" fill="#F0F0F0"/>
<path d="M88.891 13.9082H88.1849V22.584H88.891V13.9082Z" fill="#E6E6E6"/>
<path d="M88.891 23.9963H88.1849V32.6721H88.891V23.9963Z" fill="#E6E6E6"/>
<path d="M70.5039 74.7981H89.6844V68.1784H70.5039V74.7981Z" fill="#EBEBEB"/>
<path d="M70.5039 81.4204H89.6844V74.8007H70.5039V81.4204Z" fill="#EBEBEB"/>
<path d="M90.3532 74.7981H109.534V68.1784H90.3532V74.7981Z" fill="#EBEBEB"/>
<path d="M90.3532 81.4204H109.534V74.8007H90.3532V81.4204Z" fill="#EBEBEB"/>
<path d="M102.245 74.7982L99.8574 68.1785H103.53L105.918 74.7982H102.245Z" fill="#F0F0F0"/>
<path d="M98.0807 68.1785H98.8867L101.275 74.7982H100.466L98.0807 68.1785Z" fill="#F0F0F0"/>
<path d="M104.631 81.4203L102.245 74.7981H105.918L108.304 81.4203H104.631Z" fill="#F0F0F0"/>
<path d="M100.466 74.7981H101.275L103.66 81.4203H102.854L100.466 74.7981Z" fill="#F0F0F0"/>
<path d="M74.8107 74.7982L72.4253 68.1785H76.0982L78.4836 74.7982H74.8107Z" fill="#F0F0F0"/>
<path d="M70.6487 68.1785H71.4547L73.84 74.7982H73.0341L70.6487 68.1785Z" fill="#F0F0F0"/>
<path d="M77.1986 81.4203L74.8107 74.7981H78.4836L80.8715 81.4203H77.1986Z" fill="#F0F0F0"/>
<path d="M73.0341 74.7981H73.8401L76.228 81.4203H75.4195L73.0341 74.7981Z" fill="#F0F0F0"/>
<path d="M109.534 69.1965V68.5278H90.3532V69.1965H109.534Z" fill="#E0E0E0"/>
<path d="M109.534 75.7639V75.0952H90.3532V75.7639H109.534Z" fill="#E0E0E0"/>
<path d="M99.4531 72.3354C99.377 72.3354 99.304 72.3051 99.2502 72.2513C99.1964 72.1975 99.1662 72.1245 99.1662 72.0484C99.1662 71.9723 99.1964 71.8993 99.2502 71.8455C99.304 71.7917 99.377 71.7615 99.4531 71.7615H100.434C100.51 71.7615 100.583 71.7917 100.637 71.8455C100.69 71.8993 100.721 71.9723 100.721 72.0484C100.721 72.1245 100.69 72.1975 100.637 72.2513C100.583 72.3051 100.51 72.3354 100.434 72.3354H99.4531Z" fill="#E0E0E0"/>
<path d="M99.4531 72.2356C99.413 72.2393 99.3726 72.2347 99.3344 72.2219C99.2962 72.2091 99.2611 72.1885 99.2313 72.1614C99.2016 72.1342 99.1778 72.1012 99.1615 72.0643C99.1452 72.0275 99.1368 71.9877 99.1368 71.9474C99.1368 71.9071 99.1452 71.8673 99.1615 71.8305C99.1778 71.7936 99.2016 71.7606 99.2313 71.7335C99.2611 71.7063 99.2962 71.6857 99.3344 71.6729C99.3726 71.6601 99.413 71.6555 99.4531 71.6592H100.434C100.506 71.6659 100.572 71.6991 100.621 71.7525C100.669 71.8058 100.696 71.8753 100.696 71.9474C100.696 72.0195 100.669 72.089 100.621 72.1423C100.572 72.1957 100.506 72.2289 100.434 72.2356H99.4531Z" fill="#F5F5F5"/>
<path d="M99.4531 78.4485C99.413 78.4522 99.3726 78.4475 99.3344 78.4348C99.2962 78.422 99.2611 78.4014 99.2313 78.3742C99.2016 78.3471 99.1778 78.3141 99.1615 78.2772C99.1452 78.2404 99.1368 78.2006 99.1368 78.1603C99.1368 78.12 99.1452 78.0802 99.1615 78.0434C99.1778 78.0065 99.2016 77.9735 99.2313 77.9463C99.2611 77.9192 99.2962 77.8986 99.3344 77.8858C99.3726 77.873 99.413 77.8684 99.4531 77.8721H100.434C100.506 77.8788 100.572 77.912 100.621 77.9653C100.669 78.0187 100.696 78.0882 100.696 78.1603C100.696 78.2324 100.669 78.3019 100.621 78.3552C100.572 78.4085 100.506 78.4418 100.434 78.4485H99.4531Z" fill="#E0E0E0"/>
<path d="M99.4531 78.3489C99.413 78.3526 99.3726 78.3479 99.3344 78.3352C99.2962 78.3224 99.2611 78.3018 99.2313 78.2746C99.2016 78.2475 99.1778 78.2145 99.1615 78.1776C99.1452 78.1408 99.1368 78.101 99.1368 78.0607C99.1368 78.0204 99.1452 77.9806 99.1615 77.9437C99.1778 77.9069 99.2016 77.8739 99.2313 77.8467C99.2611 77.8196 99.2962 77.799 99.3344 77.7862C99.3726 77.7734 99.413 77.7688 99.4531 77.7725H100.434C100.506 77.7792 100.572 77.8124 100.621 77.8657C100.669 77.919 100.696 77.9886 100.696 78.0607C100.696 78.1328 100.669 78.2023 100.621 78.2556C100.572 78.3089 100.506 78.3422 100.434 78.3489H99.4531Z" fill="#F5F5F5"/>
<path d="M90.0189 67.8816V81.7099H109.868V67.8816H90.0189ZM90.6876 75.1501H109.199V81.0387H90.6876V75.1501ZM90.6876 68.5902H109.199V74.4789H90.6876V68.5902Z" fill="#F5F5F5"/>
<path d="M89.6844 69.1965V68.5278H70.504V69.1965H89.6844Z" fill="#E0E0E0"/>
<path d="M89.682 75.7664V75.0977H70.5015V75.7664H89.682Z" fill="#E0E0E0"/>
<path d="M79.5965 72.3354C79.5204 72.3354 79.4474 72.3051 79.3936 72.2513C79.3397 72.1975 79.3095 72.1245 79.3095 72.0484C79.3095 71.9723 79.3397 71.8993 79.3936 71.8455C79.4474 71.7917 79.5204 71.7615 79.5965 71.7615H80.5945C80.6706 71.7615 80.7436 71.7917 80.7974 71.8455C80.8512 71.8993 80.8815 71.9723 80.8815 72.0484C80.8815 72.1245 80.8512 72.1975 80.7974 72.2513C80.7436 72.3051 80.6706 72.3354 80.5945 72.3354H79.5965Z" fill="#E0E0E0"/>
<path d="M79.5965 72.2356C79.5246 72.2289 79.4579 72.1956 79.4094 72.1423C79.3608 72.089 79.3339 72.0195 79.3339 71.9474C79.3339 71.8753 79.3608 71.8057 79.4094 71.7524C79.4579 71.6991 79.5246 71.6659 79.5965 71.6592H80.5945C80.6663 71.6659 80.7331 71.6991 80.7816 71.7524C80.8302 71.8057 80.8571 71.8753 80.8571 71.9474C80.8571 72.0195 80.8302 72.089 80.7816 72.1423C80.7331 72.1956 80.6663 72.2289 80.5945 72.2356H79.5965Z" fill="#F5F5F5"/>
<path d="M79.5965 78.4487C79.5246 78.442 79.4579 78.4088 79.4094 78.3555C79.3608 78.3021 79.3339 78.2326 79.3339 78.1605C79.3339 78.0884 79.3608 78.0189 79.4094 77.9656C79.4579 77.9123 79.5246 77.879 79.5965 77.8723H80.5945C80.6663 77.879 80.7331 77.9123 80.7816 77.9656C80.8302 78.0189 80.8571 78.0884 80.8571 78.1605C80.8571 78.2326 80.8302 78.3021 80.7816 78.3555C80.7331 78.4088 80.6663 78.442 80.5945 78.4487H79.5965Z" fill="#E0E0E0"/>
<path d="M79.5965 78.3488C79.5246 78.3422 79.4579 78.3089 79.4094 78.2556C79.3608 78.2023 79.3339 78.1328 79.3339 78.0607C79.3339 77.9885 79.3608 77.919 79.4094 77.8657C79.4579 77.8124 79.5246 77.7791 79.5965 77.7725H80.5945C80.6663 77.7791 80.7331 77.8124 80.7816 77.8657C80.8302 77.919 80.8571 77.9885 80.8571 78.0607C80.8571 78.1328 80.8302 78.2023 80.7816 78.2556C80.7331 78.3089 80.6663 78.3422 80.5945 78.3488H79.5965Z" fill="#F5F5F5"/>
<path d="M70.1671 67.8816V81.7099H90.0188V67.8816H70.1671ZM70.8383 75.1501H89.3476V81.0387H70.8383V75.1501ZM70.8383 68.5902H89.3476V74.4789H70.8383V68.5902Z" fill="#F5F5F5"/>
<path d="M98.5598 66.7888H95.6006L94.9144 63.877H93.7292L93.0455 66.7888H90.0762C89.9558 66.7885 89.8364 66.8119 89.725 66.8578C89.6136 66.9037 89.5124 66.9711 89.4271 67.0562C89.3418 67.1412 89.2741 67.2423 89.2279 67.3536C89.1818 67.4648 89.158 67.5841 89.158 67.7046V67.8817H99.4731V67.7046C99.4731 67.4621 99.377 67.2296 99.2058 67.0579C99.0346 66.8863 98.8023 66.7895 98.5598 66.7888Z" fill="#E0E0E0"/>
<path d="M107.443 48.3916H81.2058V65.3738H107.443V48.3916Z" fill="#E0E0E0"/>
<path d="M106.944 48.8906H81.7049V64.1262H106.944V48.8906Z" fill="#F5F5F5"/>
<path d="M95.6155 64.1262H104.9L99.4082 48.8906H90.1236L95.6155 64.1262Z" fill="#FAFAFA"/>
<path d="M91.1217 64.1262H93.1628L87.6709 48.8906H85.6298L91.1217 64.1262Z" fill="#FAFAFA"/>
<path d="M55.1112 81.7223H28.8543V77.2185H55.8597L55.1112 81.7223Z" fill="#F5F5F5"/>
<path d="M30.9877 81.7548H19.3352L18.8361 77.2185H30.4886L30.9877 81.7548Z" fill="#E0E0E0"/>
<path d="M61.177 91.9999C87.896 91.9999 109.556 90.7353 109.556 89.1754C109.556 87.6154 87.896 86.3508 61.177 86.3508C34.4579 86.3508 12.7978 87.6154 12.7978 89.1754C12.7978 90.7353 34.4579 91.9999 61.177 91.9999Z" fill="#F5F5F5"/>
<path d="M93.6144 88.821H92.4192L92.1572 70.5862H93.8764L93.6144 88.821Z" fill="#263238"/>
<path opacity="0.5" d="M93.6144 88.821H92.4192L92.1572 70.5862H93.8764L93.6144 88.821Z" fill="white"/>
<path d="M83.0598 88.821H81.8621L81.6026 70.5862H83.3217L83.0598 88.821Z" fill="#263238"/>
<path opacity="0.5" d="M83.0598 88.821H81.8621L81.6026 70.5862H83.3217L83.0598 88.821Z" fill="white"/>
<path d="M80.6095 88.821H79.4143L79.1523 70.5862H80.8715L80.6095 88.821Z" fill="#263238"/>
<path opacity="0.5" d="M80.6095 88.821H79.4143L79.1523 70.5862H80.8715L80.6095 88.821Z" fill="white"/>
<path d="M70.0549 88.821H68.8572L68.5977 70.5862H70.3169L70.0549 88.821Z" fill="#263238"/>
<path opacity="0.5" d="M70.0549 88.821H68.8572L68.5977 70.5862H70.3169L70.0549 88.821Z" fill="white"/>
<path d="M87.8805 71.0054H68.4804C68.2704 71.0054 68.0624 70.964 67.8683 70.8836C67.6743 70.8032 67.498 70.6854 67.3494 70.5369C67.2009 70.3884 67.0831 70.2121 67.0027 70.018C66.9223 69.824 66.881 69.616 66.881 69.406V67.2751C66.8816 66.8513 67.0504 66.4451 67.3503 66.1457C67.6502 65.8463 68.0566 65.6781 68.4804 65.6781H85.6573L87.1369 51.6003C87.2375 50.7758 87.632 50.0152 88.2479 49.4579C88.8638 48.9006 89.66 48.584 90.4904 48.5662H97.699L95.9773 53.821L94.4054 65.5908L93.3 68.8795L87.8805 71.0054Z" fill="#407BFF"/>
<path opacity="0.2" d="M87.8805 71.0054H68.4804C68.2704 71.0054 68.0624 70.964 67.8683 70.8836C67.6743 70.8032 67.498 70.6854 67.3494 70.5369C67.2009 70.3884 67.0831 70.2121 67.0027 70.018C66.9223 69.824 66.881 69.616 66.881 69.406V67.2751C66.8816 66.8513 67.0504 66.4451 67.3503 66.1457C67.6502 65.8463 68.0566 65.6781 68.4804 65.6781H85.6573L87.1369 51.6003C87.2375 50.7758 87.632 50.0152 88.2479 49.4579C88.8638 48.9006 89.66 48.584 90.4904 48.5662H97.699L95.9773 53.821L94.4054 65.5908L93.3 68.8795L87.8805 71.0054Z" fill="black"/>
<path d="M98.2954 48.5663H96.8557C96.0255 48.5843 95.2297 48.901 94.6142 49.4583C93.9986 50.0156 93.6047 50.7762 93.5046 51.6005L92.025 65.6783H81.4404C81.0171 65.679 80.6113 65.8474 80.3119 66.1468C80.0126 66.4461 79.8441 66.8519 79.8435 67.2752V69.4061C79.8435 69.8299 80.0116 70.2363 80.3111 70.5362C80.6105 70.8361 81.0166 71.0049 81.4404 71.0055H94.2457C94.7319 71.0057 95.2008 70.8258 95.5621 70.5004C95.9234 70.1751 96.1513 69.7275 96.2019 69.2439L97.8787 53.2897C98.5502 53.2761 99.1921 53.0108 99.6773 52.5464C100.162 52.082 100.456 51.4523 100.499 50.7821C100.504 50.4907 100.451 50.2012 100.342 49.9307C100.233 49.6603 100.072 49.4145 99.8661 49.2078C99.6606 49.0011 99.4156 48.8379 99.1458 48.7277C98.876 48.6175 98.5868 48.5626 98.2954 48.5663Z" fill="#407BFF"/>
<path d="M70.4691 81.2882L71.2999 86.7177L73.0141 86.5705L72.7746 81.0911L70.4691 81.2882Z" fill="#EBB376"/>
<path d="M73.074 84.447C73.074 84.447 73.1564 85.8493 73.4932 86.548C73.8301 87.2466 74.2967 88.1748 73.1564 88.2771C72.4827 88.337 71.3049 88.6165 70.0149 88.7412C69.1241 88.8261 67.904 88.7412 67.8616 88.2696C67.8117 87.7232 70.9706 86.5779 70.9581 86.0514C70.9456 85.5249 70.8034 84.6167 70.8034 84.6167L73.074 84.447Z" fill="#263238"/>
<path opacity="0.1" d="M73.074 84.447C73.074 84.447 73.1564 85.8493 73.4932 86.548C73.8301 87.2466 74.2967 88.1748 73.1564 88.2771C72.4827 88.337 71.3049 88.6165 70.0149 88.7412C69.1241 88.8261 67.904 88.7412 67.8616 88.2696C67.8117 87.7232 70.9706 86.5779 70.9581 86.0514C70.9456 85.5249 70.8034 84.6167 70.8034 84.6167L73.074 84.447Z" fill="white"/>
<path d="M81.64 55.4604L81.1759 59.323C81.1759 59.323 67.9938 60.4808 67.2428 63.7769C66.5316 66.9108 70.4216 82.8226 70.4216 82.8226L73.054 82.5607C73.054 82.5607 73.4208 70.2569 72.2681 65.8679C72.2681 65.8679 82.2887 65.793 85.6298 65.8679C87.1269 65.9028 90.967 65.8529 90.0163 61.4863C88.9334 56.4959 87.7881 55.4604 87.7881 55.4604L87.7482 53.2747H81.7598L81.64 55.4604Z" fill="#407BFF"/>
<path opacity="0.2" d="M81.64 55.4604L81.1759 59.323C81.1759 59.323 67.9938 60.4808 67.2428 63.7769C66.5316 66.9108 70.4216 82.8226 70.4216 82.8226L73.054 82.5607C73.054 82.5607 73.4208 70.2569 72.2681 65.8679C72.2681 65.8679 82.2887 65.793 85.6298 65.8679C87.1269 65.9028 90.967 65.8529 90.0163 61.4863C88.9334 56.4959 87.7881 55.4604 87.7881 55.4604L87.7482 53.2747H81.7598L81.64 55.4604Z" fill="white"/>
<path d="M70.1671 82.8901L70.3867 83.5363C70.4074 83.5945 70.4468 83.6441 70.4987 83.6775C70.5506 83.7109 70.6122 83.7262 70.6737 83.721L72.9717 83.5089C73.036 83.5033 73.0963 83.4752 73.1419 83.4295C73.1875 83.3839 73.2156 83.3236 73.2213 83.2594L73.2637 82.5906C73.2656 82.551 73.259 82.5115 73.2444 82.4746C73.2297 82.4378 73.2073 82.4045 73.1787 82.3771C73.1501 82.3496 73.1159 82.3287 73.0785 82.3156C73.041 82.3025 73.0012 82.2976 72.9618 82.3012L70.4017 82.5358C70.3612 82.5398 70.3222 82.5529 70.2874 82.5739C70.2526 82.5949 70.2229 82.6234 70.2004 82.6573C70.178 82.6912 70.1634 82.7297 70.1576 82.77C70.1519 82.8102 70.1551 82.8512 70.1671 82.8901Z" fill="#407BFF"/>
<path opacity="0.6" d="M70.1671 82.8901L70.3867 83.5363C70.4074 83.5945 70.4468 83.6441 70.4987 83.6775C70.5506 83.7109 70.6122 83.7262 70.6737 83.721L72.9717 83.5089C73.036 83.5033 73.0963 83.4752 73.1419 83.4295C73.1875 83.3839 73.2156 83.3236 73.2213 83.2594L73.2637 82.5906C73.2656 82.551 73.259 82.5115 73.2444 82.4746C73.2297 82.4378 73.2073 82.4045 73.1787 82.3771C73.1501 82.3496 73.1159 82.3287 73.0785 82.3156C73.041 82.3025 73.0012 82.2976 72.9618 82.3012L70.4017 82.5358C70.3612 82.5398 70.3222 82.5529 70.2874 82.5739C70.2526 82.5949 70.2229 82.6234 70.2004 82.6573C70.178 82.6912 70.1634 82.7297 70.1576 82.77C70.1519 82.8102 70.1551 82.8512 70.1671 82.8901Z" fill="white"/>
<path d="M75.5193 81.1785L75.8861 86.6604H77.6053L77.8349 81.1785H75.5193Z" fill="#EBB376"/>
<path d="M77.8024 84.9984C77.8024 84.9984 77.7575 86.4032 78.032 87.1293C78.3064 87.8554 78.6882 88.8211 77.5329 88.8211C76.8592 88.8211 75.664 88.836 74.389 88.7412C73.4957 88.6764 72.2606 88.8211 72.2606 88.3395C72.2606 87.7906 75.6016 86.8998 75.6341 86.3758C75.6665 85.8518 75.6341 84.9685 75.6341 84.9685L77.8024 84.9984Z" fill="#263238"/>
<path d="M83.7035 55.4606L83.2818 59.3232C83.2818 59.3232 75.0826 60.4385 73.7677 62.4022C72.4527 64.3659 75.5417 83.6886 75.5417 83.6886H77.8348C79.4717 72.9593 78.6208 65.8531 78.6208 65.8531H88.9035C95.4533 65.8531 89.6246 55.4606 89.6246 55.4606L89.6495 53.165L83.5887 53.5144L83.7035 55.4606Z" fill="#407BFF"/>
<path opacity="0.3" d="M83.7035 55.4606L83.2818 59.3232C83.2818 59.3232 75.0826 60.4385 73.7677 62.4022C72.4527 64.3659 75.5417 83.6886 75.5417 83.6886H77.8348C79.4717 72.9593 78.6208 65.8531 78.6208 65.8531H88.9035C95.4533 65.8531 89.6246 55.4606 89.6246 55.4606L89.6495 53.165L83.5887 53.5144L83.7035 55.4606Z" fill="white"/>
<path d="M75.1226 83.3144L75.2948 84.0206C75.3079 84.0764 75.3399 84.126 75.3854 84.161C75.4308 84.196 75.4869 84.2142 75.5443 84.2127H77.8274C77.8854 84.214 77.9421 84.195 77.9876 84.159C78.0331 84.123 78.0647 84.0723 78.0769 84.0156L78.2291 83.3069C78.2375 83.2699 78.2373 83.2315 78.2285 83.1945C78.2198 83.1576 78.2027 83.1231 78.1787 83.0938C78.1546 83.0644 78.1242 83.041 78.0897 83.0251C78.0552 83.0093 78.0175 83.0016 77.9796 83.0025H75.3696C75.3311 83.0017 75.2929 83.0098 75.258 83.0262C75.2231 83.0426 75.1925 83.0668 75.1686 83.0971C75.1446 83.1273 75.128 83.1626 75.1201 83.2003C75.1121 83.2381 75.1129 83.2771 75.1226 83.3144Z" fill="#407BFF"/>
<path opacity="0.6" d="M75.1226 83.3144L75.2948 84.0206C75.3079 84.0764 75.3399 84.126 75.3854 84.161C75.4308 84.196 75.4869 84.2142 75.5443 84.2127H77.8274C77.8854 84.214 77.9421 84.195 77.9876 84.159C78.0331 84.123 78.0647 84.0723 78.0769 84.0156L78.2291 83.3069C78.2375 83.2699 78.2373 83.2315 78.2285 83.1945C78.2198 83.1576 78.2027 83.1231 78.1787 83.0938C78.1546 83.0644 78.1242 83.041 78.0897 83.0251C78.0552 83.0093 78.0175 83.0016 77.9796 83.0025H75.3696C75.3311 83.0017 75.2929 83.0098 75.258 83.0262C75.2231 83.0426 75.1925 83.0668 75.1686 83.0971C75.1446 83.1273 75.128 83.1626 75.1201 83.2003C75.1121 83.2381 75.1129 83.2771 75.1226 83.3144Z" fill="white"/>
<path d="M71.9287 53.2574L70.0723 53.6192L68.3257 53.1077C68.0837 53.0749 67.8374 53.1046 67.6102 53.1942C67.383 53.2837 67.1826 53.4301 67.0282 53.6192C66.7753 53.9213 66.6374 54.3032 66.6389 54.6971V54.7645H70.2295L72.1782 54.5025L71.9287 53.2574Z" fill="#EBB376"/>
<path d="M81.9594 42.5205C81.9565 42.435 81.9284 42.3523 81.8786 42.2827C81.8289 42.2131 81.7597 42.1598 81.6797 42.1294C81.5997 42.099 81.5126 42.0929 81.4291 42.1119C81.3457 42.1309 81.2698 42.1741 81.2108 42.2361C80.612 42.8249 79.7511 43.5161 79.3494 47.2264C78.8329 52.0047 70.8658 53.1899 70.8658 53.1899L71.245 54.9366C71.245 54.9366 77.1137 55.1362 79.544 52.6011C82.688 49.3449 82.2289 44.4568 81.9594 42.5205Z" fill="#407BFF"/>
<path opacity="0.2" d="M81.9594 42.5205C81.9565 42.435 81.9284 42.3523 81.8786 42.2827C81.8289 42.2131 81.7597 42.1598 81.6797 42.1294C81.5997 42.099 81.5126 42.0929 81.4291 42.1119C81.3457 42.1309 81.2698 42.1741 81.2108 42.2361C80.612 42.8249 79.7511 43.5161 79.3494 47.2264C78.8329 52.0047 70.8658 53.1899 70.8658 53.1899L71.245 54.9366C71.245 54.9366 77.1137 55.1362 79.544 52.6011C82.688 49.3449 82.2289 44.4568 81.9594 42.5205Z" fill="white"/>
<path d="M89.1006 34.8077C88.3795 29.9745 84.3099 31.7162 84.3099 31.7162C81.6799 32.6643 82.5632 35.9305 82.5632 37.7046C82.5632 39.4787 82.3387 40.0925 82.3387 40.0925C82.6431 40.0251 82.925 39.9678 83.197 39.9129L83.2918 39.3564L83.4565 39.8555C85.6672 39.4338 86.8599 39.4388 87.5037 39.5735C87.6848 39.244 87.8152 38.889 87.8904 38.5206C87.8904 38.5206 88.2048 38.7252 87.8904 39.6933C88.2722 39.8655 88.2547 40.0875 88.2547 40.0875C88.2547 40.0875 89.8267 39.6409 89.1006 34.8077Z" fill="#263238"/>
<path d="M91.6008 41.9591L82.0916 41.8468C81.8695 41.8433 81.6534 41.919 81.482 42.0602C81.3106 42.2015 81.195 42.3991 81.1559 42.6178C80.0331 48.8258 80.7991 48.6063 80.7991 48.6063L81.2782 56.2041H82.3412C82.6522 56.2044 82.9537 56.0969 83.1943 55.8999C83.435 55.7029 83.5999 55.4286 83.6611 55.1237L83.7684 54.5897L84.0504 55.3383C84.1461 55.5924 84.3165 55.8116 84.5392 55.967C84.7619 56.1225 85.0264 56.2069 85.2979 56.2091H90.1511C89.5872 50.3753 91.4361 44.7462 92.0799 42.6428C92.1051 42.5658 92.1121 42.484 92.1002 42.4038C92.0883 42.3237 92.0579 42.2474 92.0114 42.181C91.9649 42.1147 91.9036 42.0601 91.8323 42.0216C91.761 41.983 91.6818 41.9616 91.6008 41.9591Z" fill="#407BFF"/>
<path opacity="0.4" d="M91.6008 41.9591L82.0916 41.8468C81.8695 41.8433 81.6534 41.919 81.482 42.0602C81.3106 42.2015 81.195 42.3991 81.1559 42.6178C80.0331 48.8258 80.7991 48.6063 80.7991 48.6063L81.2782 56.2041H82.3412C82.6522 56.2044 82.9537 56.0969 83.1943 55.8999C83.435 55.7029 83.5999 55.4286 83.6611 55.1237L83.7684 54.5897L84.0504 55.3383C84.1461 55.5924 84.3165 55.8116 84.5392 55.967C84.7619 56.1225 85.0264 56.2069 85.2979 56.2091H90.1511C89.5872 50.3753 91.4361 44.7462 92.0799 42.6428C92.1051 42.5658 92.1121 42.484 92.1002 42.4038C92.0883 42.3237 92.0579 42.2474 92.0114 42.181C91.9649 42.1147 91.9036 42.0601 91.8323 42.0216C91.761 41.983 91.6818 41.9616 91.6008 41.9591Z" fill="white"/>
<path d="M70.6138 53.1626L70.9656 55.0041C70.978 55.067 71.0125 55.1235 71.0628 55.1632C71.1131 55.203 71.176 55.2236 71.2401 55.2212L71.5944 55.2062C71.6315 55.2045 71.6678 55.1951 71.701 55.1784C71.7342 55.1618 71.7635 55.1384 71.7871 55.1096C71.8106 55.0809 71.8278 55.0476 71.8376 55.0118C71.8474 54.976 71.8496 54.9385 71.8439 54.9018L71.552 52.9406C71.5466 52.9019 71.5328 52.865 71.5116 52.8322C71.4904 52.7995 71.4623 52.7718 71.4292 52.7511C71.3962 52.7304 71.359 52.7172 71.3202 52.7125C71.2815 52.7077 71.2423 52.7114 71.2052 52.7235L70.7885 52.8582C70.7278 52.8797 70.6768 52.9223 70.6448 52.9781C70.6127 53.0339 70.6018 53.0994 70.6138 53.1626Z" fill="#407BFF"/>
<path opacity="0.6" d="M70.6138 53.1626L70.9656 55.0041C70.978 55.067 71.0125 55.1235 71.0628 55.1632C71.1131 55.203 71.176 55.2236 71.2401 55.2212L71.5944 55.2062C71.6315 55.2045 71.6678 55.1951 71.701 55.1784C71.7342 55.1618 71.7635 55.1384 71.7871 55.1096C71.8106 55.0809 71.8278 55.0476 71.8376 55.0118C71.8474 54.976 71.8496 54.9385 71.8439 54.9018L71.552 52.9406C71.5466 52.9019 71.5328 52.865 71.5116 52.8322C71.4904 52.7995 71.4623 52.7718 71.4292 52.7511C71.3962 52.7304 71.359 52.7172 71.3202 52.7125C71.2815 52.7077 71.2423 52.7114 71.2052 52.7235L70.7885 52.8582C70.7278 52.8797 70.6768 52.9223 70.6448 52.9781C70.6127 53.0339 70.6018 53.0994 70.6138 53.1626Z" fill="white"/>
<path d="M87.082 37.343C86.9423 38.6156 86.8973 40.9261 87.8455 41.6846C87.8455 41.6846 87.4837 42.9697 85.0459 43.2092C83.3143 42.4457 83.958 42.0215 83.958 42.0215C85.3229 41.5599 85.4551 40.5369 85.1457 39.5862L87.082 37.343Z" fill="#EBB376"/>
<path opacity="0.1" d="M86.8674 38.7577L86.3684 38.6279L85.7496 38.8774L85.1407 39.5811C85.2225 39.8226 85.2688 40.0748 85.278 40.3296C86.6204 40.125 86.8674 38.7577 86.8674 38.7577Z" fill="black"/>
<path d="M87.9753 34.5309C88.0352 36.6294 88.1075 37.5252 87.1519 38.6829C85.7122 40.4296 83.1222 40.0553 82.4335 38.0167C81.8147 36.1827 81.8172 33.0613 83.7834 32.0432C84.2168 31.8173 84.7009 31.7059 85.1895 31.7196C85.6781 31.7334 86.1551 31.8719 86.5751 32.1219C86.9952 32.3719 87.3443 32.7252 87.5894 33.1481C87.8344 33.5711 87.9673 34.0497 87.9753 34.5384V34.5309Z" fill="#EBB376"/>
<path d="M88.619 36.1354C88.5388 36.5336 88.3036 36.8836 87.9653 37.1085C87.5137 37.4029 87.1269 37.0386 87.1169 36.5271C87.1169 36.0705 87.334 35.3644 87.8505 35.2795C87.9635 35.2636 88.0788 35.2757 88.1859 35.315C88.2931 35.3542 88.389 35.4193 88.465 35.5044C88.541 35.5896 88.5949 35.6921 88.6217 35.8031C88.6486 35.914 88.6477 36.0299 88.619 36.1404V36.1354Z" fill="#EBB376"/>
<path d="M83.4815 35.8208C83.3668 36.2215 83.1989 36.605 82.9824 36.9611C83.0741 37.0155 83.1766 37.0491 83.2827 37.0595C83.3887 37.0698 83.4958 37.0567 83.5962 37.021L83.4815 35.8208Z" fill="#D58745"/>
<path d="M84.8912 34.6209C84.9059 34.6164 84.9189 34.6078 84.9286 34.5959C84.9437 34.5801 84.9522 34.5591 84.9522 34.5373C84.9522 34.5154 84.9437 34.4944 84.9286 34.4786C84.8163 34.371 84.6795 34.292 84.5301 34.2486C84.3806 34.2051 84.2229 34.1985 84.0703 34.2291C84.0489 34.235 84.0307 34.249 84.0195 34.2681C84.0083 34.2872 84.0051 34.3099 84.0104 34.3314C84.0157 34.3526 84.0292 34.3708 84.0479 34.382C84.0666 34.3933 84.089 34.3966 84.1102 34.3913C84.2371 34.369 84.3674 34.377 84.4906 34.4148C84.6138 34.4525 84.7263 34.5188 84.8189 34.6084C84.8293 34.6156 84.8412 34.6205 84.8537 34.6226C84.8662 34.6248 84.879 34.6242 84.8912 34.6209Z" fill="#2E353A"/>
<path d="M81.9619 34.808C81.9474 34.8053 81.9338 34.7993 81.922 34.7905C81.9133 34.7837 81.9061 34.7753 81.9008 34.7657C81.8955 34.756 81.8922 34.7454 81.891 34.7345C81.8898 34.7236 81.8909 34.7125 81.894 34.702C81.8972 34.6915 81.9025 34.6817 81.9095 34.6733C82.0056 34.5501 82.1299 34.4518 82.2718 34.3867C82.4138 34.3216 82.5694 34.2915 82.7254 34.299C82.747 34.3021 82.7666 34.3134 82.7801 34.3306C82.7936 34.3478 82.7999 34.3695 82.7978 34.3913C82.7953 34.4127 82.7844 34.4323 82.7676 34.4458C82.7508 34.4594 82.7294 34.4658 82.7079 34.4637C82.579 34.4596 82.4509 34.4863 82.3342 34.5414C82.2175 34.5964 82.1156 34.6784 82.0367 34.7805C82.0278 34.7913 82.0161 34.7995 82.003 34.8043C81.9898 34.8091 81.9757 34.8104 81.9619 34.808Z" fill="#2E353A"/>
<path d="M84.6542 35.4316C84.6717 35.6013 84.5918 35.746 84.4795 35.7585C84.3672 35.771 84.2674 35.6412 84.2525 35.4691C84.2375 35.2969 84.3148 35.1547 84.4246 35.1422C84.5344 35.1297 84.6392 35.2595 84.6542 35.4316Z" fill="#2E353A"/>
<path d="M82.7329 35.6064C82.7504 35.7736 82.6705 35.9208 82.5607 35.9308C82.4509 35.9408 82.3486 35.811 82.3312 35.6413C82.3137 35.4717 82.3935 35.3269 82.5033 35.317C82.6131 35.307 82.7204 35.4317 82.7329 35.6064Z" fill="#2E353A"/>
<path d="M82.5532 35.3193L82.1365 35.2395C82.1365 35.2395 82.3736 35.5389 82.5532 35.3193Z" fill="#2E353A"/>
<path d="M84.4745 35.1445L84.0578 35.0647C84.0578 35.0647 84.2949 35.3641 84.4745 35.1445Z" fill="#2E353A"/>
<path d="M83.4914 37.695C83.7472 37.7268 84.0068 37.7 84.2507 37.6166C84.4945 37.5331 84.7161 37.3953 84.8987 37.2134C84.8987 37.2134 85.5225 38.3487 83.8408 38.5333C83.8139 38.2244 83.6919 37.9315 83.4914 37.695Z" fill="#263238"/>
<path d="M83.6411 37.7071L83.7634 37.9567C83.7634 37.9567 84.5569 37.9567 84.9785 37.4102C84.9585 37.3388 84.9318 37.2695 84.8987 37.2031C84.7352 37.3694 84.5391 37.5 84.3226 37.5867C84.1062 37.6735 83.8742 37.7145 83.6411 37.7071Z" fill="white"/>
<path d="M83.9555 38.5159C84.7789 38.3961 84.9935 38.0168 85.011 37.7124C84.1976 37.927 84.0004 38.3337 83.9555 38.5159Z" fill="#DE5753"/>
<path d="M84.3098 32.8616C84.1582 33.143 83.9422 33.3847 83.6794 33.5668C83.4167 33.7489 83.1146 33.8664 82.7978 33.9095C81.6649 34.1066 82.0692 37.0634 82.0692 37.0634C82.0692 37.0634 79.6214 31.095 84.9511 31.5191L84.3098 32.8616Z" fill="#263238"/>
<path d="M85.0859 31.6341C84.9972 31.6138 84.9053 31.6123 84.816 31.6296C84.7267 31.6469 84.642 31.6827 84.5674 31.7346C84.4927 31.7865 84.4297 31.8534 84.3823 31.931C84.335 32.0087 84.3043 32.0953 84.2924 32.1855C84.23 32.6845 84.3348 33.3083 85.1408 33.5678C86.5655 34.0244 86.4333 35.5315 86.4333 35.5315L86.6828 34.4137C86.6828 34.4137 86.7626 36.0106 87.5661 35.821C88.3695 35.6313 88.4494 34.1242 88.4494 34.1242L87.1219 32.0932L85.0859 31.6341Z" fill="#263238"/>
<path d="M84.1826 41.6123C84.2009 41.6048 84.2209 41.6026 84.2404 41.6058C84.2599 41.6089 84.2781 41.6175 84.2931 41.6304C84.3081 41.6433 84.3192 41.6601 84.3252 41.6789C84.3313 41.6977 84.332 41.7178 84.3273 41.737C84.2325 42.1487 84.1502 43.042 85.2356 43.042C86.321 43.042 87.2966 42.1562 87.7133 41.7295C87.7767 41.6646 87.8579 41.6197 87.9466 41.6006C88.0354 41.5816 88.1278 41.5891 88.2123 41.6223L88.4968 41.7345C88.5268 41.7465 88.5538 41.7649 88.576 41.7884C88.5981 41.8119 88.6149 41.8399 88.6251 41.8706C88.6354 41.9012 88.6388 41.9337 88.6351 41.9658C88.6315 41.9979 88.6209 42.0288 88.6041 42.0564C88.1225 42.8549 86.3958 45.4 85.001 43.3364C85.001 43.3364 84.1901 44.584 83.691 43.4687C83.5075 43.0474 83.468 42.5773 83.5788 42.1313C83.6023 42.0327 83.6497 41.9413 83.7166 41.8652C83.7836 41.7891 83.8682 41.7305 83.963 41.6946L84.1826 41.6123Z" fill="#407BFF"/>
<path opacity="0.6" d="M84.1826 41.6123C84.2009 41.6048 84.2209 41.6026 84.2404 41.6058C84.2599 41.6089 84.2781 41.6175 84.2931 41.6304C84.3081 41.6433 84.3192 41.6601 84.3252 41.6789C84.3313 41.6977 84.332 41.7178 84.3273 41.737C84.2325 42.1487 84.1502 43.042 85.2356 43.042C86.321 43.042 87.2966 42.1562 87.7133 41.7295C87.7767 41.6646 87.8579 41.6197 87.9466 41.6006C88.0354 41.5816 88.1278 41.5891 88.2123 41.6223L88.4968 41.7345C88.5268 41.7465 88.5538 41.7649 88.576 41.7884C88.5981 41.8119 88.6149 41.8399 88.6251 41.8706C88.6354 41.9012 88.6388 41.9337 88.6351 41.9658C88.6315 41.9979 88.6209 42.0288 88.6041 42.0564C88.1225 42.8549 86.3958 45.4 85.001 43.3364C85.001 43.3364 84.1901 44.584 83.691 43.4687C83.5075 43.0474 83.468 42.5773 83.5788 42.1313C83.6023 42.0327 83.6497 41.9413 83.7166 41.8652C83.7836 41.7891 83.8682 41.7305 83.963 41.6946L84.1826 41.6123Z" fill="white"/>
<path d="M79.2995 43.122C79.3331 43.096 79.3717 43.0773 79.4129 43.067C79.4541 43.0566 79.4969 43.0548 79.5388 43.0618C79.5807 43.0687 79.6207 43.0841 79.6563 43.1072C79.692 43.1302 79.7225 43.1603 79.746 43.1957C79.7695 43.231 79.7855 43.2708 79.793 43.3126C79.8005 43.3544 79.7992 43.3973 79.7894 43.4386C79.7796 43.4799 79.7614 43.5187 79.7359 43.5527C79.7104 43.5866 79.6783 43.615 79.6414 43.636L75.1276 46.6302C75.0938 46.6525 75.056 46.6679 75.0163 46.6756C74.9766 46.6832 74.9358 46.683 74.8961 46.6749C74.8161 46.6585 74.7459 46.611 74.7009 46.5429C74.6559 46.4747 74.6398 46.3915 74.6562 46.3114C74.6726 46.2314 74.7201 46.1612 74.7882 46.1162L79.2995 43.122Z" fill="#263238"/>
<path opacity="0.6" d="M79.2995 43.122C79.3331 43.096 79.3717 43.0773 79.4129 43.067C79.4541 43.0566 79.4969 43.0548 79.5388 43.0618C79.5807 43.0687 79.6207 43.0841 79.6563 43.1072C79.692 43.1302 79.7225 43.1603 79.746 43.1957C79.7695 43.231 79.7855 43.2708 79.793 43.3126C79.8005 43.3544 79.7992 43.3973 79.7894 43.4386C79.7796 43.4799 79.7614 43.5187 79.7359 43.5527C79.7104 43.5866 79.6783 43.615 79.6414 43.636L75.1276 46.6302C75.0938 46.6525 75.056 46.6679 75.0163 46.6756C74.9766 46.6832 74.9358 46.683 74.8961 46.6749C74.8161 46.6585 74.7459 46.611 74.7009 46.5429C74.6559 46.4747 74.6398 46.3915 74.6562 46.3114C74.6726 46.2314 74.7201 46.1612 74.7882 46.1162L79.2995 43.122Z" fill="white"/>
<path d="M74.7882 46.1086C74.6452 46.257 74.5242 46.425 74.4289 46.6077C74.4199 46.6234 74.4155 46.6414 74.4161 46.6595C74.4168 46.6776 74.4225 46.6952 74.4326 46.7102C74.4428 46.7253 74.4569 46.7372 74.4734 46.7446C74.4899 46.7521 74.5082 46.7548 74.5262 46.7524C74.7319 46.7371 74.9344 46.6926 75.1275 46.6201C75.1613 46.5979 75.1903 46.5691 75.213 46.5356C75.2356 46.5021 75.2515 46.4645 75.2596 46.4249C75.2677 46.3853 75.2679 46.3444 75.2602 46.3047C75.2526 46.265 75.2372 46.2272 75.2149 46.1935C75.1926 46.1597 75.1639 46.1307 75.1304 46.108C75.0969 46.0854 75.0592 46.0695 75.0196 46.0614C74.98 46.0533 74.9392 46.0531 74.8995 46.0608C74.8598 46.0684 74.8219 46.0839 74.7882 46.1061V46.1086Z" fill="#263238"/>
<path opacity="0.8" d="M74.7882 46.1086C74.6452 46.257 74.5242 46.425 74.4289 46.6077C74.4199 46.6234 74.4155 46.6414 74.4161 46.6595C74.4168 46.6776 74.4225 46.6952 74.4326 46.7102C74.4428 46.7253 74.4569 46.7372 74.4734 46.7446C74.4899 46.7521 74.5082 46.7548 74.5262 46.7524C74.7319 46.7371 74.9344 46.6926 75.1275 46.6201C75.1613 46.5979 75.1903 46.5691 75.213 46.5356C75.2356 46.5021 75.2515 46.4645 75.2596 46.4249C75.2677 46.3853 75.2679 46.3444 75.2602 46.3047C75.2526 46.265 75.2372 46.2272 75.2149 46.1935C75.1926 46.1597 75.1639 46.1307 75.1304 46.108C75.0969 46.0854 75.0592 46.0695 75.0196 46.0614C74.98 46.0533 74.9392 46.0531 74.8995 46.0608C74.8598 46.0684 74.8219 46.0839 74.7882 46.1061V46.1086Z" fill="white"/>
<path d="M81.0212 48.1021L79.0525 46.7223L78.5984 44.8334C78.5563 44.651 78.4639 44.4841 78.3315 44.3517C78.1991 44.2193 78.0322 44.1269 77.8498 44.0848C77.6134 44.0311 77.3655 44.0654 77.1524 44.1811C76.9394 44.2968 76.7757 44.4861 76.692 44.7136L76.5398 45.1228C76.499 45.2339 76.4779 45.3513 76.4774 45.4697V45.8165C76.4775 46.0659 76.571 46.3063 76.7394 46.4902L77.0089 46.7846C77.0812 46.8631 77.1654 46.9296 77.2584 46.9818L78.4262 47.633L80.2701 49.4744L81.0212 48.1021Z" fill="#EBB376"/>
<path d="M91.0893 42.5081C91.1336 42.3832 91.2097 42.2721 91.3101 42.1857C91.4105 42.0993 91.5317 42.0406 91.6617 42.0154C91.7918 41.9902 91.9261 41.9993 92.0515 42.042C92.177 42.0846 92.2891 42.1593 92.3768 42.2586C92.7935 42.7726 93.033 43.7557 92.3219 45.6944C90.9021 49.5495 88.6415 52.5761 85.8095 52.5761C82.4509 52.5761 79.0525 48.6886 79.0525 48.6886L80.2302 47.3013C80.2302 47.3013 83.6411 49.6144 85.9167 49.6144C87.2167 49.6243 89.3277 47.0992 91.0893 42.5081Z" fill="#407BFF"/>
<path opacity="0.2" d="M91.0893 42.5081C91.1336 42.3832 91.2097 42.2721 91.3101 42.1857C91.4105 42.0993 91.5317 42.0406 91.6617 42.0154C91.7918 41.9902 91.9261 41.9993 92.0515 42.042C92.177 42.0846 92.2891 42.1593 92.3768 42.2586C92.7935 42.7726 93.033 43.7557 92.3219 45.6944C90.9021 49.5495 88.6415 52.5761 85.8095 52.5761C82.4509 52.5761 79.0525 48.6886 79.0525 48.6886L80.2302 47.3013C80.2302 47.3013 83.6411 49.6144 85.9167 49.6144C87.2167 49.6243 89.3277 47.0992 91.0893 42.5081Z" fill="white"/>
<path d="M78.7581 48.5463L80.0855 46.9444C80.108 46.9175 80.1398 46.9002 80.1746 46.896C80.2094 46.8918 80.2445 46.9011 80.2727 46.922L80.8416 47.3362C80.8569 47.3472 80.8698 47.3613 80.8794 47.3775C80.8891 47.3938 80.8952 47.4118 80.8976 47.4305C80.8999 47.4493 80.8984 47.4683 80.893 47.4864C80.8877 47.5045 80.8787 47.5213 80.8665 47.5358L79.3694 49.3348C79.3557 49.3517 79.3382 49.365 79.3184 49.3738C79.2985 49.3826 79.2769 49.3865 79.2552 49.3853C79.2335 49.3841 79.2124 49.3778 79.1937 49.3668C79.1749 49.3559 79.1591 49.3406 79.1473 49.3223L78.7431 48.711C78.7278 48.6856 78.7209 48.6559 78.7236 48.6262C78.7263 48.5966 78.7384 48.5686 78.7581 48.5463Z" fill="#407BFF"/>
<path opacity="0.6" d="M78.7581 48.5463L80.0855 46.9444C80.108 46.9175 80.1398 46.9002 80.1746 46.896C80.2094 46.8918 80.2445 46.9011 80.2727 46.922L80.8416 47.3362C80.8569 47.3472 80.8698 47.3613 80.8794 47.3775C80.8891 47.3938 80.8952 47.4118 80.8976 47.4305C80.8999 47.4493 80.8984 47.4683 80.893 47.4864C80.8877 47.5045 80.8787 47.5213 80.8665 47.5358L79.3694 49.3348C79.3557 49.3517 79.3382 49.365 79.3184 49.3738C79.2985 49.3826 79.2769 49.3865 79.2552 49.3853C79.2335 49.3841 79.2124 49.3778 79.1937 49.3668C79.1749 49.3559 79.1591 49.3406 79.1473 49.3223L78.7431 48.711C78.7278 48.6856 78.7209 48.6559 78.7236 48.6262C78.7263 48.5966 78.7384 48.5686 78.7581 48.5463Z" fill="white"/>
<path d="M84.8863 31.4993H84.4196V31.5167C85.2782 31.6068 86.073 32.0115 86.6508 32.6528C87.2285 33.2942 87.5484 34.1268 87.5486 34.99H88.377C88.3764 34.0644 88.0084 33.1769 87.3539 32.5224C86.6994 31.8679 85.8119 31.4999 84.8863 31.4993Z" fill="#263238"/>
<path opacity="0.6" d="M84.8863 31.4993H84.4196V31.5167C85.2782 31.6068 86.073 32.0115 86.6508 32.6528C87.2285 33.2942 87.5484 34.1268 87.5486 34.99H88.377C88.3764 34.0644 88.0084 33.1769 87.3539 32.5224C86.6994 31.8679 85.8119 31.4999 84.8863 31.4993Z" fill="white"/>
<path d="M87.9753 37.7147C88.6009 37.7147 89.1081 37.0366 89.1081 36.2001C89.1081 35.3636 88.6009 34.6855 87.9753 34.6855C87.3496 34.6855 86.8425 35.3636 86.8425 36.2001C86.8425 37.0366 87.3496 37.7147 87.9753 37.7147Z" fill="#407BFF"/>
<path d="M89.2378 36.2002C89.2378 36.8764 89.0332 37.1983 88.4893 37.1983C87.9453 37.1983 87.7407 36.8814 87.7407 36.2002C87.7407 35.519 87.9478 35.2021 88.4893 35.2021C89.0307 35.2021 89.2378 35.5215 89.2378 36.2002Z" fill="#263238"/>
<path opacity="0.5" d="M89.2378 36.2002C89.2378 36.8764 89.0332 37.1983 88.4893 37.1983C87.9453 37.1983 87.7407 36.8814 87.7407 36.2002C87.7407 35.519 87.9478 35.2021 88.4893 35.2021C89.0307 35.2021 89.2378 35.5215 89.2378 36.2002Z" fill="white"/>
<path d="M88.654 37.1008C89.026 37.1008 89.3277 36.6976 89.3277 36.2001C89.3277 35.7026 89.026 35.2993 88.654 35.2993C88.2819 35.2993 87.9803 35.7026 87.9803 36.2001C87.9803 36.6976 88.2819 37.1008 88.654 37.1008Z" fill="#263238"/>
<path opacity="0.7" d="M88.654 37.1008C89.026 37.1008 89.3277 36.6976 89.3277 36.2001C89.3277 35.7026 89.026 35.2993 88.654 35.2993C88.2819 35.2993 87.9803 35.7026 87.9803 36.2001C87.9803 36.6976 88.2819 37.1008 88.654 37.1008Z" fill="white"/>
<path d="M42.4381 88.8213H41.2429L40.7189 57.5566H42.9621L42.4381 88.8213Z" fill="#263238"/>
<path opacity="0.7" d="M42.4381 88.8213H41.2429L40.7189 57.5566H42.9621L42.4381 88.8213Z" fill="white"/>
<path d="M55.6401 88.8213H54.4424L53.9185 57.5566H56.1641L55.6401 88.8213Z" fill="#263238"/>
<path opacity="0.7" d="M55.6401 88.8213H54.4424L53.9185 57.5566H56.1641L55.6401 88.8213Z" fill="white"/>
<path d="M64.4057 57.0325H41.8392V59.4778H64.4057V57.0325Z" fill="#263238"/>
<path opacity="0.5" d="M64.4057 57.0325H41.8392V59.4778H64.4057V57.0325Z" fill="white"/>
<path d="M77.6427 57.0325H64.4082V59.4778H77.6427V57.0325Z" fill="#263238"/>
<path opacity="0.5" d="M77.6427 57.0325H64.4082V59.4778H77.6427V57.0325Z" fill="white"/>
<path d="M78.2066 88.8213H77.0089L76.4849 57.5566H78.7281L78.2066 88.8213Z" fill="#263238"/>
<path opacity="0.7" d="M78.2066 88.8213H77.0089L76.4849 57.5566H78.7281L78.2066 88.8213Z" fill="white"/>
<path d="M79.4367 55.4604H61.8157C61.4505 55.4604 61.1545 55.7565 61.1545 56.1217V56.8952C61.1545 57.2604 61.4505 57.5564 61.8157 57.5564H79.4367C79.8019 57.5564 80.0979 57.2604 80.0979 56.8952V56.1217C80.0979 55.7565 79.8019 55.4604 79.4367 55.4604Z" fill="#263238"/>
<path d="M63.4426 55.4604H39.5212C39.156 55.4604 38.86 55.7565 38.86 56.1217V56.8952C38.86 57.2604 39.156 57.5564 39.5212 57.5564H63.4426C63.8077 57.5564 64.1038 57.2604 64.1038 56.8952V56.1217C64.1038 55.7565 63.8077 55.4604 63.4426 55.4604Z" fill="#263238"/>
<path opacity="0.2" d="M63.4426 55.4604H39.5212C39.156 55.4604 38.86 55.7565 38.86 56.1217V56.8952C38.86 57.2604 39.156 57.5564 39.5212 57.5564H63.4426C63.8077 57.5564 64.1038 57.2604 64.1038 56.8952V56.1217C64.1038 55.7565 63.8077 55.4604 63.4426 55.4604Z" fill="white"/>
<path d="M65.0046 88.8213H63.8094L63.2854 57.5566H65.5286L65.0046 88.8213Z" fill="#263238"/>
<path opacity="0.7" d="M65.0046 88.8213H63.8094L63.2854 57.5566H65.5286L65.0046 88.8213Z" fill="white"/>
<path d="M64.3758 55.4631C64.2831 55.4631 64.1943 55.4263 64.1287 55.3607C64.0632 55.2952 64.0264 55.2064 64.0264 55.1137C64.0264 55.0211 64.0632 54.9322 64.1287 54.8667C64.1943 54.8012 64.2831 54.7644 64.3758 54.7644H73.8949C73.9875 54.7644 74.0764 54.8012 74.1419 54.8667C74.2074 54.9322 74.2442 55.0211 74.2442 55.1137C74.2442 55.2064 74.2074 55.2952 74.1419 55.3607C74.0764 55.4263 73.9875 55.4631 73.8949 55.4631H64.3758Z" fill="#407BFF"/>
<path d="M65.1942 54.8591L63.9267 45.8415C63.9 45.6774 63.8168 45.5277 63.6915 45.4184C63.5662 45.3091 63.4067 45.2469 63.2405 45.2427H62.0278V55.4605H64.6777C64.7543 55.4648 64.8308 55.4514 64.9013 55.4214C64.9719 55.3914 65.0346 55.3455 65.0845 55.2874C65.1345 55.2292 65.1704 55.1603 65.1894 55.0861C65.2084 55.0118 65.2101 54.9341 65.1942 54.8591Z" fill="#407BFF"/>
<path d="M64.1537 55.4605H53.397C53.2307 55.4561 53.0712 55.3935 52.9463 55.2836C52.8213 55.1737 52.7389 55.0235 52.7133 54.8592L51.4457 45.8416C51.4303 45.7667 51.4323 45.6893 51.4515 45.6154C51.4708 45.5414 51.5067 45.4729 51.5566 45.415C51.6065 45.3572 51.6691 45.3116 51.7394 45.2817C51.8097 45.2518 51.8859 45.2385 51.9622 45.2427H62.724C62.8901 45.2474 63.0493 45.3097 63.1745 45.419C63.2997 45.5283 63.383 45.6776 63.4101 45.8416L64.6777 54.8592C64.6938 54.9348 64.692 55.0132 64.6726 55.0881C64.6532 55.1629 64.6166 55.2323 64.5658 55.2906C64.515 55.3489 64.4513 55.3946 64.3798 55.4241C64.3083 55.4536 64.2309 55.466 64.1537 55.4605Z" fill="#407BFF"/>
<path opacity="0.7" d="M64.1537 55.4605H53.397C53.2307 55.4561 53.0712 55.3935 52.9463 55.2836C52.8213 55.1737 52.7389 55.0235 52.7133 54.8592L51.4457 45.8416C51.4303 45.7667 51.4323 45.6893 51.4515 45.6154C51.4708 45.5414 51.5067 45.4729 51.5566 45.415C51.6065 45.3572 51.6691 45.3116 51.7394 45.2817C51.8097 45.2518 51.8859 45.2385 51.9622 45.2427H62.724C62.8901 45.2474 63.0493 45.3097 63.1745 45.419C63.2997 45.5283 63.383 45.6776 63.4101 45.8416L64.6777 54.8592C64.6938 54.9348 64.692 55.0132 64.6726 55.0881C64.6532 55.1629 64.6166 55.2323 64.5658 55.2906C64.515 55.3489 64.4513 55.3946 64.3798 55.4241C64.3083 55.4536 64.2309 55.466 64.1537 55.4605Z" fill="white"/>
<path opacity="0.7" d="M58.5795 50.1057C58.5917 50.174 58.5886 50.244 58.5704 50.3109C58.5522 50.3778 58.5193 50.4397 58.4742 50.4923C58.429 50.5449 58.3727 50.5867 58.3093 50.6148C58.246 50.6429 58.1772 50.6565 58.1079 50.6547C57.9561 50.6498 57.8107 50.5924 57.6965 50.4923C57.5823 50.3922 57.5063 50.2556 57.4816 50.1057C57.4693 50.0375 57.4724 49.9675 57.4907 49.9006C57.5089 49.8337 57.5418 49.7718 57.5869 49.7192C57.6321 49.6666 57.6884 49.6248 57.7517 49.5967C57.8151 49.5686 57.8839 49.555 57.9532 49.5568C58.1053 49.5608 58.2511 49.6178 58.3655 49.7181C58.4799 49.8183 58.5556 49.9555 58.5795 50.1057Z" fill="white"/>
<path d="M49.3423 50.2681H45.1853C45.1193 50.2681 45.0541 50.2827 44.9943 50.3107C44.9345 50.3386 44.8815 50.3794 44.8392 50.4301C44.7968 50.4808 44.7661 50.5401 44.7492 50.6039C44.7322 50.6678 44.7295 50.7345 44.7412 50.7995V50.837C44.5338 50.7853 44.3161 50.7922 44.1124 50.8569C43.3639 51.0815 43.3414 51.7502 43.566 52.5013C43.7905 53.2523 44.1748 53.7988 44.9258 53.5742C45.0467 53.5372 45.1618 53.4835 45.2677 53.4145C45.4166 53.7659 45.658 54.0703 45.9663 54.2953V54.8442H48.5464V54.2953C48.9808 53.9805 49.2775 53.5105 49.3748 52.9828L49.779 50.7995C49.7906 50.7352 49.788 50.669 49.7715 50.6057C49.755 50.5424 49.725 50.4835 49.6834 50.4329C49.6419 50.3824 49.5899 50.3415 49.531 50.313C49.4721 50.2845 49.4077 50.2692 49.3423 50.2681ZM44.8285 53.0976C44.3295 53.2448 44.08 52.8855 43.9353 52.3915C43.7905 51.8974 43.803 51.4608 44.2946 51.3135C44.4756 51.2538 44.673 51.2681 44.8435 51.3535L45.1354 52.9304C45.0466 53.0079 44.9418 53.065 44.8285 53.0976Z" fill="#407BFF"/>
<path opacity="0.5" d="M49.3423 50.2681H45.1853C45.1193 50.2681 45.0541 50.2827 44.9943 50.3107C44.9345 50.3386 44.8815 50.3794 44.8392 50.4301C44.7968 50.4808 44.7661 50.5401 44.7492 50.6039C44.7322 50.6678 44.7295 50.7345 44.7412 50.7995V50.837C44.5338 50.7853 44.3161 50.7922 44.1124 50.8569C43.3639 51.0815 43.3414 51.7502 43.566 52.5013C43.7905 53.2523 44.1748 53.7988 44.9258 53.5742C45.0467 53.5372 45.1618 53.4835 45.2677 53.4145C45.4166 53.7659 45.658 54.0703 45.9663 54.2953V54.8442H48.5464V54.2953C48.9808 53.9805 49.2775 53.5105 49.3748 52.9828L49.779 50.7995C49.7906 50.7352 49.788 50.669 49.7715 50.6057C49.755 50.5424 49.725 50.4835 49.6834 50.4329C49.6419 50.3824 49.5899 50.3415 49.531 50.313C49.4721 50.2845 49.4077 50.2692 49.3423 50.2681ZM44.8285 53.0976C44.3295 53.2448 44.08 52.8855 43.9353 52.3915C43.7905 51.8974 43.803 51.4608 44.2946 51.3135C44.4756 51.2538 44.673 51.2681 44.8435 51.3535L45.1354 52.9304C45.0466 53.0079 44.9418 53.065 44.8285 53.0976Z" fill="white"/>
<path d="M48.6561 55.4904H45.864C45.6899 55.4909 45.5184 55.448 45.365 55.3656L44.4168 54.8466C44.3801 54.8258 44.3512 54.7935 44.3347 54.7546C44.3181 54.7157 44.3149 54.6725 44.3254 54.6316C44.3359 54.5907 44.3596 54.5544 44.3928 54.5283C44.426 54.5022 44.4669 54.4878 44.5091 54.4873H49.9985C50.0408 54.4878 50.0816 54.5022 50.1149 54.5283C50.1481 54.5544 50.1718 54.5907 50.1823 54.6316C50.1928 54.6725 50.1895 54.7157 50.173 54.7546C50.1565 54.7935 50.1276 54.8258 50.0909 54.8466L49.1427 55.3656C48.993 55.446 48.826 55.4888 48.6561 55.4904Z" fill="#407BFF"/>
<path opacity="0.4" d="M48.6561 55.4904H45.864C45.6899 55.4909 45.5184 55.448 45.365 55.3656L44.4168 54.8466C44.3801 54.8258 44.3512 54.7935 44.3347 54.7546C44.3181 54.7157 44.3149 54.6725 44.3254 54.6316C44.3359 54.5907 44.3596 54.5544 44.3928 54.5283C44.426 54.5022 44.4669 54.4878 44.5091 54.4873H49.9985C50.0408 54.4878 50.0816 54.5022 50.1149 54.5283C50.1481 54.5544 50.1718 54.5907 50.1823 54.6316C50.1928 54.6725 50.1895 54.7157 50.173 54.7546C50.1565 54.7935 50.1276 54.8258 50.0909 54.8466L49.1427 55.3656C48.993 55.446 48.826 55.4888 48.6561 55.4904Z" fill="white"/>
<path d="M67.2627 20.533H50.7571C50.035 20.533 49.4496 21.1183 49.4496 21.8404V34.9626C49.4496 35.6847 50.035 36.2701 50.7571 36.2701H67.2627C67.9848 36.2701 68.5702 35.6847 68.5702 34.9626V21.8404C68.5702 21.1183 67.9848 20.533 67.2627 20.533Z" fill="#407BFF"/>
<path opacity="0.6" d="M67.2627 20.533H50.7571C50.035 20.533 49.4496 21.1183 49.4496 21.8404V34.9626C49.4496 35.6847 50.035 36.2701 50.7571 36.2701H67.2627C67.9848 36.2701 68.5702 35.6847 68.5702 34.9626V21.8404C68.5702 21.1183 67.9848 20.533 67.2627 20.533Z" fill="white"/>
<path d="M58.3449 23.4872C58.3449 23.4872 56.9227 22.7586 56.1991 24.3605C55.4755 25.9625 53.6465 24.9993 54.415 28.2455C55.1835 31.4918 51.8999 30.3889 53.4793 32.7593C55.0588 35.1298 57.4716 33.5079 58.7941 33.5503C60.1165 33.5927 62.6716 34.4236 63.2854 32.9465C63.8992 31.4693 62.8487 30.9728 62.8263 30.1718C62.8038 29.3709 64.1338 27.4521 63.0559 26.5838C61.0847 24.9868 61.8607 22.5915 58.3449 23.4872Z" fill="#2E353A"/>
<path d="M58.7941 31.7439C60.5056 31.7439 61.8931 29.9688 61.8931 27.7791C61.8931 25.5893 60.5056 23.8142 58.7941 23.8142C57.0825 23.8142 55.6951 25.5893 55.6951 27.7791C55.6951 29.9688 57.0825 31.7439 58.7941 31.7439Z" fill="#B97964"/>
<path d="M59.0037 27.9585C59.0779 28.3235 59.2031 28.6763 59.3755 29.0065C59.2905 29.0486 59.1972 29.0715 59.1024 29.0737C59.0076 29.0758 58.9134 29.0571 58.8265 29.019L59.0037 27.9585Z" fill="#A24E3F"/>
<path d="M57.6388 27.971C57.6388 28.1157 57.6962 28.238 57.791 28.2455C57.8858 28.253 57.9682 28.1382 57.9781 27.996C57.9881 27.8537 57.9183 27.7315 57.8259 27.7265C57.7336 27.7215 57.6388 27.8288 57.6388 27.971Z" fill="#2E353A"/>
<path d="M57.1223 27.4646C57.1091 27.4671 57.0956 27.4671 57.0824 27.4646C57.0677 27.4481 57.0595 27.4268 57.0595 27.4047C57.0595 27.3826 57.0677 27.3613 57.0824 27.3448C57.1691 27.2416 57.2789 27.1603 57.4028 27.1074C57.5268 27.0545 57.6615 27.0316 57.796 27.0404C57.8183 27.0441 57.8383 27.0563 57.8518 27.0745C57.8653 27.0926 57.8713 27.1153 57.8684 27.1377C57.8672 27.1488 57.8637 27.1596 57.8582 27.1693C57.8527 27.179 57.8453 27.1875 57.8365 27.1942C57.8276 27.201 57.8175 27.2059 57.8066 27.2086C57.7958 27.2114 57.7846 27.2119 57.7735 27.2101C57.6669 27.2042 57.5604 27.2238 57.4627 27.2671C57.3651 27.3105 57.2792 27.3765 57.2121 27.4596C57.199 27.4685 57.1837 27.4737 57.1679 27.4746C57.1521 27.4755 57.1363 27.472 57.1223 27.4646Z" fill="#2E353A"/>
<path d="M60.2263 27.971C60.2263 28.1157 60.1665 28.238 60.0716 28.2455C59.9768 28.253 59.8945 28.1382 59.8845 27.996C59.8745 27.8537 59.9444 27.7315 60.0392 27.7265C60.134 27.7215 60.2164 27.8288 60.2263 27.971Z" fill="#2E353A"/>
<path d="M60.7403 27.4647C60.7543 27.4672 60.7687 27.4672 60.7827 27.4647C60.7975 27.4482 60.8056 27.4269 60.8056 27.4048C60.8056 27.3827 60.7975 27.3614 60.7827 27.3449C60.6962 27.2416 60.5864 27.1601 60.4624 27.1072C60.3384 27.0543 60.2036 27.0315 60.0691 27.0405C60.0471 27.0448 60.0274 27.0571 60.014 27.0751C60.0006 27.0931 59.9945 27.1155 59.9967 27.1378C59.9983 27.149 60.002 27.1598 60.0077 27.1695C60.0135 27.1792 60.0211 27.1877 60.0302 27.1945C60.0392 27.2012 60.0496 27.2061 60.0605 27.2088C60.0715 27.2115 60.0829 27.2119 60.0941 27.2102C60.2007 27.2047 60.3071 27.2244 60.4046 27.2678C60.5022 27.3111 60.5881 27.3769 60.6555 27.4597C60.6677 27.4684 60.6822 27.4735 60.6972 27.4744C60.7122 27.4753 60.7271 27.4719 60.7403 27.4647Z" fill="#2E353A"/>
<path d="M59.0062 30.1719C59.0898 30.1714 59.1733 30.1638 59.2557 30.1494C59.2674 30.147 59.2777 30.1402 59.2847 30.1305C59.2916 30.1208 59.2946 30.1088 59.2931 30.097C59.2922 30.0911 59.2901 30.0854 59.287 30.0803C59.2838 30.0751 59.2797 30.0707 59.2748 30.0672C59.2699 30.0637 59.2644 30.0613 59.2585 30.0599C59.2527 30.0586 59.2466 30.0585 59.2407 30.0596C59.0517 30.0954 58.8569 30.087 58.6716 30.0351C58.4864 29.9831 58.3156 29.889 58.1728 29.7601C58.164 29.7519 58.1524 29.7473 58.1403 29.7473C58.1283 29.7473 58.1167 29.7519 58.1079 29.7601C58.1035 29.7643 58.1 29.7694 58.0977 29.775C58.0953 29.7805 58.0941 29.7865 58.0941 29.7926C58.0941 29.7986 58.0953 29.8046 58.0977 29.8102C58.1 29.8158 58.1035 29.8208 58.1079 29.825C58.3508 30.0531 58.673 30.1776 59.0062 30.1719Z" fill="#2E353A"/>
<path d="M58.5046 34.3361C59.7545 34.3192 60.9809 33.9944 62.0753 33.3904C61.6778 33.3159 61.2745 33.2774 60.8701 33.2756C60.2177 33.6345 59.481 33.812 58.7367 33.7896C57.3943 33.7896 56.6707 33.2756 56.6707 33.2756C56.373 33.2754 56.0755 33.2929 55.7799 33.328C56.1717 33.7148 57.0275 34.3361 58.5046 34.3361Z" fill="#577AFB"/>
<path d="M60.5182 33.72L61.0846 33.3607C60.7933 33.3178 60.5167 33.2048 60.2787 33.0313C59.5476 32.4849 59.9443 31.0901 59.9443 31.0901H57.8459C57.796 31.926 57.8184 32.6645 57.3469 33.0114C57.0685 33.226 56.73 33.3481 56.3787 33.3607L57.1273 33.8073C57.0799 33.9121 57.6263 34.1093 57.6263 34.1093L59.7098 34.2265L60.109 33.977C60.109 33.977 60.633 33.8772 60.5182 33.72Z" fill="#B97964"/>
<path d="M56.6707 33.2758C56.6707 33.2758 57.3943 33.7899 58.7367 33.7899C59.481 33.8122 60.2177 33.6347 60.8701 33.2758C60.8701 33.2758 65.0296 33.1935 65.0296 36.2701H53.0103C53.0103 36.2701 52.4713 33.2758 56.6707 33.2758Z" fill="#407BFF"/>
<path d="M55.5254 27.0278C55.5254 27.0278 55.6626 28.3602 56.0993 28.3153C56.5359 28.2704 56.229 26.2143 57.0524 26.0696C57.8759 25.9249 58.345 25.7427 58.3774 25.2262C58.4098 24.7097 59.6874 25.0715 59.5152 24.4153C59.9543 24.6086 60.305 24.9593 60.4983 25.3984C60.8551 26.1619 60.9549 25.7727 61.2169 26.3042C61.4789 26.8356 61.7159 28.4026 62.1351 27.2573C62.5543 26.112 61.4789 25.1489 61.4789 25.1489L60.5282 24.0261L59.64 23.8239L58.8789 23.6667H57.8584L57.1747 23.8239L56.1991 24.8694L55.6002 25.8974L55.5254 27.0278Z" fill="#2E353A"/>
<path d="M56.0494 27.9759C56.2839 28.43 56.239 28.9515 55.9496 29.1412C55.6601 29.3308 55.2334 29.1112 55.0014 28.6571C54.7693 28.203 54.8118 27.6815 55.1012 27.4918C55.3906 27.3022 55.8173 27.5218 56.0494 27.9759Z" fill="#B97964"/>
<path d="M61.3666 27.9759C61.1321 28.43 61.1795 28.9515 61.4689 29.1412C61.7584 29.3308 62.1825 29.1112 62.4171 28.6571C62.6516 28.203 62.6067 27.6815 62.3148 27.4918C62.0229 27.3022 61.6012 27.5218 61.3666 27.9759Z" fill="#B97964"/>
<path d="M55.6053 28.3228C55.5427 28.3387 55.4888 28.3783 55.4548 28.4332C55.4208 28.4881 55.4095 28.5541 55.4231 28.6172L55.5504 29.4331C55.554 29.4546 55.5661 29.4738 55.5838 29.4864C55.6016 29.499 55.6237 29.5041 55.6452 29.5005C55.6667 29.4968 55.6858 29.4848 55.6985 29.467C55.7111 29.4492 55.7162 29.4272 55.7125 29.4057L55.6227 28.8393H55.6751C55.7352 28.8201 55.7865 28.7801 55.8197 28.7265C55.8529 28.6729 55.8659 28.6092 55.8562 28.5468C55.8466 28.4845 55.815 28.4277 55.7672 28.3866C55.7193 28.3455 55.6583 28.3229 55.5953 28.3228H55.6053Z" fill="white"/>
<path d="M61.9605 28.3228C62.0231 28.3387 62.077 28.3783 62.1109 28.4332C62.1449 28.4882 62.1563 28.5541 62.1426 28.6172L62.0129 29.4331C62.0092 29.4546 61.9972 29.4738 61.9794 29.4864C61.9616 29.499 61.9396 29.5041 61.9181 29.5005C61.8964 29.4968 61.877 29.4849 61.864 29.4672C61.851 29.4495 61.8453 29.4275 61.8482 29.4057L61.938 28.8393H61.8807C61.8203 28.8201 61.7689 28.7799 61.7357 28.726C61.7025 28.6721 61.6897 28.6081 61.6997 28.5456C61.7097 28.4831 61.7417 28.4263 61.79 28.3854C61.8383 28.3445 61.8997 28.3223 61.963 28.3228H61.9605Z" fill="white"/>
<path d="M68.3157 22.7785C69.5574 22.7785 70.5639 21.772 70.5639 20.5304C70.5639 19.2888 69.5574 18.2822 68.3157 18.2822C67.0741 18.2822 66.0676 19.2888 66.0676 20.5304C66.0676 21.772 67.0741 22.7785 68.3157 22.7785Z" fill="#407BFF"/>
<path d="M67.0207 21.8254C66.9857 21.7903 66.966 21.7427 66.966 21.6932C66.966 21.6436 66.9857 21.596 67.0207 21.5609L69.3463 19.2354C69.3813 19.2003 69.4289 19.1807 69.4785 19.1807C69.5281 19.1807 69.5757 19.2003 69.6107 19.2354C69.6458 19.2705 69.6655 19.318 69.6655 19.3676C69.6655 19.4172 69.6458 19.4648 69.6107 19.4999L67.2877 21.8254C67.2519 21.86 67.204 21.8793 67.1542 21.8793C67.1044 21.8793 67.0566 21.86 67.0207 21.8254Z" fill="white"/>
<path d="M69.0568 21.8703H68.4005V21.3713C68.5927 21.3509 68.7704 21.2601 68.8995 21.1163C69.0285 20.9725 69.0997 20.786 69.0992 20.5928V20.3283C69.0992 20.3227 69.0981 20.3172 69.096 20.3121C69.0938 20.3069 69.0907 20.3023 69.0868 20.2983C69.0828 20.2944 69.0782 20.2912 69.073 20.2891C69.0679 20.287 69.0624 20.2859 69.0568 20.2859H68.952C68.9405 20.2859 68.9294 20.2903 68.9211 20.2981C68.9127 20.306 68.9077 20.3168 68.9071 20.3283C68.9071 20.3341 68.9082 20.3398 68.9105 20.3451C68.9128 20.3505 68.9162 20.3552 68.9204 20.3592C68.9246 20.3632 68.9295 20.3663 68.935 20.3682C68.9404 20.3702 68.9462 20.3711 68.952 20.3707H69.0144V20.5928C69.0144 20.7781 68.9408 20.9558 68.8097 21.0868C68.6787 21.2178 68.501 21.2914 68.3157 21.2914C68.1304 21.2914 67.9527 21.2178 67.8217 21.0868C67.6907 20.9558 67.6171 20.7781 67.6171 20.5928V20.3707H67.6819C67.6932 20.3707 67.704 20.3663 67.7119 20.3583C67.7199 20.3503 67.7244 20.3396 67.7244 20.3283C67.7238 20.3173 67.7191 20.3068 67.7113 20.299C67.7034 20.2911 67.693 20.2865 67.6819 20.2859H67.5746C67.5636 20.2865 67.5531 20.2911 67.5453 20.299C67.5375 20.3068 67.5328 20.3173 67.5322 20.3283V20.5928C67.5323 20.7858 67.6037 20.972 67.7326 21.1157C67.8615 21.2594 68.039 21.3504 68.2309 21.3713V21.8703H67.5746C67.5519 21.871 67.5303 21.8805 67.5145 21.8968C67.4987 21.9131 67.4898 21.9349 67.4898 21.9577V22.0425H69.1416V21.9577C69.1416 21.9349 69.1328 21.9131 69.1169 21.8968C69.1011 21.8805 69.0795 21.871 69.0568 21.8703Z" fill="white"/>
<path d="M67.7892 20.6027C67.7984 20.7364 67.858 20.8616 67.956 20.953C68.054 21.0445 68.183 21.0954 68.317 21.0954C68.451 21.0954 68.58 21.0445 68.678 20.953C68.7759 20.8616 68.8355 20.7364 68.8447 20.6027V19.5472C68.8497 19.4749 68.8397 19.4023 68.8155 19.3339C68.7912 19.2656 68.7531 19.2029 68.7036 19.1499C68.6542 19.0969 68.5943 19.0546 68.5278 19.0257C68.4613 18.9968 68.3895 18.9819 68.317 18.9819C68.2445 18.9819 68.1727 18.9968 68.1062 19.0257C68.0397 19.0546 67.9798 19.0969 67.9303 19.1499C67.8808 19.2029 67.8427 19.2656 67.8185 19.3339C67.7942 19.4023 67.7843 19.4749 67.7892 19.5472V20.6027Z" fill="white"/>
<path d="M45.0106 26.5288H20.2983C19.5762 26.5288 18.9908 27.1142 18.9908 27.8363V46.2882C18.9908 47.0103 19.5762 47.5957 20.2983 47.5957H45.0106C45.7327 47.5957 46.3181 47.0103 46.3181 46.2882V27.8363C46.3181 27.1142 45.7327 26.5288 45.0106 26.5288Z" fill="#407BFF"/>
<path d="M30.9952 28.3004C30.9952 28.3004 29.7276 27.9137 29.4457 30.6334C29.1637 33.3532 27.2175 34.2589 29.2835 35.257C31.3495 36.2551 33.3457 35.1622 34.1566 35.257C34.9675 35.3518 36.4322 34.8203 36.3399 33.4779C36.2476 32.1355 33.8597 28.238 33.8597 28.238L30.9952 28.3004Z" fill="#263238"/>
<path d="M41.3278 40.2724C40.8812 41.7695 39.5987 45.7369 38.618 45.5996C37.4129 45.435 36.582 41.1083 36.582 41.1083L36.9138 35.8684C36.9138 35.8684 38.2438 35.8684 38.8276 42.5655L40.2349 39.5363L41.3278 40.2724Z" fill="#263238"/>
<path d="M40.3546 39.5812L40.8537 38.4933L41.6371 37.8521L42.0613 37.3954C42.1691 37.2791 42.311 37.2 42.4666 37.1695C42.6222 37.139 42.7835 37.1587 42.9272 37.2258L43.1767 37.343C43.3225 37.4106 43.4426 37.5232 43.5195 37.6643C43.5963 37.8054 43.6257 37.9674 43.6033 38.1265L43.4711 39.0747L41.3502 39.7609C41.3502 39.7609 41.2903 39.973 41.188 40.3173L40.3546 39.5812Z" fill="#EEC1BB"/>
<path d="M40.155 39.1992L41.6422 40.2173L41.5274 40.7812L39.8831 39.6134L40.155 39.1992Z" fill="#263238"/>
<path opacity="0.2" d="M40.155 39.1992L41.6422 40.2173L41.5274 40.7812L39.8831 39.6134L40.155 39.1992Z" fill="white"/>
<path d="M28.8244 47.5958C28.8244 47.5958 28.5973 41.6497 26.8083 36.3674C30.1191 35.5926 33.5428 35.4235 36.9138 35.8684C36.9138 35.8684 37.7447 39.6536 36.7466 47.5958H28.8244Z" fill="#263238"/>
<path opacity="0.2" d="M28.8244 47.5958C28.8244 47.5958 28.5973 41.6497 26.8083 36.3674C30.1191 35.5926 33.5428 35.4235 36.9138 35.8684C36.9138 35.8684 37.7447 39.6536 36.7466 47.5958H28.8244Z" fill="white"/>
<path d="M30.087 44.272C30.3889 44.1572 30.566 44.0849 30.566 44.0849L31.9084 43.4611L32.9065 42.5129C32.9685 42.4534 33.0167 42.3811 33.0476 42.301C33.0785 42.2208 33.0915 42.1349 33.0855 42.0492C33.0796 41.9635 33.0549 41.8802 33.0132 41.8051C32.9714 41.73 32.9138 41.665 32.8441 41.6146L32.2129 41.1705C32.1489 41.1247 32.0763 41.0922 31.9995 41.0749C31.9227 41.0576 31.8433 41.0559 31.7658 41.0699C31.6883 41.0838 31.6145 41.1132 31.5485 41.1562C31.4826 41.1992 31.426 41.255 31.382 41.3202L30.2541 42.9995C30.2541 42.9995 30.0046 43.0718 29.6004 43.1716L30.087 44.272Z" fill="#EEC1BB"/>
<path d="M30.1119 44.4269C28.6497 44.9783 24.2682 46.4879 22.9507 45.3002C21.3613 43.8655 26.8083 36.3674 26.8083 36.3674C28.263 38.0118 27.739 39.711 27.739 39.711C27.739 39.711 24.9369 42.6678 25.2014 43.3964C25.4334 44.0476 28.3129 43.3964 29.6303 43.0695L30.1119 44.4269Z" fill="#263238"/>
<path d="M29.8025 42.8899L30.4263 44.4693L29.9273 44.7613L29.2835 42.8899H29.8025Z" fill="#263238"/>
<path opacity="0.2" d="M29.8025 42.8899L30.4263 44.4693L29.9273 44.7613L29.2835 42.8899H29.8025Z" fill="white"/>
<path d="M33.6026 35.6336H33.1385C33.0677 35.1603 33.1113 34.6769 33.2658 34.2239L31.4443 32.3674C31.5366 33.2158 31.5766 34.8227 31.1798 35.706C30.9303 35.7235 30.6983 35.7434 30.4712 35.7659C30.586 36.1002 31.0251 36.9511 32.5372 36.9511C34.0493 36.9511 33.7698 35.9954 33.6026 35.6336Z" fill="#EEC1BB"/>
<path opacity="0.1" d="M31.7861 33.0488L31.5765 33.6103C31.9041 34.2486 32.4467 34.7506 33.1086 35.0275C33.1303 34.7546 33.1831 34.4851 33.2658 34.2241L32.0581 32.9915L31.7861 33.0488Z" fill="black"/>
<path d="M30.5162 30.9777C30.9578 32.6595 31.1075 33.3831 32.1405 34.0867C33.6925 35.1497 35.6637 34.2414 35.7361 32.4599C35.8035 30.8555 35.0724 28.3728 33.2709 28.0234C32.8747 27.9466 32.4656 27.972 32.082 28.0971C31.6984 28.2222 31.353 28.443 31.0783 28.7386C30.8037 29.0342 30.6089 29.3949 30.5123 29.7867C30.4157 30.1784 30.4204 30.5883 30.5261 30.9777H30.5162Z" fill="#EEC1BB"/>
<path d="M30.3789 32.4026C30.4566 32.5504 30.5628 32.6813 30.6912 32.788C30.8197 32.8946 30.9679 32.9748 31.1275 33.0239C31.5541 33.1537 31.7762 32.7744 31.6639 32.3652C31.5641 31.9984 31.2223 31.4894 30.7881 31.5393C30.6379 31.5621 30.5027 31.6433 30.4121 31.7653C30.3214 31.8873 30.2826 32.0401 30.3041 32.1905C30.315 32.2654 30.3405 32.3375 30.3789 32.4026Z" fill="#EEC1BB"/>
<path d="M34.3937 30.9553C34.5783 31.2477 34.8025 31.513 35.0599 31.7438C35.0001 31.809 34.9265 31.86 34.8445 31.8933C34.7625 31.9265 34.6741 31.9411 34.5858 31.9359L34.3937 30.9553Z" fill="#D58745"/>
<path d="M32.894 30.324C32.8825 30.3266 32.8706 30.3266 32.8591 30.324C32.8437 30.3142 32.8328 30.2988 32.8286 30.2811C32.8244 30.2634 32.8273 30.2448 32.8366 30.2292C32.9007 30.1168 32.9908 30.0215 33.0993 29.9511C33.2079 29.8808 33.3317 29.8375 33.4604 29.825C33.4788 29.8249 33.4965 29.8318 33.5099 29.8443C33.5233 29.8569 33.5315 29.874 33.5328 29.8923C33.5335 29.9104 33.5271 29.9281 33.515 29.9416C33.5029 29.9551 33.486 29.9634 33.4679 29.9647C33.3617 29.976 33.2596 30.0125 33.1703 30.0711C33.0809 30.1297 33.0067 30.2086 32.9539 30.3015C32.9471 30.3106 32.9378 30.3175 32.9272 30.3214C32.9166 30.3254 32.9051 30.3263 32.894 30.324Z" fill="#2E353A"/>
<path d="M34.5458 29.6054C34.5377 29.5969 34.5317 29.5867 34.5284 29.5754C34.5257 29.5667 34.5249 29.5576 34.5258 29.5486C34.5268 29.5396 34.5296 29.5308 34.534 29.5229C34.5384 29.515 34.5444 29.508 34.5516 29.5025C34.5588 29.4969 34.567 29.4929 34.5758 29.4906C34.6996 29.4522 34.8307 29.444 34.9583 29.4665C35.0859 29.4891 35.2063 29.5418 35.3094 29.6203C35.318 29.6256 35.3253 29.6327 35.3309 29.6411C35.3365 29.6495 35.3402 29.659 35.3417 29.669C35.3433 29.679 35.3427 29.6892 35.3399 29.6989C35.3372 29.7086 35.3323 29.7176 35.3258 29.7253C35.3192 29.7329 35.311 29.7391 35.3019 29.7433C35.2927 29.7475 35.2827 29.7497 35.2726 29.7497C35.2625 29.7497 35.2526 29.7475 35.2434 29.7432C35.2342 29.739 35.2261 29.7328 35.2195 29.7251C35.1338 29.6612 35.034 29.6188 34.9285 29.6014C34.823 29.5841 34.7149 29.5923 34.6132 29.6253C34.6012 29.628 34.5887 29.6276 34.5769 29.6241C34.5652 29.6206 34.5545 29.6141 34.5458 29.6054Z" fill="#2E353A"/>
<path d="M33.3681 30.9178C33.3955 31.0575 33.4904 31.1673 33.5827 31.1374C33.675 31.1074 33.7249 30.9927 33.695 30.8529C33.665 30.7132 33.5727 30.6184 33.4829 30.6359C33.393 30.6533 33.3406 30.7781 33.3681 30.9178Z" fill="#2E353A"/>
<path d="M34.9326 30.6112C34.9576 30.7484 35.0549 30.8457 35.1447 30.8283C35.2345 30.8108 35.2869 30.686 35.2595 30.5463C35.232 30.4066 35.1372 30.3093 35.0474 30.3267C34.9576 30.3442 34.9077 30.4715 34.9326 30.6112Z" fill="#2E353A"/>
<path d="M35.0125 30.3413L35.3268 30.1816C35.3268 30.1816 35.2071 30.4736 35.0125 30.3413Z" fill="#2E353A"/>
<path d="M33.4355 30.6509L33.7474 30.4912C33.7474 30.4912 33.6376 30.7831 33.4355 30.6509Z" fill="#2E353A"/>
<path d="M34.738 32.3799C34.3501 32.358 33.9611 32.3696 33.5753 32.4148C33.6486 32.5489 33.7633 32.6557 33.9021 32.7195C34.041 32.7834 34.1967 32.8007 34.3463 32.7691C34.7829 32.7292 34.738 32.3799 34.738 32.3799Z" fill="#2E353A"/>
<path d="M34.1242 32.6045C34.294 32.5797 34.4674 32.6048 34.6232 32.6769C34.5457 32.7323 34.4539 32.7643 34.3587 32.7692C34.1889 32.7941 34.0155 32.769 33.8597 32.6969C33.9372 32.6415 34.029 32.6094 34.1242 32.6045Z" fill="#DE5753"/>
<path d="M34.6981 32.3776C34.6919 32.4076 34.6774 32.4352 34.6562 32.4573C34.635 32.4794 34.608 32.495 34.5783 32.5024C34.3291 32.5218 34.0789 32.5218 33.8297 32.5024C33.7904 32.5035 33.7513 32.4952 33.7157 32.4783C33.6802 32.4614 33.6491 32.4363 33.6251 32.4051C33.9816 32.3702 34.3402 32.3611 34.6981 32.3776Z" fill="white"/>
<path d="M30.9953 32.2927C30.9953 32.2927 31.7438 31.6639 31.5766 30.324C31.4095 28.9841 33.1062 30.2342 33.4455 29.1113C33.7849 27.9885 35.247 30.2666 35.9657 28.8942C36.6843 27.5219 33.4056 27.1875 33.0787 27.5843C32.7519 27.981 28.2705 27.3348 30.9953 32.2927Z" fill="#263238"/>
<path d="M44.1124 43.4263H21.1941C20.8662 43.4263 20.6003 43.6921 20.6003 44.0201V45.148C20.6003 45.4759 20.8662 45.7418 21.1941 45.7418H44.1124C44.4404 45.7418 44.7063 45.4759 44.7063 45.148V44.0201C44.7063 43.6921 44.4404 43.4263 44.1124 43.4263Z" fill="white"/>
<path d="M23.6194 45.1631V44.0078L24.343 44.5867L23.6194 45.1631Z" fill="#263238"/>
<path d="M25.5082 44.9258L25.8251 44.5915L25.5082 44.2546V44.9258Z" fill="#263238"/>
<path d="M25.8251 44.2671V44.5915V44.9158H25.9674V44.2671H25.8251Z" fill="#263238"/>
<path d="M22.4517 44.2546L22.1373 44.5915L22.4517 44.9258V44.2546Z" fill="#263238"/>
<path d="M22.1373 44.9158V44.5915V44.2671H21.9926V44.9158H22.1373Z" fill="#263238"/>
<path d="M43.5884 44.4219H28.1757V44.7612H43.5884V44.4219Z" fill="#263238"/>
<path d="M35.4766 43.8254H34.9276V45.3425H35.4766V43.8254Z" fill="#407BFF"/>
<path d="M83.289 26.0784C84.03 22.9386 82.0855 19.7926 78.9457 19.0516C75.806 18.3105 72.66 20.255 71.9189 23.3948C71.1779 26.5346 73.1224 29.6806 76.2621 30.4216C79.4019 31.1627 82.5479 29.2181 83.289 26.0784Z" fill="#407BFF"/>
<path opacity="0.7" d="M83.289 26.0784C84.03 22.9386 82.0855 19.7926 78.9457 19.0516C75.806 18.3105 72.66 20.255 71.9189 23.3948C71.1779 26.5346 73.1224 29.6806 76.2621 30.4216C79.4019 31.1627 82.5479 29.2181 83.289 26.0784Z" fill="white"/>
<g opacity="0.8">
<path opacity="0.8" d="M76.4276 26.7235C76.7437 26.4165 77.1671 26.2448 77.6078 26.2448C78.0485 26.2448 78.4718 26.4165 78.788 26.7235C79.1049 27.0154 79.584 26.5413 79.2646 26.2469C78.8196 25.8182 78.2257 25.5786 77.6078 25.5786C76.9898 25.5786 76.396 25.8182 75.951 26.2469C75.6316 26.5413 76.1082 27.0154 76.4276 26.7235Z" fill="#407BFF"/>
<path opacity="0.8" d="M77.3782 27.6741C77.439 27.614 77.521 27.5802 77.6065 27.5802C77.6921 27.5802 77.7741 27.614 77.8349 27.6741C78.1542 27.9686 78.6308 27.492 78.3114 27.1976C78.1222 27.0151 77.8695 26.9131 77.6065 26.9131C77.3436 26.9131 77.0909 27.0151 76.9017 27.1976C76.5823 27.492 77.0613 27.9686 77.3782 27.6741Z" fill="#407BFF"/>
<path opacity="0.8" d="M75.175 25.4709C75.8267 24.8391 76.6988 24.4857 77.6065 24.4857C78.5143 24.4857 79.3864 24.8391 80.0381 25.4709C80.3575 25.7629 80.8341 25.2888 80.5147 24.9944C79.7338 24.2413 78.6913 23.8206 77.6065 23.8206C76.5218 23.8206 75.4793 24.2413 74.6984 24.9944C74.379 25.2888 74.8581 25.7654 75.175 25.4709Z" fill="#407BFF"/>
<path opacity="0.8" d="M74.0347 24.328C74.9926 23.3999 76.274 22.881 77.6078 22.881C78.9415 22.881 80.2229 23.3999 81.1809 24.328C81.4978 24.6249 81.9743 24.1508 81.6574 23.8514C80.5713 22.8004 79.1191 22.2129 77.6078 22.2129C76.0964 22.2129 74.6442 22.8004 73.5581 23.8514C73.2412 24.1508 73.7178 24.6249 74.0347 24.328Z" fill="#407BFF"/>
</g>
<path d="M31.09 61.469C34.4084 61.469 37.0984 58.7789 37.0984 55.4606C37.0984 52.1422 34.4084 49.4521 31.09 49.4521C27.7717 49.4521 25.0816 52.1422 25.0816 55.4606C25.0816 58.7789 27.7717 61.469 31.09 61.469Z" fill="#407BFF"/>
<path opacity="0.7" d="M31.09 61.469C34.4084 61.469 37.0984 58.7789 37.0984 55.4606C37.0984 52.1422 34.4084 49.4521 31.09 49.4521C27.7717 49.4521 25.0816 52.1422 25.0816 55.4606C25.0816 58.7789 27.7717 61.469 31.09 61.469Z" fill="white"/>
<path d="M29.7825 53.5493V55.0988L27.9161 53.734V57.1873L29.7825 55.8199V57.3719H34.2614V53.5493H29.7825Z" fill="#407BFF"/>
<path d="M102.184 33.1454C102.844 30.3504 101.113 27.5497 98.3175 26.89C95.5225 26.2303 92.7218 27.9614 92.0621 30.7565C91.4024 33.5515 93.1335 36.3522 95.9286 37.0119C98.7236 37.6716 101.524 35.9405 102.184 33.1454Z" fill="#407BFF"/>
<path opacity="0.7" d="M102.184 33.1454C102.844 30.3504 101.113 27.5497 98.3175 26.89C95.5225 26.2303 92.7218 27.9614 92.0621 30.7565C91.4024 33.5515 93.1335 36.3522 95.9286 37.0119C98.7236 37.6716 101.524 35.9405 102.184 33.1454Z" fill="white"/>
<path d="M98.6397 34.6831H97.3123V33.685C97.7038 33.6409 98.0654 33.4542 98.3281 33.1607C98.5909 32.8671 98.7364 32.4871 98.737 32.0931V31.5541C98.7364 31.5314 98.7269 31.5098 98.7106 31.494C98.6943 31.4781 98.6724 31.4693 98.6497 31.4693H98.4326C98.4201 31.4671 98.4072 31.4677 98.395 31.4711C98.3827 31.4744 98.3713 31.4804 98.3616 31.4886C98.3519 31.4968 98.3441 31.507 98.3387 31.5185C98.3334 31.5301 98.3306 31.5426 98.3306 31.5553C98.3306 31.5681 98.3334 31.5806 98.3387 31.5922C98.3441 31.6037 98.3519 31.6139 98.3616 31.6221C98.3713 31.6303 98.3827 31.6363 98.395 31.6396C98.4072 31.643 98.4201 31.6436 98.4326 31.6414H98.5599V32.0931C98.5599 32.4709 98.4098 32.8333 98.1426 33.1005C97.8754 33.3677 97.513 33.5178 97.1351 33.5178C96.7573 33.5178 96.3949 33.3677 96.1277 33.1005C95.8605 32.8333 95.7104 32.4709 95.7104 32.0931V31.6414H95.8401C95.8527 31.6436 95.8655 31.643 95.8778 31.6396C95.89 31.6363 95.9014 31.6303 95.9111 31.6221C95.9209 31.6139 95.9287 31.6037 95.934 31.5922C95.9394 31.5806 95.9422 31.5681 95.9422 31.5553C95.9422 31.5426 95.9394 31.5301 95.934 31.5185C95.9287 31.507 95.9209 31.4968 95.9111 31.4886C95.9014 31.4804 95.89 31.4744 95.8778 31.4711C95.8655 31.4677 95.8527 31.4671 95.8401 31.4693H95.623C95.6117 31.4689 95.6004 31.4709 95.5898 31.475C95.5792 31.4791 95.5696 31.4853 95.5614 31.4932C95.5533 31.5011 95.5468 31.5106 95.5424 31.521C95.538 31.5315 95.5357 31.5428 95.5357 31.5541V32.0931C95.5357 32.4872 95.6811 32.8675 95.944 33.1612C96.2068 33.4549 96.5687 33.6414 96.9605 33.685V34.6831H95.6156C95.5692 34.6831 95.5248 34.7015 95.492 34.7342C95.4593 34.767 95.4409 34.8114 95.4409 34.8577V35.0324H98.8094V34.8577C98.8094 34.8123 98.7917 34.7686 98.76 34.736C98.7283 34.7033 98.6852 34.6844 98.6397 34.6831Z" fill="#407BFF"/>
<path d="M97.1276 33.1858C97.4135 33.1858 97.6877 33.0723 97.8898 32.8701C98.092 32.668 98.2056 32.3938 98.2056 32.1079H96.0497C96.0494 32.2496 96.077 32.3899 96.1311 32.5208C96.1851 32.6517 96.2645 32.7707 96.3647 32.8709C96.4649 32.971 96.5838 33.0504 96.7147 33.1045C96.8457 33.1585 96.986 33.1862 97.1276 33.1858Z" fill="#407BFF"/>
<path d="M98.2055 29.9422C98.2055 29.6563 98.092 29.3821 97.8898 29.18C97.6877 28.9778 97.4135 28.8643 97.1276 28.8643C96.8418 28.8643 96.5676 28.9778 96.3654 29.18C96.1633 29.3821 96.0497 29.6563 96.0497 29.9422V31.9034H98.2055V29.9422Z" fill="#407BFF"/>
</svg>
