<svg width="33" height="27" viewBox="0 0 33 27" fill="none" xmlns="http://www.w3.org/2000/svg">
<path d="M26.7443 1.6875H30.733V5.0625H26.7443V1.6875Z" fill="black"/>
<path d="M26.7443 6.75H30.733V10.125H26.7443V6.75Z" fill="black"/>
<path d="M20.7614 1.6875H24.75V5.0625H20.7614V1.6875Z" fill="black"/>
<path d="M20.7614 6.75H24.75V10.125H20.7614V6.75Z" fill="black"/>
<path d="M28.7386 13.5V18.5625H4.80682V5.0625H16.7727V3.375H4.80682C4.27789 3.375 3.77063 3.55279 3.39662 3.86926C3.02261 4.18572 2.8125 4.61495 2.8125 5.0625V18.5625C2.8125 19.0101 3.02261 19.4393 3.39662 19.7557C3.77063 20.0722 4.27789 20.25 4.80682 20.25H12.7841V23.625H8.79545V25.3125H24.75V23.625H20.7614V20.25H28.7386C29.2676 20.25 29.7748 20.0722 30.1488 19.7557C30.5228 19.4393 30.733 19.0101 30.733 18.5625V13.5H28.7386ZM18.767 23.625H14.7784V20.25H18.767V23.625Z" fill="black"/>
</svg>
